<svg xmlns="http://www.w3.org/2000/svg" width="50" height="50" viewBox="0 0 50 50">
    <g fill="none" fill-rule="evenodd">
        <g>
            <g>
                <g transform="translate(-210 -2849) translate(100 2656) translate(110 193)">
                    <circle cx="25" cy="25" r="25" fill="#F7CD3D"/>
                    <g>
                        <g>
                            <path fill="#434343" fill-rule="nonzero" d="M17.013 5.475c1.118.438 1.889 1.179 2.86 2.51.089.122.493.686.601.834.724.985 1.207 1.408 1.798 1.505.387.064.54.083 1.417.186 1.154.134 1.946.29 2.491.585.25-.332.648-.546 1.096-.546.759 0 1.374.614 1.374 1.372 0 .758-.615 1.372-1.374 1.372l-.057-.001c-.234 2.284-2.9 5.857-5.496 5.7-.649-.038-2.011-.033-3.543.369-1.012 1.957-2.426 2.816-3.547 2.045-.06-.042-.118-.087-.172-.135-.179.153-.354.32-.525.498-.22.229-.408.64-.565 1.23-.071.268-.345.426-.612.356-.017-.005-.035-.01-.052-.017-.314-.122-.483-.463-.389-.787.16-.552.34-.948.54-1.188.317-.382.677-.73 1.07-1.045-.241-1.094.29-2.655 1.544-4.135l-.051.06c-.213-.338-.351-.701-.394-1.088l-.005-.107c-.015-.33.234-.61.563-.635l.041-.002c.304 0 .55.246.55.55v.066c.123 1.11 1.266 1.9 3.073 2.26 1.437.285 3.04.636 3.768.37 1.703-.91 3.287-3.993 3.038-4.938-.171-.652-.707-.866-2.501-1.076-.9-.105-1.059-.125-1.471-.192-.982-.162-1.652-.75-2.542-1.96-.114-.155-.52-.722-.604-.838-.852-1.168-1.488-1.78-2.348-2.116-1.212-.474-2.29-.7-3.233-.686-.118.002-.263.012-.433.032-.314.036-.605-.17-.675-.478-.065-.286.114-.572.401-.637l.05-.01c.19-.024.35-.04.48-.044 1.15-.045 2.427.211 3.834.761zm-.816 11.646l-.134.172c-1.132 1.5-1.28 2.813-.775 3.161.468.322 1.475-.453 2.243-2.468-.496-.247-.95-.537-1.334-.865zM10.382.252c1.036.18 1.36 1.516 1.228 4.062-.006.126-.017.296-.032.509-.022.3-.282.525-.582.503h-.007c-.305-.026-.535-.288-.522-.594.057-1.337.054-2.213-.01-2.629-.085-.547-.208-.76-.264-.77-.427-.074-1.14 1.25-2.033 3.787-.607 1.722-1.744 3.41-3.3 5.12-.526.579-1.83 1.972-3.912 4.178-.185.196-.48.226-.698.084l-.077-.061H.172c-.22-.21-.23-.557-.022-.778 2.076-2.2 3.375-3.587 3.897-4.162 1.466-1.61 2.526-3.185 3.076-4.746C8.32 1.36 9.042.02 10.383.252zm5.685 8.995c.575 0 1.04.518 1.04 1.156 0 .639-.465 1.156-1.04 1.156-.574 0-1.04-.517-1.04-1.156 0-.638.466-1.156 1.04-1.156zm.534-9.229c.97.166 1.365 1.328 1.413 3.478l.003.2c.003.3-.238.545-.538.548h-.01c-.304-.003-.548-.248-.551-.551l-.003-.187c-.02-.77-.087-1.372-.199-1.802-.111-.428-.232-.592-.3-.603-.051-.01-.194.097-.409.465-.221.379-.446.94-.67 1.679-.017.052-.035.116-.057.191-.083.291-.384.462-.677.385-.29-.076-.463-.373-.386-.663 0-.003.001-.007.003-.01.028-.1.053-.184.073-.251C14.917.84 15.613-.15 16.601.018z" transform="translate(6.364 7.273) rotate(-6 99.234 5.2)"/>
                        </g>
                        <path fill="#434343" fill-rule="nonzero" d="M29.34 9.998c2.672.315 3.6 2.577 2.689 5.575l-.774-.235c.78-2.571.076-4.29-2.009-4.536zm1.464-1.504c2.87-.55 5.176 4.034 3.006 7.033l-.656-.474c1.77-2.445-.102-6.166-2.198-5.764z" transform="translate(6.364 7.273)"/>
                        <path fill="#434343" fill-rule="nonzero" d="M32.366 15.877c-2.139 0-3.873-1.734-3.873-3.873 0-2.138 1.734-3.872 3.873-3.872 2.138 0 3.872 1.734 3.872 3.872 0 2.139-1.734 3.873-3.872 3.873zm0-.81c1.691 0 3.063-1.371 3.063-3.063 0-1.691-1.372-3.063-3.063-3.063-1.692 0-3.064 1.372-3.064 3.063 0 1.692 1.372 3.063 3.064 3.063z" transform="translate(6.364 7.273)"/>
                        <path fill="#434343" stroke="#434343" stroke-width=".5" d="M25.65 4.31c.108-.14.31-.165.45-.055h0l1.279 1h0l.017.015c.13.116.14.315.022.444-.128.141-.343.16-.493.042h0l-1.214-.95c-.15-.116-.18-.329-.072-.483l.01-.013zm-3.964-2.18c.079-.16.273-.227.434-.149h0l1.455.71.016.009c.154.086.21.28.123.434-.092.166-.298.23-.468.147h0l-1.397-.682c-.17-.083-.244-.284-.168-.457l.005-.012zM17.646.497l.073.01 1.57.416.018.005c.167.055.259.235.205.402-.059.18-.248.283-.43.235h0l-1.505-.399c-.182-.048-.294-.231-.255-.416l.004-.014c.045-.172.221-.274.393-.229zM10.18.305c.17-.03.332.082.362.251.034.187-.081.37-.265.418h0l-1.484.39c-.185.05-.376-.051-.441-.23l-.008-.027C8.3.942 8.398.774 8.563.73h0l1.593-.42.024-.005zM13.136 0l1.635.057h.02c.174.018.3.173.284.346-.019.189-.18.33-.37.324h0L13.157.674c-.19-.007-.341-.16-.347-.349h0v-.02c.006-.175.152-.31.326-.305h0z" transform="translate(6.364 7.273)"/>
                    </g>
                </g>
            </g>
        </g>
    </g>
</svg>
