<svg xmlns="http://www.w3.org/2000/svg" width="50" height="50" viewBox="0 0 50 50">
    <g fill="none" fill-rule="evenodd">
        <g>
            <g>
                <g transform="translate(-120 -2849) translate(100 2656) translate(20 193)">
                    <circle cx="25" cy="25" r="25" fill="#F7CD3D"/>
                    <g>
                        <path stroke="#434343" stroke-linecap="round" stroke-linejoin="round" stroke-width="1.5" d="M7.266 5.254c.92-.382 1.461-.655 2.412-.822.998-.177 2.022-.02 2.92.455.64.339 1.255.73 1.883 1.09.687.394 1.296.847 2.124.737.638-.086 1.242-.355 1.84-.583.645-.247 1.286-.505 1.945-.712 1.573-.495 1.362 2.421 1.288 3.28-.083.972-.523 1.933-1.286 2.54-.62.494-1.396.697-2.16.804-.79.11-1.592.217-2.39.217-.484 0-.823.308-.95.775-.037.137-.056.28-.065.422-.01.179-.001.355-.01.534-.004.072-.003.146.002.218.012.183.048.367.126.533.175.372.538.532.926.532h3.032s1.336-.17 1.336 1.004c0 .943-.743 1.551-2.229 1.551h-2.792s-3.153-.105-3.536 5.025M5.432 5.884s-1.09-3.776-2.519-3.285c-.804.276-.662 1.57-.577 2.223.106.829.395 1.593.563 2.401.262 1.271-.298 2.507-.686 3.687l-1.07 3.256L0 17.646M7.6 3.146S6.96.322 8.056.022c1.098-.298 1.895 2.483 1.895 2.483" transform="translate(11.607 12.5)"/>
                        <path fill="#434343" d="M12.383 7.66c.123.603-.295 1.183-.887 1.288-.592.105-1.146-.303-1.257-.908-.083-.454.463-.52 1.055-.624.591-.105.987-.247 1.089.244M22.787 4.278c.207.635-.127 1.323-.746 1.536-.62.211-1.291-.13-1.498-.766-.208-.634.126-1.32.745-1.534.62-.213 1.29.13 1.499.764" transform="translate(11.607 12.5)"/>
                        <path stroke="#434343" stroke-linecap="round" stroke-linejoin="round" stroke-width="1.5" d="M28.466 7.97L23.799 11.082M23.446 13.925L28.379 15.052M23.446 17.083L27.938 21.233" transform="translate(11.607 12.5)"/>
                    </g>
                </g>
            </g>
        </g>
    </g>
</svg>
