<svg xmlns="http://www.w3.org/2000/svg" width="50" height="50" viewBox="0 0 50 50">
    <g fill="none" fill-rule="evenodd">
        <g>
            <g>
                <g transform="translate(-390 -2849) translate(100 2656) translate(290 193)">
                    <circle cx="25" cy="25" r="25" fill="#D0021B"/>
                    <path fill="#FFF" d="M25.136 14.545c.72 0 1.398.387 1.77 1.01l9.434 15.822c.384.644.396 1.452.03 2.106-.366.656-1.055 1.062-1.8 1.062H15.703c-.744 0-1.433-.406-1.8-1.061-.365-.655-.354-1.462.03-2.107l9.435-15.821c.372-.624 1.05-1.01 1.77-1.01zm0 1.515c-.198 0-.384.106-.487.278l-9.434 15.821c-.106.177-.109.4-.008.58.1.18.29.292.495.292h18.869c.204 0 .394-.112.495-.292.1-.18.098-.403-.008-.58l-9.434-15.821c-.103-.172-.29-.278-.488-.278zm.021 12.906c.57 0 1.056.491 1.056 1.081 0 .577-.486 1.082-1.056 1.082-.61 0-1.07-.505-1.07-1.082 0-.59.46-1.081 1.07-1.081zm-.014-8.19c.542 0 1 .309 1 .856 0 1.672-.194 4.074-.194 5.746 0 .436-.472.618-.806.618-.444 0-.82-.182-.82-.618 0-1.672-.194-4.074-.194-5.746 0-.548.445-.857 1.014-.857z"/>
                </g>
            </g>
        </g>
    </g>
</svg>
