<svg xmlns="http://www.w3.org/2000/svg" width="50" height="50" viewBox="0 0 50 50">
    <g fill="none" fill-rule="evenodd">
        <g>
            <g>
                <g transform="translate(-480 -2849) translate(100 2656) translate(380 193)">
                    <circle cx="25" cy="25" r="25" fill="#F7CD3D"/>
                    <path fill="#434343" fill-rule="nonzero" stroke="#434343" stroke-width=".2" d="M34.644 27.927c.068.125.061.27.059.407-.027 1.325-.31 2.65-.883 3.852-.97 2.115-2.744 3.86-4.898 4.795-.295.133-.599.245-.903.354 0 1.37-.001 2.74 0 4.11.016.19-.053.39-.21.51-.21.173-.547.159-.74-.032-.123-.112-.182-.278-.175-.44.002-1.285 0-2.57.001-3.855-.647.121-1.307.17-1.964.194-.517-.02-1.035-.055-1.548-.127v4.012h0c.004.17-.076.34-.213.446-.158.125-.386.156-.571.075-.207-.086-.349-.302-.34-.524v-4.246c-1.316-.377-2.555-1.018-3.603-1.89-1.035-.85-1.886-1.915-2.482-3.107-.604-1.213-.975-2.55-1.004-3.905-.014-.302.27-.572.574-.555.282 0 .536.24.546.518.043.65.132 1.298.31 1.926.327 1.22.956 2.357 1.787 3.313 1.318 1.496 3.169 2.537 5.158 2.837.484.065.973.102 1.46.11.675-.034 1.355-.074 2.01-.244 1.04-.256 2.031-.703 2.906-1.311.989-.691 1.83-1.589 2.448-2.617.788-1.32 1.21-2.85 1.211-4.382.006-.266.233-.503.5-.526.228-.028.463.1.564.302zm-11.139.794c.075.163.104.345.201.498.12.235.33.414.568.512.295.112.635.011.858-.207.192-.18.31-.426.384-.679.08-.27.387-.438.652-.356.267.068.45.371.382.646-.164.65-.585 1.251-1.185 1.545-.466.237-1.027.262-1.512.068-.347-.152-.666-.386-.896-.694-.208-.287-.367-.613-.45-.96-.062-.277.123-.575.392-.64.23-.065.496.05.606.267zm4.2-21.135c.173.034.335.139.416.301.131.239.06.566-.157.727-.152.121-.361.141-.542.083-2.124-.53-4.423-.299-6.401.651-.598.302-1.191.625-1.715 1.049-2.425 1.802-3.943 4.781-4.031 7.83-.005.393-.021.787.016 1.179l.091.813c.586.224 1.193.4 1.816.476.413.043.827.083 1.242.096.733-.04 1.474-.087 2.184-.296 1.45-.398 2.792-1.197 3.84-2.292.92-.96 1.622-2.142 2.009-3.426.048-.18.179-.339.355-.4.174-.07.36-.01.536.016.205.029.376.186.443.382.287.71.676 1.373 1.144 1.974.324.442.715.829 1.118 1.196 1.242 1.09 2.802 1.821 4.436 2.014.15-1.599-.081-3.229-.652-4.725-.843-2.206-2.458-4.105-4.508-5.233-.272-.131-.394-.499-.251-.77.129-.28.5-.402.766-.249 2.466 1.347 4.372 3.696 5.24 6.4.51 1.548.68 3.21.511 4.833-.011.131-.08.25-.078.382 0 .234-.163.45-.38.522-.114.041-.236.026-.354.02 0 .191-.001.382.002.574.254.076.505.16.733.3.244.086.404.3.607.452.243.19.432.44.576.713.134.191.18.425.276.634.3.916.152 1.97-.386 2.765-.176.245-.55.297-.784.107-.236-.17-.294-.53-.132-.774.31-.477.412-1.093.257-1.644-.092-.278-.197-.56-.384-.786-.228-.224-.477-.428-.765-.567v3.528c.003.147-.048.295-.146.404-.167.19-.462.243-.681.12-.186-.098-.306-.307-.298-.52V20.99h0c-1.338-.28-2.616-.854-3.719-1.672-1.14-.845-2.095-1.946-2.767-3.207-.583 1.356-1.474 2.571-2.585 3.526-1.096.942-2.402 1.63-3.791 1.993-.688.193-1.4.252-2.11.294-.286.033-.574-.002-.86-.018-.517-.042-1.037-.081-1.542-.209-.001 1.685.003 3.37-.002 5.054.006.29-.239.556-.524.568-.235.021-.47-.128-.558-.35-.03-.065-.04-.134-.042-.203v-.209h0v-3.24c-.607.229-1.1.766-1.251 1.411-.19.667.03 1.412.488 1.915.179.177.221.475.092.694-.162.313-.624.385-.87.134-.33-.336-.571-.754-.74-1.195-.267-.805-.213-1.72.17-2.477.183-.375.443-.71.753-.985.168-.108.306-.26.488-.345.273-.144.558-.301.871-.314v-.792c-.233-.1-.507-.148-.673-.358-.12-.12-.192-.282-.209-.453-.092-.63-.162-1.265-.155-1.902.01-.179.011-.357.01-.536.105-2.576 1.096-5.11 2.779-7.04 1.46-1.702 3.44-2.934 5.597-3.477 1.693-.43 3.487-.43 5.181-.01zm-5.693 17.657c.271.136.458.423.483.724 0 .19-.04.395-.174.538-.129.15-.309.259-.505.29-.33.06-.688-.108-.848-.405-.236-.396-.04-.984.395-1.142.056-.023.113-.043.172-.057.159-.03.325.002.477.052zm6.722.14c.146.141.241.336.27.537.027.399-.26.826-.674.87-.284.07-.568-.075-.774-.262-.096-.098-.13-.236-.16-.365-.05-.252.005-.543.2-.722.107-.107.235-.199.386-.23.258-.08.548.003.752.171z"/>
                </g>
            </g>
        </g>
    </g>
</svg>
