<svg xmlns="http://www.w3.org/2000/svg" width="50" height="50" viewBox="0 0 50 50">
    <g fill="none" fill-rule="evenodd">
        <g>
            <g>
                <g transform="translate(-300 -2849) translate(100 2656) translate(200 193)">
                    <circle cx="25" cy="25" r="25" fill="#F7CD3D"/>
                    <g>
                        <g>
                            <path fill="#424245" d="M3.406.076C1.64.076.21 1.507.21 3.273v3.196c0 .352.286.639.639.639.353 0 .639-.287.639-.64V3.274c0-1.06.859-1.918 1.918-1.918h3.196c.353 0 .639-.286.639-.64 0-.353-.286-.639-.64-.639H3.407zM.21 23.727v3.196c0 1.765 1.43 3.196 3.196 3.196h3.196c.353 0 .639-.286.639-.64 0-.352-.286-.638-.64-.638H3.407c-1.06 0-1.918-.859-1.918-1.918v-3.196c0-.353-.286-.64-.639-.64-.353 0-.64.287-.64.64zM23.86.076c-.353 0-.639.286-.639.64 0 .353.286.639.64.639h3.195c1.06 0 1.918.859 1.918 1.918v3.196c0 .352.286.639.64.639.352 0 .638-.287.638-.64V3.274c0-1.766-1.43-3.197-3.196-3.197H23.86zM28.974 23.727c0-.353.286-.64.64-.64.352 0 .638.287.638.64v3.196c0 1.765-1.43 3.196-3.196 3.196H23.86c-.353 0-.639-.286-.639-.64 0-.352.286-.638.64-.638h3.195c1.06 0 1.918-.859 1.918-1.918v-3.196zM12.179 16.068c.608 0 1.102-.493 1.102-1.102 0-.609-.494-1.102-1.102-1.102-.609 0-1.102.493-1.102 1.102 0 .609.493 1.102 1.102 1.102" transform="translate(10 10) translate(.689 .197)"/>
                            <path d="M17.17 14.966c0 .569.462 1.03 1.031 1.03.57 0 1.03-.461 1.03-1.03 0-.57-.46-1.03-1.03-1.03-.569 0-1.03.46-1.03 1.03zM11.077 14.966c0 .609.493 1.102 1.102 1.102.609 0 1.102-.493 1.102-1.102 0-.609-.493-1.102-1.102-1.102-.609 0-1.102.493-1.102 1.102zM18.388 18.343c-.913 0-1.653-.362-1.653.55 0 .913 1.25 1.653 1.653 1.653.402 0 1.652-.74 1.652-1.653 0-.509-.23-.621-.592-.621-.287 0-.657.07-1.06.07z" transform="translate(10 10) translate(.689 .197)"/>
                            <path fill="#424245" d="M18.201 15.996c.57 0 1.03-.461 1.03-1.03 0-.57-.46-1.03-1.03-1.03-.57 0-1.03.46-1.03 1.03 0 .569.46 1.03 1.03 1.03M18.388 20.546c.402 0 1.652-.74 1.652-1.653 0-.912-.74-.55-1.652-.55-.913 0-1.653-.362-1.653.55 0 .913 1.25 1.653 1.653 1.653" transform="translate(10 10) translate(.689 .197)"/>
                            <path d="M16.735 18.893c0 .913 1.25 1.653 1.653 1.653.402 0 1.652-.74 1.652-1.653 0-.509-.23-.621-.592-.621-.287 0-.657.07-1.06.07-.404 0-.774-.07-1.061-.07-.362 0-.592.112-.592.621zM9.259 6.712c-1.052.18-1.482 1.441-1.534 3.774l-.003.218c-.003.326.259.592.584.594h.012c.328-.003.594-.269.597-.598l.004-.202c.02-.835.093-1.49.215-1.956.121-.465.252-.643.326-.655.056-.01.21.106.443.505.24.411.485 1.02.728 1.822.018.057.038.126.061.208.091.316.418.501.736.417.314-.082.502-.404.419-.719l-.003-.011-.08-.273c-.628-2.069-1.322-3.144-2.275-3.144-.075 0-.152.007-.23.02z" transform="translate(10 10) translate(.689 .197)"/>
                            <path d="M9.259 6.712c-1.052.18-1.482 1.441-1.534 3.774l-.003.218c-.003.326.259.592.584.594h.012c.328-.003.594-.269.597-.598l.004-.202c.02-.835.093-1.49.215-1.956.121-.465.252-.643.326-.655.056-.01.21.106.443.505.24.411.485 1.02.728 1.822.018.057.038.126.061.208.091.316.418.501.736.417.314-.082.502-.404.419-.719l-.003-.011-.08-.273c-.628-2.069-1.322-3.144-2.275-3.144-.075 0-.152.007-.23.02z" transform="translate(10 10) translate(.689 .197)"/>
                            <path fill="#424245" d="M8.915 10.7l.004-.202c.02-.835.093-1.49.215-1.956.121-.465.252-.643.326-.655.056-.01.21.106.443.505.24.411.485 1.02.728 1.822.018.057.038.126.061.207.091.317.418.502.736.419.314-.084.502-.406.419-.72l-.003-.011-.08-.273c-.678-2.232-1.432-3.307-2.505-3.124-1.052.18-1.482 1.44-1.534 3.774l-.003.218c-.003.326.259.592.584.594h.012c.328-.003.594-.27.597-.598M19.754 10.32c.215-.318.384-.549.506-.692.555-.652 1.048-.96 1.265-.87.053.023.091.142.045.477-.043.315-.162.711-.358 1.177-.062.148-.163.361-.303.639-.129.257-.048.57.19.731.203.139.48.086.62-.117l.03-.051c.162-.324.281-.575.356-.753.703-1.67.708-2.906-.132-3.258-.67-.28-1.598.258-2.481 1.333-.137.166-.32.421-.548.764-.16.24-.105.562.125.735.212.159.512.117.67-.095.006-.006.01-.012.015-.02" transform="translate(10 10) translate(.689 .197)"/>
                            <path d="M19.492 8.936c-.137.166-.32.421-.548.764-.16.24-.105.562.126.735.21.159.51.117.67-.095l.014-.019c.215-.319.384-.55.506-.693.555-.651 1.048-.96 1.265-.87.053.023.091.142.045.477-.043.315-.162.711-.358 1.177-.062.148-.163.361-.303.64-.129.256-.048.568.19.73.203.139.48.086.62-.117l.03-.051c.162-.324.281-.575.356-.753.703-1.67.708-2.906-.132-3.258-.118-.05-.245-.074-.378-.074-.618 0-1.376.522-2.103 1.407z" transform="translate(10 10) translate(.689 .197)"/>
                            <path d="M19.492 8.936c-.137.166-.32.421-.548.764-.16.24-.105.562.126.735.21.159.51.117.67-.095l.014-.019c.215-.319.384-.55.506-.693.555-.651 1.048-.96 1.265-.87.053.023.091.142.045.477-.043.315-.162.711-.358 1.177-.062.148-.163.361-.303.64-.129.256-.048.568.19.73.203.139.48.086.62-.117l.03-.051c.162-.324.281-.575.356-.753.703-1.67.708-2.906-.132-3.258-.118-.05-.245-.074-.378-.074-.618 0-1.376.522-2.103 1.407z" transform="translate(10 10) translate(.689 .197)"/>
                            <path fill="#424245" d="M21.662 16.956c.341-1.987.907-4.426-.697-5.905-1.934-1.783-5.988-2.152-8.366-1.122-.632.274-.086 1.2.542.927 1.735-.751 5.726-.489 7.263 1.146 1.096 1.165.372 3.661.149 5.098-.049.318.08.537.375.661 1.703.718 1.82 3.729.202 4.621-.665.367-1.704-.074-1.872-.525-.15-.403 0-1.125 0-1.563 0-.3-.203-.461-.43-.502-.163-.571-1.107-.548-1.044.102.053.554.153 1.193.068 1.746-.09.59-.338.63-.928.812-1.853.574-3.524-.12-4.512-1.777-.353-.594-1.282-.054-.927.542 1.229 2.063 3.401 2.98 5.724 2.27.44-.133 1.024-.338 1.37-.702.768.89 2.324 1.129 3.268.437 2.083-1.527 1.948-4.958-.185-6.266M8.73 12.6c.096-.676-.938-.968-1.035-.286-.591 4.169-1.283 6.35.369 10.35.26.63 1.3.354 1.035-.286-1.579-3.823-.934-5.792-.368-9.778" transform="translate(10 10) translate(.689 .197)"/>
                        </g>
                    </g>
                </g>
            </g>
        </g>
    </g>
</svg>
