<?xml version="1.0" encoding="UTF-8"?>
<svg width="40px" height="27px" viewBox="0 0 40 27" version="1.1" xmlns="http://www.w3.org/2000/svg" xmlns:xlink="http://www.w3.org/1999/xlink">
    <!-- Generator: sketchtool 48.1 (47250) - http://www.bohemiancoding.com/sketch -->
    <title>093200D6-863F-4F9B-8DF3-5683D11850F9</title>
    <desc>Created with sketchtool.</desc>
    <defs></defs>
    <g id="flags" stroke="none" stroke-width="1" fill="none" fill-rule="evenodd" transform="translate(-52.000000, -443.000000)">
        <g id="australia" transform="translate(52.000000, 443.000000)" fill-rule="nonzero">
            <path d="M39.2336842,26.1773879 L0.68834308,26.1773879 C0.308226121,26.1773879 0,25.8691618 0,25.4890448 L0,0.709863548 C0,0.329746589 0.308226121,0.0215204678 0.68834308,0.0215204678 L39.2337622,0.0215204678 C39.6138791,0.0215204678 39.9221053,0.329746589 39.9221053,0.709863548 L39.9221053,25.4890448 C39.9220273,25.8692398 39.6138012,26.1773879 39.2336842,26.1773879 Z" id="Shape" fill="#41479B"></path>
            <path d="M19.2726706,0.0215984405 L18.077037,0.0215984405 L11.7012086,4.19890838 L11.7012086,0.0215984405 L8.25964912,0.0215984405 L8.25964912,4.19890838 L1.88382066,0.0215984405 L0.68834308,0.0215984405 C0.308226121,0.0215984405 0,0.329746589 0,0.709863548 L0,1.25582846 L5.47017544,4.83968811 L0,4.83968811 L0,8.28124756 L5.47017544,8.28124756 L0,11.8651852 L0,12.4111501 C0,12.7912671 0.308226121,13.0994932 0.68834308,13.0994932 L1.88397661,13.0994932 L8.25980507,8.92218324 L8.25980507,13.0994932 L11.7013645,13.0994932 L11.7013645,8.92218324 L18.077115,13.0994932 L19.2727485,13.0994932 C19.6528655,13.0994932 19.9610916,12.7912671 19.9610916,12.4111501 L19.9610916,11.8651852 L14.4909162,8.28132554 L19.9610136,8.28132554 L19.9610136,4.83976608 L14.4908382,4.83976608 L19.9610136,1.25590643 L19.9610136,0.70994152 C19.9610136,0.329746589 19.6527875,0.0215984405 19.2726706,0.0215984405 Z" id="Shape" fill="#F5F5F5"></path>
            <g id="Group" fill="#FF4B55">
                <polygon id="Shape" points="19.9610136 5.52810916 11.0129435 5.52810916 11.0129435 0.0215984405 8.94807018 0.0215984405 8.94807018 5.52810916 0 5.52810916 0 7.59298246 8.94807018 7.59298246 8.94807018 13.0994932 11.0129435 13.0994932 11.0129435 7.59298246 19.9610136 7.59298246"></polygon>
                <path d="M7.57138402,4.83976608 L0.328031189,0.137933723 C0.135282651,0.259883041 0,0.464873294 0,0.709863548 L0,0.745575049 L6.3071345,4.83976608 L7.57138402,4.83976608 Z" id="Shape"></path>
                <path d="M12.9655361,4.83976608 L19.8562963,0.366783626 C19.7365302,0.164132554 19.5252242,0.0215984405 19.2726706,0.0215984405 L19.1238207,0.0215984405 L11.7012865,4.83976608 L12.9655361,4.83976608 Z" id="Shape"></path>
                <path d="M6.97653021,8.28132554 L0.0989473684,12.745731 C0.21754386,12.9532943 0.432124756,13.0994932 0.68834308,13.0994932 L0.818167641,13.0994932 L8.2408577,8.28132554 L6.97653021,8.28132554 Z" id="Shape"></path>
                <path d="M19.9500975,12.4651852 L13.5044055,8.28132554 L12.2401559,8.28132554 L19.5597661,13.0325926 C19.7790253,12.9308382 19.9294347,12.7175828 19.9500975,12.4651852 Z" id="Shape"></path>
            </g>
            <g id="Group" transform="translate(6.861598, 4.600390)" fill="#F5F5F5">
                <path d="M3.32717349,12.2519298 L3.84670565,13.9670955 L5.51165692,13.3039376 C5.6537232,13.2473294 5.782846,13.4093567 5.69614035,13.5352047 L4.67906433,15.0107602 L6.23555556,15.8989474 C6.36834308,15.9747368 6.32226121,16.1766862 6.16974659,16.1873684 L4.38191033,16.3122027 L4.6580117,18.082963 C4.68155945,18.2340741 4.49489279,18.3239766 4.39150097,18.211306 L3.17918129,16.891384 L1.9668616,18.211306 C1.86346979,18.3238986 1.67680312,18.2339961 1.70035088,18.082963 L1.97645224,16.3122027 L0.188615984,16.1873684 C0.0361013645,16.1766862 -0.00998050682,15.9747368 0.122807018,15.8989474 L1.67929825,15.0107602 L0.662222222,13.5352047 C0.575516569,13.4093567 0.704639376,13.2473294 0.846705653,13.3039376 L2.51165692,13.9670955 L3.03118908,12.2519298 C3.0757115,12.105575 3.28288499,12.105575 3.32717349,12.2519298 Z" id="Shape"></path>
                <path d="M23.8034308,0.056920078 L24.057232,0.894736842 L24.8704873,0.570838207 C24.9398051,0.543235867 25.002963,0.622300195 24.9605458,0.683820663 L24.4637817,1.40467836 L25.2240936,1.83859649 C25.2889669,1.87555556 25.2664327,1.97426901 25.1918908,1.9794152 L24.3185965,2.04038986 L24.4534113,2.90534113 C24.4649513,2.97918129 24.3737232,3.02307992 24.3231969,2.96803119 L23.7309942,2.32327485 L23.1387914,2.96803119 C23.0882651,3.02300195 22.997115,2.97910331 23.008577,2.90534113 L23.1433918,2.04038986 L22.2700975,1.9794152 C22.1955556,1.97426901 22.1730214,1.87555556 22.2378947,1.83859649 L22.9982066,1.40467836 L22.5014425,0.683820663 C22.4590253,0.622300195 22.5221832,0.543235867 22.591501,0.570838207 L23.4047563,0.894736842 L23.6585575,0.056920078 C23.6805458,-0.0145808967 23.7818324,-0.0145808967 23.8034308,0.056920078 Z" id="Shape"></path>
                <path d="M18.1444055,6.48779727 L18.3982066,7.32561404 L19.211462,7.0017154 C19.2807797,6.97411306 19.3439376,7.05317739 19.3015205,7.11469786 L18.8047563,7.83555556 L19.5650682,8.26947368 C19.6299415,8.30643275 19.6074074,8.4051462 19.5328655,8.4102924 L18.6595712,8.47126706 L18.794386,9.33621832 C18.8059259,9.41005848 18.7146979,9.45395712 18.6641715,9.39890838 L18.0719688,8.75415205 L17.4797661,9.39890838 C17.4292398,9.45387914 17.3380897,9.40998051 17.3495517,9.33621832 L17.4843665,8.47126706 L16.6110721,8.4102924 C16.5365302,8.4051462 16.5139961,8.30643275 16.5788694,8.26947368 L17.3391813,7.83555556 L16.8424172,7.11469786 C16.8,7.05317739 16.8631579,6.97411306 16.9324756,7.0017154 L17.745731,7.32561404 L17.9995322,6.48779727 C18.0215205,6.4162963 18.122729,6.4162963 18.1444055,6.48779727 Z" id="Shape"></path>
                <path d="M29.1573489,3.73450292 L29.4111501,4.57231969 L30.2244055,4.24842105 C30.2937232,4.22081871 30.3568811,4.29988304 30.3144639,4.36140351 L29.8176998,5.08226121 L30.5780117,5.51617934 C30.642885,5.5531384 30.6203509,5.65185185 30.545809,5.65699805 L29.6725146,5.71797271 L29.8073294,6.58292398 C29.8188694,6.65676413 29.7276413,6.70066277 29.677193,6.64561404 L29.0849903,6.0008577 L28.4927875,6.64561404 C28.4422612,6.7005848 28.3511111,6.65668616 28.3625731,6.58292398 L28.4973879,5.71797271 L27.6240936,5.65699805 C27.5495517,5.65185185 27.5270175,5.5531384 27.5918908,5.51617934 L28.3522027,5.08226121 L27.8554386,4.36140351 C27.8130214,4.29988304 27.8761793,4.22081871 27.9454971,4.24842105 L28.7587524,4.57231969 L29.0125536,3.73450292 C29.0344639,3.66300195 29.1356725,3.66300195 29.1573489,3.73450292 Z" id="Shape"></path>
                <path d="M23.8034308,14.7475244 L24.057232,15.5853411 L24.8704873,15.2613645 C24.9398051,15.2337622 25.002963,15.3128265 24.9605458,15.374347 L24.4637817,16.0952047 L25.2240936,16.5291228 C25.2889669,16.5660819 25.2664327,16.6647953 25.1918908,16.6699415 L24.3185965,16.7309162 L24.4534113,17.5958674 C24.4649513,17.6697076 24.3737232,17.7136062 24.3231969,17.6585575 L23.7309942,17.0138012 L23.1387914,17.6585575 C23.0882651,17.7135283 22.997115,17.6696296 23.008577,17.5958674 L23.1433918,16.7309162 L22.2700975,16.6699415 C22.1955556,16.6647953 22.1730214,16.5660819 22.2378947,16.5291228 L22.9982066,16.0952047 L22.5014425,15.374347 C22.4590253,15.3128265 22.5221832,15.2337622 22.591501,15.2613645 L23.4047563,15.5853411 L23.6585575,14.7475244 C23.6805458,14.6760234 23.7818324,14.6760234 23.8034308,14.7475244 Z" id="Shape"></path>
                <path d="M25.7669396,7.99329435 L25.5631969,8.6042885 L24.9192203,8.60927875 C24.8358674,8.60998051 24.8012476,8.71633528 24.8683821,8.76584795 L25.3864327,9.14846004 L25.1921248,9.76249513 C25.1670175,9.84202729 25.2575439,9.90775828 25.3253021,9.85925926 L25.8492788,9.48475634 L26.3732554,9.85925926 C26.4410916,9.90775828 26.53154,9.84194932 26.5064327,9.76249513 L26.3121248,9.14846004 L26.8301754,8.76584795 C26.8973099,8.71625731 26.8626901,8.60998051 26.7793372,8.60927875 L26.1353606,8.6042885 L25.9316179,7.99329435 C25.9051852,7.91415205 25.7932943,7.91415205 25.7669396,7.99329435 Z" id="Shape"></path>
            </g>
        </g>
    </g>
</svg>