<svg xmlns="http://www.w3.org/2000/svg" width="40" height="26" viewBox="0 0 40 26">
    <g fill="none" fill-rule="nonzero">
        <g fill="#F5F5F5">
            <path d="M39.234 25.978H.688A.686.686 0 0 1 0 25.295V.705C0 .326.308.02.688.02h38.546c.38 0 .688.306.688.683v24.591a.686.686 0 0 1-.688.683z"/>
            <path d="M8.948.022h22.026v25.957H8.948z"/>
        </g>
        <g fill="#FF4B55">
            <path d="M.688.021A.686.686 0 0 0 0 .704v24.591c0 .378.308.683.688.683h8.26V.021H.688zM39.234.021h-8.26v25.957h8.26c.38 0 .688-.305.688-.683V.705a.686.686 0 0 0-.688-.684zM24.138 16l4.084-2.317-.937-.465a.682.682 0 0 1-.374-.701l.305-2.27-1.73.5a.689.689 0 0 1-.864-.508l-.165-.743-1.624 1.886c-.225.26-.654.061-.595-.278l.693-4-1.061.287a.69.69 0 0 1-.79-.337l-1.117-2.08v-.003.002l-.002-.002v.004l-1.118 2.079a.69.69 0 0 1-.789.337l-1.061-.288.693 4.001c.059.34-.37.539-.595.278l-1.624-1.886-.165.743a.689.689 0 0 1-.865.508l-1.729-.5.305 2.27a.682.682 0 0 1-.374.7l-.938.466 4.085 2.316c.423.24.608.749.438 1.202l-.35.927 3.5-.297a.324.324 0 0 1 .353.331l-.11 3.718h.688l-.11-3.718a.324.324 0 0 1 .353-.331l3.501.297-.349-.927a.983.983 0 0 1 .438-1.202z"/>
        </g>
    </g>
</svg>
