<svg xmlns="http://www.w3.org/2000/svg" width="40" height="26" viewBox="0 0 40 26">
    <g fill="none" fill-rule="nonzero">
        <path fill="#C8414B" d="M.688 25.979h38.546c.38 0 .688-.306.688-.683V.704a.686.686 0 0 0-.688-.683H.688A.686.686 0 0 0 0 .704v24.592c0 .377.308.683.688.683z"/>
        <path fill="#FFD250" d="M0 5.486h39.922v15.028H0z"/>
        <path fill="#C8414B" d="M16.864 13l.583-2.606a.385.385 0 0 0-.378-.468h-.41a.385.385 0 0 0-.379.468L16.864 13z"/>
        <path fill="#F5F5F5" d="M16.175 11.634h1.377v5.806h-1.377z"/>
        <path fill="#FAB446" d="M15.831 10.951h2.065v1h-2.065z"/>
        <g fill="#C8414B">
            <path d="M14.455 13h3.442v1h-3.442zM17.896 15.732l-2.065-.683v-.683l2.065.683zM6.539 13l.584-2.606a.385.385 0 0 0-.379-.468h-.41a.385.385 0 0 0-.379.468L6.54 13z"/>
        </g>
        <path fill="#F5F5F5" d="M8.948 10.95a.686.686 0 0 0-.688.684v4.44c0 .83.78 2.39 3.441 2.39 2.661 0 3.442-1.56 3.442-2.39v-4.44a.686.686 0 0 0-.688-.683H8.948z"/>
        <g fill="#C8414B">
            <path d="M11.701 14.366H8.26v-2.732c0-.377.308-.683.688-.683h2.753v3.415zM11.701 14.366h3.442v1.708c0 .943-.77 1.708-1.72 1.708-.951 0-1.722-.765-1.722-1.708v-1.708z"/>
        </g>
        <path fill="#FAB446" d="M8.26 14.366H11.7v1.708c0 .943-.77 1.708-1.72 1.708s-1.721-.765-1.721-1.708v-1.708z"/>
        <g fill="#C8414B">
            <path d="M11.013 17.432v-3.066h-.688v3.381c.256-.051.487-.164.688-.315zM9.636 17.747v-3.38h-.688v3.065c.201.151.432.264.688.315z"/>
        </g>
        <path fill="#FFB441" d="M8.948 13h2.065v1H8.948z"/>
        <g fill="#FAB446">
            <path d="M8.948 11.633h2.065v1H8.948z"/>
            <path d="M9.292 12.04h1.377v1.237H9.292z"/>
        </g>
        <path fill="#F5F5F5" d="M5.85 11.634h1.377v5.806H5.85z"/>
        <g fill="#FAB446">
            <path d="M5.506 17.099h2.065v1H5.506zM5.506 10.95h2.065v1H5.506z"/>
        </g>
        <path fill="#5064AA" d="M5.163 17.781h2.753v1H5.163z"/>
        <path fill="#FAB446" d="M16.175 17.099h2.065v1h-2.065z"/>
        <path fill="#5064AA" d="M15.487 17.781h2.753v1h-2.753z"/>
        <path fill="#FAB446" d="M9.637 10.268h4.13v1h-4.13z"/>
        <path fill="#FFB441" d="M11.358 8.219h1v2.049h-1z"/>
        <g fill="#F5F5F5">
            <path d="M11.013 9.243A1.03 1.03 0 0 1 9.98 8.218a1.03 1.03 0 0 1 1.032-1.024c.57 0 1.032.46 1.032 1.024a1.03 1.03 0 0 1-1.032 1.025zm0-1.366a.343.343 0 0 0-.344.341c0 .189.154.342.344.342.19 0 .344-.153.344-.342a.343.343 0 0 0-.344-.341z"/>
            <path d="M12.39 9.243a1.03 1.03 0 0 1-1.033-1.025 1.03 1.03 0 0 1 1.033-1.024c.569 0 1.032.46 1.032 1.024a1.03 1.03 0 0 1-1.032 1.025zm0-1.366a.343.343 0 0 0-.345.341c0 .189.155.342.345.342.19 0 .344-.153.344-.342a.343.343 0 0 0-.344-.341z"/>
            <path d="M13.766 9.926a1.03 1.03 0 0 1-1.032-1.024 1.03 1.03 0 0 1 1.032-1.025c.57 0 1.033.46 1.033 1.025a1.03 1.03 0 0 1-1.033 1.024zm0-1.366a.343.343 0 0 0-.344.342c0 .188.154.341.344.341.19 0 .344-.153.344-.341a.343.343 0 0 0-.344-.342zM9.636 9.926a1.03 1.03 0 0 1-1.032-1.024 1.03 1.03 0 0 1 1.032-1.025c.57 0 1.033.46 1.033 1.025a1.03 1.03 0 0 1-1.033 1.024zm0-1.366a.343.343 0 0 0-.344.342c0 .188.154.341.344.341.19 0 .345-.153.345-.341a.343.343 0 0 0-.345-.342z"/>
        </g>
        <path fill="#FAB446" d="M13.766 15.732v.342a.343.343 0 0 1-.344.342.343.343 0 0 1-.344-.342v-.342h.688zm.689-.683H12.39v1.025a1.03 1.03 0 0 0 1.032 1.025c.57 0 1.032-.46 1.032-1.025v-1.025z"/>
        <path fill="#FFA0D2" d="M13.422 13.683a.686.686 0 0 1-.688-.683v-.683c0-.377.308-.683.688-.683.38 0 .688.306.688.683V13a.686.686 0 0 1-.688.683z"/>
        <ellipse cx="11.701" cy="14.366" fill="#5064AA" rx="1.032" ry="1.025"/>
        <path fill="#FAB446" d="M11.358 6.852h1v2.049h-1z"/>
        <path fill="#C8414B" d="M9.636 10.268l-.688-.683.403-.4a3.337 3.337 0 0 1 2.35-.967c.882 0 1.727.348 2.35.966l.404.4-.689.684h-4.13z"/>
        <g fill="#FFD250" transform="translate(9.903 9.208)">
            <ellipse cx="1.799" cy=".376" rx="1" ry="1"/>
            <ellipse cx=".422" cy=".376" rx="1" ry="1"/>
            <ellipse cx="3.175" cy=".376" rx="1" ry="1"/>
        </g>
        <g fill="#C8414B">
            <path d="M5.506 13h3.442v1H5.506zM5.507 15.732l2.064-.683v-.683l-2.064.683z"/>
        </g>
    </g>
</svg>
