<?xml version="1.0" encoding="UTF-8"?>
<svg width="40px" height="27px" viewBox="0 0 40 27" version="1.1" xmlns="http://www.w3.org/2000/svg" xmlns:xlink="http://www.w3.org/1999/xlink">
    <!-- Generator: sketchtool 48.1 (47250) - http://www.bohemiancoding.com/sketch -->
    <title>02A4C037-5567-44F4-ACF6-7674D2F3AD54</title>
    <desc>Created with sketchtool.</desc>
    <defs></defs>
    <g id="flags" stroke="none" stroke-width="1" fill="none" fill-rule="evenodd" transform="translate(-52.000000, -401.000000)">
        <g id="hong-kong" transform="translate(52.000000, 401.000000)" fill-rule="nonzero">
            <path d="M39.2336842,26.1773879 L0.68834308,26.1773879 C0.308226121,26.1773879 0,25.8691618 0,25.4890448 L0,0.709863548 C0,0.329746589 0.308226121,0.0215204678 0.68834308,0.0215204678 L39.2337622,0.0215204678 C39.6138791,0.0215204678 39.9221053,0.329746589 39.9221053,0.709863548 L39.9221053,25.4890448 C39.9220273,25.8692398 39.6138012,26.1773879 39.2336842,26.1773879 Z" id="Shape" fill="#FF4B55"></path>
            <g id="Group" transform="translate(11.695906, 4.834308)" fill="#F5F5F5">
                <path d="M5.80717349,9.27274854 C4.93949318,9.2817154 3.9651462,9.00382066 3.111423,8.06276803 C3.05255361,7.99789474 3.06081871,7.89567251 3.1277193,7.83898635 L3.12795322,7.83875244 C3.19282651,7.78378168 3.28873294,7.7922807 3.34604288,7.85520468 C4.64740741,9.28421053 6.26035088,9.0339961 7.22401559,8.68873294 C6.8679922,8.7045614 6.42066277,8.67781676 6.13294347,8.48873294 C4.93099415,7.69863548 5.47539961,6.85808967 4.67711501,5.84202729 C3.88389864,4.83243665 3.17013645,4.857154 2.04623782,5.02752437 C0.933567251,5.19610136 0.579103314,4.37996101 0.46877193,3.92701754 C0.449044834,3.84584795 0.33582846,3.84077973 0.306822612,3.91898635 C-1.08,7.66588694 3.08998051,12.3021442 7.37122807,8.968577 C6.94877193,9.12413255 6.40467836,9.26666667 5.80717349,9.27274854 Z M2.68304094,8.00124756 C2.65871345,8.06814815 2.56319688,8.06549708 2.54253411,7.99734893 L2.382846,7.47111111 L1.83321637,7.45185185 C1.76202729,7.44935673 1.73504873,7.35773879 1.79345029,7.31703704 L2.24460039,7.0025731 L2.09309942,6.47384016 C2.07345029,6.40545809 2.1522807,6.351423 2.20904483,6.39430799 L2.64756335,6.72615984 L3.10354776,6.41863548 C3.1625731,6.37879142 3.23836257,6.43703704 3.21497076,6.50432749 L3.0348538,7.02393762 L3.46822612,7.3625731 C3.5242885,7.40647173 3.49231969,7.49645224 3.4211306,7.49504873 L2.87126706,7.4842885 L2.68304094,8.00124756 Z" id="Shape"></path>
                <path d="M8.87867446,6.78331384 C9.56764133,6.25582846 10.5139181,5.89387914 11.7614815,6.13481481 C11.8474854,6.151423 11.9022222,6.23812865 11.882729,6.32358674 L11.8826511,6.32389864 C11.8637037,6.4068616 11.7818324,6.45754386 11.6982456,6.44148148 C9.79992203,6.07836257 8.65918129,7.24592593 8.09520468,8.10011696 C8.37060429,7.87391813 8.74463938,7.62705653 9.08826511,7.60592593 C10.5238986,7.51727096 10.5922807,8.51649123 11.8405458,8.85076023 C13.0807018,9.182846 13.637037,8.73512671 14.434386,7.92475634 C15.2236257,7.12249513 15.9968031,7.56304094 16.3566472,7.85933723 C16.4210526,7.91243665 16.5146979,7.84865497 16.4909942,7.76865497 C15.3536842,3.93863548 9.23625731,2.72951267 7.80959064,7.96460039 C8.05419103,7.58697856 8.40421053,7.14658869 8.87867446,6.78331384 Z M12.1412086,5.92725146 C12.1205458,5.85910331 12.1985965,5.80389864 12.2559844,5.8460039 L12.6993372,6.17130604 L13.1507212,5.85707602 C13.2091228,5.81637427 13.285692,5.87352827 13.2634698,5.9411306 L13.0910721,6.46339181 L13.5293567,6.79555556 C13.5861209,6.83859649 13.5553996,6.92912281 13.4842885,6.92873294 L12.934347,6.92615984 L12.7539181,7.44569201 C12.7305263,7.51298246 12.6350097,7.51173489 12.6133333,7.44397661 L12.445848,6.92015595 L11.8959844,6.90908382 C11.8247953,6.90760234 11.7964133,6.81645224 11.854269,6.77489279 L12.3007407,6.4537232 L12.1412086,5.92725146 Z" id="Shape"></path>
                <path d="M6.58081871,7.14440546 C6.24241715,6.34534113 6.128577,5.33863548 6.6739961,4.19103314 C6.71157895,4.11189084 6.80927875,4.08062378 6.88709552,4.12093567 L6.88740741,4.12109162 C6.96296296,4.16015595 6.99150097,4.25216374 6.95524366,4.32904483 C6.12881092,6.07625731 6.97403509,7.47274854 7.65996101,8.23243665 C7.50978558,7.90916179 7.36444444,7.48538012 7.42978558,7.14729045 C7.70307992,5.73512671 8.68756335,5.91875244 9.3234308,4.79376218 C9.95524366,3.67602339 9.66081871,3.0254191 9.07563353,2.05083821 C8.4962963,1.0860039 9.11625731,0.447641326 9.49317739,0.173333333 C9.56062378,0.124210526 9.52233918,0.0176218324 9.43898635,0.0205847953 C5.44623782,0.163820663 2.7454191,5.78432749 7.45723197,8.47500975 C7.15274854,8.14362573 6.81387914,7.69465887 6.58081871,7.14440546 Z M6.56795322,3.77146199 C6.49676413,3.77442495 6.46292398,3.68506823 6.51805068,3.64007797 L6.94393762,3.29216374 L6.75259259,2.77653021 C6.72779727,2.70978558 6.80233918,2.64990253 6.86214425,2.68842105 L7.32467836,2.98596491 L7.75586745,2.64467836 C7.81169591,2.60046784 7.89161793,2.65278752 7.87345029,2.7217154 L7.73341131,3.25348928 L8.19118908,3.55812865 C8.25044834,3.59758285 8.2254191,3.68974659 8.15438596,3.69380117 L7.60530214,3.72491228 L7.45707602,4.25450292 C7.43789474,4.32304094 7.34245614,4.3277193 7.31664717,4.26136452 L7.11734893,3.7488499 L6.56795322,3.77146199 Z" id="Shape"></path>
                <path d="M9.69177388,8.95750487 C10.4089669,9.44592593 11.0499025,10.2306433 11.2128655,11.4907602 C11.2241715,11.5776998 11.1589084,11.6568421 11.0716569,11.6651852 L11.0711891,11.6651852 C10.9865107,11.6732943 10.9126706,11.611384 10.9015984,11.5270955 C10.6501365,9.61076023 9.18331384,8.89450292 8.19516569,8.62729045 C8.49637427,8.81769981 8.84818713,9.09528265 8.9762963,9.41489279 C9.51134503,10.7500195 8.58424951,11.1288889 8.6588694,12.4189474 C8.73302144,13.7006628 9.33302144,14.0881871 10.3527485,14.5906433 C11.3622612,15.0880312 11.1869006,15.9603119 11.0184795,16.3951657 C10.9883821,16.4730604 11.0782846,16.5418324 11.1467446,16.494191 C14.425653,14.211462 13.6523197,8.02393762 8.23407407,8.31368421 C8.67001949,8.42729045 9.19797271,8.62120858 9.69177388,8.95750487 Z M11.5293567,11.7860429 C11.5876023,11.7450292 11.6644055,11.8017934 11.6424951,11.8694737 L11.4729045,12.3925926 L11.9129825,12.7224951 C11.9699025,12.7651462 11.9398051,12.8558285 11.868616,12.8559064 L11.3186745,12.8562183 L11.1409747,13.3766862 C11.1179727,13.4440546 11.0223782,13.4433528 11.0003899,13.3756725 L10.8300975,12.8527096 L10.2802339,12.8445224 C10.2089669,12.8435088 10.1801949,12.7523587 10.2377388,12.7104873 L10.6824951,12.3869006 L10.5203119,11.8613645 C10.4993372,11.7932943 10.5769981,11.7376998 10.6346199,11.7795712 L11.0797661,12.1025341 L11.5293567,11.7860429 Z" id="Shape"></path>
                <path d="M7.8980117,10.5125146 C7.65099415,11.3443275 7.09847953,12.1936062 5.94768031,12.7323197 C5.86830409,12.7695127 5.77309942,12.731462 5.73863548,12.6509162 L5.73847953,12.6506043 C5.70502924,12.5723977 5.74152047,12.4832749 5.81840156,12.4470175 C7.56732943,11.6243275 7.80335283,10.0092008 7.75719298,8.98658869 C7.66744639,9.33153996 7.51009747,9.75103314 7.24467836,9.97037037 C6.13567251,10.8863158 5.49263158,10.1184405 4.28647173,10.5821442 C3.08803119,11.042807 2.9014425,11.7322417 2.73309942,12.8565302 C2.56654971,13.9695127 1.68210526,14.0678363 1.21676413,14.0398441 C1.13348928,14.0348538 1.09520468,14.1414425 1.16140351,14.1922027 C4.33364522,16.6210526 9.99243665,14.0016374 8.06775828,8.92849903 C8.09224172,9.37777778 8.06814815,9.93964912 7.8980117,10.5125146 Z M5.76265107,13.1235088 C5.8194152,13.1665497 5.78877193,13.2569201 5.71758285,13.2566862 L5.1677193,13.254269 L4.98744639,13.7738791 C4.96413255,13.8411696 4.86853801,13.839922 4.8468616,13.7721637 L4.6791423,13.2483431 L4.12927875,13.2374269 C4.05808967,13.2360234 4.02962963,13.1447953 4.08748538,13.1032359 L4.53380117,12.7819103 L4.37426901,12.2555945 C4.35360624,12.1874464 4.43157895,12.1322417 4.48896686,12.174347 L4.93247563,12.4994932 L5.38378168,12.1851072 C5.44218324,12.1444055 5.51875244,12.2015595 5.49653021,12.2691618 L5.32436647,12.791423 L5.76265107,13.1235088 Z" id="Shape"></path>
            </g>
        </g>
    </g>
</svg>