<svg xmlns="http://www.w3.org/2000/svg" width="40" height="26" viewBox="0 0 40 26">
    <g fill="none" fill-rule="nonzero">
        <path fill="#73AF00" d="M13.333 25.978H.69a.686.686 0 0 1-.69-.683V.705C0 .326.309.02.69.02h12.643v25.957z"/>
        <path fill="#F5F5F5" d="M13.334.021h13.334v25.957H13.334z"/>
        <path fill="#FF4B55" d="M39.31 25.978H26.667V.021H39.31c.381 0 .69.306.69.683v24.591a.686.686 0 0 1-.69.683z"/>
        <path fill="#FFD250" d="M21.19 13.61L20 14.2v.589h.595z"/>
        <g fill="#00C3A0">
            <path d="M20 16.262a.296.296 0 0 1-.297-.295V14.79c0-.163.133-.295.297-.295.164 0 .297.132.297.295v1.178a.296.296 0 0 1-.297.295z"/>
            <path d="M20 15.084a4.685 4.685 0 0 1-3.176-1.257.293.293 0 0 1-.016-.417.3.3 0 0 1 .42-.015 4.09 4.09 0 0 0 2.772 1.1 4.09 4.09 0 0 0 2.771-1.1.3.3 0 0 1 .42.015.292.292 0 0 1-.015.417A4.684 4.684 0 0 1 20 15.084z"/>
        </g>
        <path fill="#00AADC" d="M20 16.262c-.762 0-1.5-.22-2.136-.639l.33-.49a3.344 3.344 0 0 0 3.612 0l.33.49a3.874 3.874 0 0 1-2.136.639z"/>
        <path fill="#732D37" d="M19.53 12.285l-.658 1.007-.111.331 1.71-.393z"/>
        <path fill="#AAD264" d="M18.18 13.947c-.786 0-1.73-.655-1.98-2.115l.587-.099c.208 1.214.962 1.626 1.414 1.624.14-.003.284-.05.296-.148.013-.116.016-.144-.295-.248-.169-.057-.36-.12-.495-.273-.544-.615.192-1.266.546-1.58.063-.055.089-.102.082-.12-.02-.05-.136-.126-.268-.126-.378 0-.664-.211-.748-.551a.784.784 0 0 1 .389-.883l.273.524c-.073.037-.102.144-.084.22.008.03.025.101.17.101.364 0 .711.213.824.506.048.125.12.449-.241.77-.391.345-.625.605-.495.751.03.033.155.075.238.103.268.09.766.257.695.874-.045.388-.395.657-.87.67h-.038z"/>
        <path fill="#874150" d="M20.595 10.665S21.19 9.487 20 8.898c0 0 4.163-.589 3.568 4.713-.39-.31-.97-.875-1.177-1.326l-1.796-1.03v-.59z"/>
        <path fill="#732D37" d="M20 11.844l2.974 1.767-1.19.589L20 12.433v-.59z"/>
        <path fill="#783C46" d="M18.81 10.076c.329 0 .595.264.595.59a1.146 1.146 0 0 0-.219 1.333l.135.266c.056.111.13.212.218.3l1.65 1.635v-.814a6.482 6.482 0 0 0-.696-2.922 1.786 1.786 0 0 0-1.596-.977h-.086v.59z"/>
        <path fill="#FFD250" d="M18.81 9.487l-.594.59v.588s.707-.355.946-.468c.166-.08.136-.266.04-.356-.074-.07-.391-.354-.391-.354z"/>
        <path fill="#AAD264" d="M20 17.44c-2.788 0-5.055-2.246-5.055-5.007h.594c0 2.436 2.001 4.418 4.461 4.418 2.46 0 4.46-1.982 4.46-4.418h.595c0 2.76-2.267 5.007-5.055 5.007z"/>
        <g fill="#FFE15A" transform="translate(15.156 13.774)">
            <ellipse cx=".416" cy=".407" rx="1" ry="1"/>
            <ellipse cx="1.308" cy="1.818" rx="1" ry="1"/>
            <ellipse cx="2.757" cy="2.885" rx="1" ry="1"/>
            <ellipse cx="9.315" cy=".407" rx="1" ry="1"/>
            <ellipse cx="8.422" cy="1.818" rx="1" ry="1"/>
            <ellipse cx="6.973" cy="2.885" rx="1" ry="1"/>
        </g>
        <path fill="#FFB478" d="M20.297 16.556h-.594a.592.592 0 0 1-.595-.589c0-.325.266-.589.595-.589h.594c.329 0 .595.264.595.59 0 .324-.266.588-.595.588z"/>
        <path fill="#9B4B5A" d="M22.391 12.285c.199.577.62 1.105 1.177 1.326C24.163 8.309 20 8.898 20 8.898c2.974 0 2.391 3.387 2.391 3.387z"/>
    </g>
</svg>
