<?xml version="1.0" encoding="UTF-8"?>
<svg xmlns="http://www.w3.org/2000/svg" xmlns:xlink="http://www.w3.org/1999/xlink" width="40pt" height="26pt" viewBox="0 0 40 26" version="1.1">
<g id="surface1">
<path style=" stroke:none;fill-rule:nonzero;fill:rgb(92.941176%,16.078431%,22.352941%);fill-opacity:1;" d="M 0 0 L 40 0 L 40 13 L 0 13 Z M 0 0 "/>
<path style=" stroke:none;fill-rule:nonzero;fill:rgb(100%,100%,100%);fill-opacity:1;" d="M 0 13 L 40 13 L 40 26 L 0 26 Z M 0 13 "/>
<path style=" stroke:none;fill-rule:nonzero;fill:rgb(100%,100%,100%);fill-opacity:1;" d="M 13.71875 6.5 C 13.71875 9.199219 11.472656 11.386719 8.707031 11.386719 C 5.9375 11.386719 3.691406 9.199219 3.691406 6.5 C 3.691406 3.800781 5.9375 1.613281 8.707031 1.613281 C 11.472656 1.613281 13.71875 3.800781 13.71875 6.5 Z M 13.71875 6.5 "/>
<path style=" stroke:none;fill-rule:nonzero;fill:rgb(92.941176%,16.078431%,22.352941%);fill-opacity:1;" d="M 15.292969 6.5 C 15.292969 9.050781 13.171875 11.121094 10.554688 11.121094 C 7.941406 11.121094 5.816406 9.050781 5.816406 6.5 C 5.816406 3.949219 7.941406 1.878906 10.554688 1.878906 C 13.171875 1.878906 15.292969 3.949219 15.292969 6.5 Z M 15.292969 6.5 "/>
<path style=" stroke:none;fill-rule:nonzero;fill:rgb(100%,100%,100%);fill-opacity:1;" d="M 9.324219 6.617188 L 8.644531 6.109375 L 7.964844 6.617188 L 8.226562 5.796875 L 7.542969 5.289062 L 8.386719 5.292969 L 8.644531 4.46875 L 8.902344 5.292969 L 9.746094 5.289062 L 9.0625 5.796875 Z M 9.324219 6.617188 "/>
<path style=" stroke:none;fill-rule:nonzero;fill:rgb(100%,100%,100%);fill-opacity:1;" d="M 14.671875 6.617188 L 13.988281 6.109375 L 13.308594 6.617188 L 13.570312 5.796875 L 12.886719 5.289062 L 13.730469 5.292969 L 13.988281 4.46875 L 14.246094 5.292969 L 15.089844 5.289062 L 14.40625 5.796875 Z M 14.671875 6.617188 "/>
<path style=" stroke:none;fill-rule:nonzero;fill:rgb(100%,100%,100%);fill-opacity:1;" d="M 12 4.683594 L 11.320312 4.175781 L 10.640625 4.683594 L 10.902344 3.863281 L 10.21875 3.355469 L 11.0625 3.359375 L 11.320312 2.535156 L 11.578125 3.359375 L 12.421875 3.355469 L 11.738281 3.863281 Z M 12 4.683594 "/>
<path style=" stroke:none;fill-rule:nonzero;fill:rgb(100%,100%,100%);fill-opacity:1;" d="M 10.324219 9.710938 L 9.644531 9.203125 L 8.964844 9.710938 L 9.226562 8.890625 L 8.542969 8.382812 L 9.386719 8.386719 L 9.644531 7.5625 L 9.902344 8.386719 L 10.746094 8.382812 L 10.0625 8.890625 Z M 10.324219 9.710938 "/>
<path style=" stroke:none;fill-rule:nonzero;fill:rgb(100%,100%,100%);fill-opacity:1;" d="M 13.671875 9.710938 L 12.988281 9.203125 L 12.308594 9.710938 L 12.570312 8.890625 L 11.886719 8.382812 L 12.730469 8.386719 L 12.988281 7.5625 L 13.246094 8.386719 L 14.089844 8.382812 L 13.40625 8.890625 Z M 13.671875 9.710938 "/>
</g>
</svg>
