<svg xmlns="http://www.w3.org/2000/svg" width="40" height="26" viewBox="0 0 40 26">
    <g fill="none" fill-rule="nonzero">
        <path fill="#FF4B55" d="M39.234 25.979H.688A.686.686 0 0 1 0 25.296V.704C0 .327.308.021.688.021h38.546c.38 0 .688.306.688.683v24.592a.686.686 0 0 1-.688.683z"/>
        <path fill="#41479B" d="M.688.021h18.585c.38 0 .688.306.688.684v11.612a.686.686 0 0 1-.688.683H.688A.686.686 0 0 1 0 12.317V.704C0 .327.308.021.688.021z"/>
        <g fill="#F5F5F5" transform="translate(5.38 1.935)">
            <path d="M2.137 4.576c0-.675.275-1.286.72-1.728L.795 2.262c-.12-.034-.206.114-.117.2l1.545 1.482-2.084.517c-.121.03-.121.2 0 .23l2.084.518L.677 6.69c-.09.086-.003.234.117.2l2.064-.586a2.428 2.428 0 0 1-.721-1.729zM2.859 2.847A2.465 2.465 0 0 1 4.6 2.13c.68 0 1.296.274 1.742.716l.59-2.049c.035-.119-.114-.204-.2-.115L5.237 2.216 4.716.147c-.03-.12-.202-.12-.232 0l-.521 2.069L2.469.683c-.086-.089-.235-.004-.2.115l.59 2.049zM6.342 6.306A2.465 2.465 0 0 1 4.6 7.02c-.68 0-1.295-.273-1.741-.715l-.59 2.048c-.035.12.114.204.2.116l1.494-1.533.521 2.068c.03.12.202.12.233 0l.52-2.068 1.494 1.532c.087.09.236.004.201-.115l-.59-2.048zM9.063 4.46L6.98 3.945 8.523 2.46c.09-.085.004-.233-.116-.2l-2.064.587a2.428 2.428 0 0 1 0 3.456l2.064.586c.12.034.206-.113.116-.2L6.98 5.21l2.084-.518c.121-.03.121-.2 0-.23z"/>
            <ellipse cx="4.6" cy="4.576" rx="1.962" ry="1.947"/>
        </g>
    </g>
</svg>
