<svg xmlns="http://www.w3.org/2000/svg" width="40" height="26" viewBox="0 0 40 26">
    <g fill="none" fill-rule="nonzero">
        <path fill="#41479B" d="M39.234 25.979H.688A.686.686 0 0 1 0 25.296V.704C0 .327.308.021.688.021h38.546c.38 0 .688.306.688.683v24.592a.686.686 0 0 1-.688.683z"/>
        <path fill="#F5F5F5" d="M39.922.704a.686.686 0 0 0-.688-.683h-3.08L23.402 8.312V.022H16.52v8.29L3.768.022H.688A.686.686 0 0 0 0 .703v1.767l10.94 7.114H0v6.83h10.94L0 23.53v1.767c0 .377.308.683.688.683h3.08l12.752-8.291v8.29h6.883v-8.29l12.751 8.29h3.08c.38 0 .688-.305.688-.682v-1.767l-10.94-7.113h10.94V9.585h-10.94l10.94-7.114V.704z"/>
        <g fill="#FF4B55">
            <path d="M39.922 10.95H22.026V.022h-4.13v10.93H0v4.098h17.896v10.93h4.13v-10.93h17.896z"/>
            <path d="M13.953 16.415L.02 25.391c.05.33.323.588.67.588h.947l14.846-9.563h-2.529zM27.009 16.415H24.48l14.824 9.55a.678.678 0 0 0 .618-.67v-.561L27.01 16.415zM0 1.459l12.614 8.126h2.529L.4.088A.68.68 0 0 0 0 .704v.755zM25.931 9.585L39.898.587a.677.677 0 0 0-.664-.566h-.986L23.403 9.585h2.528z"/>
        </g>
    </g>
</svg>
