<svg xmlns="http://www.w3.org/2000/svg" width="40" height="26" viewBox="0 0 40 26">
    <g fill="none" fill-rule="nonzero">
        <path fill="#F5F5F5" d="M39.234 25.979H.688A.686.686 0 0 1 0 25.296V.704C0 .327.308.021.688.021h38.546c.38 0 .688.306.688.683v24.592a.686.686 0 0 1-.688.683z"/>
        <g fill="#FF4B55">
            <path d="M39.922 2.018H0V.704C0 .327.308.021.688.021h38.546c.38 0 .688.306.688.683v1.314zM0 8.008h39.922v1.997H0zM0 4.015h39.922v1.997H0zM39.922 13.998H.688A.686.686 0 0 1 0 13.315v-1.313h39.922v1.996zM0 19.989h39.922v1.997H0zM39.234 25.979H.688A.686.686 0 0 1 0 25.296v-1.314h39.922v1.314a.686.686 0 0 1-.688.683zM0 15.995h39.922v1.997H0z"/>
        </g>
        <path fill="#41479B" d="M17.896.021H.688A.686.686 0 0 0 0 .704v12.611c0 .377.308.683.688.683h17.208c.38 0 .688-.306.688-.683V.705a.686.686 0 0 0-.688-.684z"/>
        <g fill="#F5F5F5">
            <path d="M1.933 1.59l.152.453.482.003c.062 0 .088.08.038.117l-.388.284.146.455c.019.06-.05.108-.1.072l-.392-.278-.391.278c-.051.036-.119-.013-.1-.072l.145-.455-.387-.284a.064.064 0 0 1 .038-.117l.481-.003.153-.454c.02-.058.103-.058.123 0zM1.933 3.961l.152.454.482.003c.062 0 .088.08.038.117l-.388.284.146.455c.019.06-.05.108-.1.072l-.392-.278-.391.278c-.051.036-.119-.013-.1-.072l.145-.455-.387-.284a.064.064 0 0 1 .038-.117l.481-.003.153-.454c.02-.058.103-.058.123 0zM1.933 6.333l.152.454.482.003c.062.001.088.08.038.117l-.388.284.146.455c.019.06-.05.108-.1.072l-.392-.278-.391.278c-.051.036-.119-.013-.1-.072l.145-.455-.387-.284a.064.064 0 0 1 .038-.117l.481-.003.153-.454c.02-.058.103-.058.123 0zM1.933 8.705l.152.454.482.004c.062 0 .088.079.038.116l-.388.284.146.455c.019.06-.05.108-.1.072l-.392-.278-.391.278c-.051.036-.119-.013-.1-.071l.145-.456-.387-.284a.064.064 0 0 1 .038-.116l.481-.004.153-.453c.02-.06.103-.06.123 0zM1.933 11.077l.152.454.482.004c.062 0 .088.079.038.116l-.388.284.146.455c.019.06-.05.108-.1.072l-.392-.278-.391.278c-.051.036-.119-.012-.1-.071l.145-.456-.387-.284a.064.064 0 0 1 .038-.116l.481-.004.153-.453a.065.065 0 0 1 .123 0zM3.788 2.752l.152.454.482.003c.062 0 .088.08.038.117l-.387.284.145.455c.019.06-.049.108-.1.072l-.391-.278-.392.278c-.051.036-.119-.013-.1-.072l.145-.455-.387-.284a.064.064 0 0 1 .038-.117l.482-.003.152-.454c.02-.058.103-.058.123 0zM3.788 5.124l.152.454.482.003c.062.001.088.08.038.117l-.387.284.145.455c.019.06-.049.108-.1.072l-.391-.278-.392.278c-.051.036-.119-.013-.1-.072l.145-.455-.387-.284a.064.064 0 0 1 .038-.117l.482-.003.152-.454c.02-.058.103-.058.123 0zM3.788 7.496l.152.454.482.003c.062.001.088.08.038.117l-.387.284.145.455c.019.06-.049.108-.1.072l-.391-.278-.392.278c-.051.036-.119-.013-.1-.072l.145-.455-.387-.284a.064.064 0 0 1 .038-.117l.482-.003.152-.454c.02-.058.103-.058.123 0zM3.788 9.868l.152.454.482.003c.062.001.088.08.038.117l-.387.284.145.455c.019.06-.049.108-.1.072l-.391-.278-.392.278c-.051.036-.119-.013-.1-.072l.145-.455-.387-.284a.064.064 0 0 1 .038-.117l.482-.003.152-.454c.02-.058.103-.058.123 0zM5.643 1.59l.153.453.481.003c.063 0 .088.08.038.117l-.387.284.145.455c.02.06-.049.108-.1.072l-.391-.278-.392.278c-.05.036-.118-.013-.1-.072l.146-.455-.388-.284a.064.064 0 0 1 .038-.117l.482-.003.152-.454c.02-.058.104-.058.123 0zM5.643 3.961l.153.454.481.003c.063 0 .088.08.038.117l-.387.284.145.455c.02.06-.049.108-.1.072l-.391-.278-.392.278c-.05.036-.118-.013-.1-.072l.146-.455-.388-.284a.064.064 0 0 1 .038-.117l.482-.003.152-.454c.02-.058.104-.058.123 0zM5.643 6.333l.153.454.481.003c.063.001.088.08.038.117l-.387.284.145.455c.02.06-.049.108-.1.072l-.391-.278-.392.278c-.05.036-.118-.013-.1-.072l.146-.455-.388-.284a.064.064 0 0 1 .038-.117l.482-.003.152-.454c.02-.058.104-.058.123 0zM5.643 8.705l.153.454.481.004c.063 0 .088.079.038.116l-.387.284.145.455c.02.06-.049.108-.1.072l-.391-.278-.392.278c-.05.036-.118-.013-.1-.072l.146-.455-.388-.284a.064.064 0 0 1 .038-.116l.482-.004.152-.454c.02-.058.104-.058.123 0zM5.643 11.077l.153.454.481.004c.063 0 .088.079.038.116l-.387.284.145.455c.02.06-.049.108-.1.072l-.391-.278-.392.278c-.05.036-.118-.013-.1-.072l.146-.455-.388-.284a.064.064 0 0 1 .038-.116l.482-.004.152-.454a.065.065 0 0 1 .123 0zM7.499 2.752l.152.454.482.003c.062 0 .088.08.038.117l-.388.284.145.455c.02.06-.048.108-.1.072l-.391-.278-.392.278c-.05.036-.118-.013-.1-.072l.146-.455-.388-.284a.064.064 0 0 1 .039-.117l.481-.003.153-.454c.02-.058.103-.058.123 0zM7.499 5.124l.152.454.482.003c.062.001.088.08.038.117l-.388.284.145.455c.02.06-.048.108-.1.072l-.391-.278-.392.278c-.05.036-.118-.013-.1-.072l.146-.455-.388-.284a.064.064 0 0 1 .039-.117l.481-.003.153-.454c.02-.058.103-.058.123 0zM7.499 7.496l.152.454.482.003c.062.001.088.08.038.117l-.388.284.145.455c.02.06-.048.108-.1.072l-.391-.278-.392.278c-.05.036-.118-.013-.1-.072l.146-.455-.388-.284a.064.064 0 0 1 .039-.117l.481-.003.153-.454c.02-.058.103-.058.123 0zM7.499 9.868l.152.454.482.003c.062.001.088.08.038.117l-.388.284.145.455c.02.06-.048.108-.1.072l-.391-.278-.392.278c-.05.036-.118-.013-.1-.072l.146-.455-.388-.284a.064.064 0 0 1 .039-.117l.481-.003.153-.454c.02-.058.103-.058.123 0zM9.354 1.59l.152.453.482.003c.062 0 .088.08.038.117l-.388.284.146.455c.019.06-.05.108-.1.072l-.392-.278-.392.278c-.05.036-.118-.013-.1-.072l.146-.455-.387-.284a.064.064 0 0 1 .038-.117l.481-.003.153-.454a.065.065 0 0 1 .123 0zM9.354 3.961l.152.454.482.003c.062 0 .088.08.038.117l-.388.284.146.455c.019.06-.05.108-.1.072l-.392-.278-.392.278c-.05.036-.118-.013-.1-.072l.146-.455-.387-.284a.064.064 0 0 1 .038-.117l.481-.003.153-.454a.065.065 0 0 1 .123 0zM9.354 6.333l.152.454.482.003c.062.001.088.08.038.117l-.388.284.146.455c.019.06-.05.108-.1.072l-.392-.278-.392.278c-.05.036-.118-.013-.1-.072l.146-.455-.387-.284a.064.064 0 0 1 .038-.117l.481-.003.153-.454a.065.065 0 0 1 .123 0zM9.354 8.705l.152.454.482.004c.062 0 .088.079.038.116l-.388.284.146.455c.019.06-.05.108-.1.072l-.392-.278-.392.278c-.05.036-.118-.013-.1-.072l.146-.455-.387-.284a.064.064 0 0 1 .038-.116l.481-.004.153-.454a.065.065 0 0 1 .123 0zM9.354 11.077l.152.454.482.004c.062 0 .088.079.038.116l-.388.284.146.455c.019.06-.05.108-.1.072l-.392-.278-.392.278c-.05.036-.118-.013-.1-.072l.146-.455-.387-.284a.064.064 0 0 1 .038-.116l.481-.004.153-.454a.065.065 0 0 1 .123 0zM11.209 2.752l.152.454.482.003c.062 0 .088.08.038.117l-.387.284.145.455c.019.06-.049.108-.1.072l-.392-.278-.391.278c-.051.036-.119-.013-.1-.072l.145-.455-.387-.284a.064.064 0 0 1 .038-.117l.482-.003.152-.454a.065.065 0 0 1 .123 0zM11.209 5.124l.152.454.482.003c.062.001.088.08.038.117l-.387.284.145.455c.019.06-.049.108-.1.072l-.392-.278-.391.278c-.051.036-.119-.013-.1-.072l.145-.455-.387-.284a.064.064 0 0 1 .038-.117l.482-.003.152-.454a.065.065 0 0 1 .123 0zM11.209 7.496l.152.454.482.003c.062.001.088.08.038.117l-.387.284.145.455c.019.06-.049.108-.1.072l-.392-.278-.391.278c-.051.036-.119-.013-.1-.072l.145-.455-.387-.284a.064.064 0 0 1 .038-.117l.482-.003.152-.454a.065.065 0 0 1 .123 0zM11.209 9.868l.152.454.482.003c.062.001.088.08.038.117l-.387.284.145.455c.019.06-.049.108-.1.072l-.392-.278-.391.278c-.051.036-.119-.013-.1-.072l.145-.455-.387-.284a.064.064 0 0 1 .038-.117l.482-.003.152-.454a.065.065 0 0 1 .123 0zM13.064 1.59l.153.453.481.003c.063 0 .088.08.038.117l-.387.284.145.455c.02.06-.049.108-.1.072l-.391-.278-.392.278c-.05.036-.118-.013-.1-.072l.146-.455-.388-.284a.064.064 0 0 1 .038-.117l.482-.003.152-.454c.02-.058.104-.058.123 0zM13.064 3.961l.153.454.481.003c.063 0 .088.08.038.117l-.387.284.145.455c.02.06-.049.108-.1.072l-.391-.278-.392.278c-.05.036-.118-.013-.1-.072l.146-.455-.388-.284a.064.064 0 0 1 .038-.117l.482-.003.152-.454c.02-.058.104-.058.123 0zM13.064 6.333l.153.454.481.003c.063.001.088.08.038.117l-.387.284.145.455c.02.06-.049.108-.1.072l-.391-.278-.392.278c-.05.036-.118-.013-.1-.072l.146-.455-.388-.284a.064.064 0 0 1 .038-.117l.482-.003.152-.454c.02-.058.104-.058.123 0zM13.064 8.705l.153.454.481.004c.063 0 .088.079.038.116l-.387.284.145.455c.02.06-.049.108-.1.072l-.391-.278-.392.278c-.05.036-.118-.013-.1-.072l.146-.455-.388-.284a.064.064 0 0 1 .038-.116l.482-.004.152-.454c.02-.058.104-.058.123 0zM13.064 11.077l.153.454.481.004c.063 0 .088.079.038.116l-.387.284.145.455c.02.06-.049.108-.1.072l-.391-.278-.392.278c-.05.036-.118-.013-.1-.072l.146-.455-.388-.284a.064.064 0 0 1 .038-.116l.482-.004.152-.454c.02-.058.104-.058.123 0zM14.92 2.752l.152.454.481.003c.063 0 .089.08.039.117l-.388.284.145.455c.02.06-.048.108-.1.072l-.391-.278-.392.278c-.05.036-.118-.013-.1-.072l.146-.455-.388-.284a.064.064 0 0 1 .038-.117l.482-.003.152-.454c.02-.058.104-.058.123 0zM14.92 5.124l.152.454.481.003c.063.001.089.08.039.117l-.388.284.145.455c.02.06-.048.108-.1.072l-.391-.278-.392.278c-.05.036-.118-.013-.1-.072l.146-.455-.388-.284a.064.064 0 0 1 .038-.117l.482-.003.152-.454a.065.065 0 0 1 .123 0zM14.92 7.496l.152.454.481.003c.063.001.089.08.039.117l-.388.284.145.455c.02.06-.048.108-.1.072l-.391-.278-.392.278c-.05.036-.118-.013-.1-.072l.146-.455-.388-.284a.064.064 0 0 1 .038-.117l.482-.003.152-.454a.065.065 0 0 1 .123 0zM14.92 9.868l.152.454.481.003c.063.001.089.08.039.117l-.388.284.145.455c.02.06-.048.108-.1.072l-.391-.278-.392.278c-.05.036-.118-.013-.1-.072l.146-.455-.388-.284a.064.064 0 0 1 .038-.117l.482-.003.152-.454c.02-.058.104-.058.123 0zM16.775 1.59l.152.453.482.003c.062 0 .088.08.038.117l-.388.284.146.455c.019.06-.05.108-.1.072l-.392-.278-.392.278c-.05.036-.118-.013-.1-.072l.146-.455-.387-.284a.064.064 0 0 1 .038-.117l.481-.003.153-.454c.02-.058.103-.058.123 0zM16.775 3.961l.152.454.482.003c.062 0 .088.08.038.117l-.388.284.146.455c.019.06-.05.108-.1.072l-.392-.278-.392.278c-.05.036-.118-.013-.1-.072l.146-.455-.387-.284a.064.064 0 0 1 .038-.117l.481-.003.153-.454c.02-.058.103-.058.123 0zM16.775 6.333l.152.454.482.003c.062.001.088.08.038.117l-.388.284.146.455c.019.06-.05.108-.1.072l-.392-.278-.392.278c-.05.036-.118-.013-.1-.072l.146-.455-.387-.284a.064.064 0 0 1 .038-.117l.481-.003.153-.454c.02-.058.103-.058.123 0zM16.775 8.705l.152.454.482.004c.062 0 .088.079.038.116l-.388.284.146.455c.019.06-.05.108-.1.072l-.392-.278-.392.278c-.05.036-.118-.013-.1-.072l.146-.455-.387-.284a.064.064 0 0 1 .038-.116l.481-.004.153-.454c.02-.058.103-.058.123 0zM16.775 11.077l.152.454.482.004c.062 0 .088.079.038.116l-.388.284.146.455c.019.06-.05.108-.1.072l-.392-.278-.392.278c-.05.036-.118-.013-.1-.072l.146-.455-.387-.284a.064.064 0 0 1 .038-.116l.481-.004.153-.454c.02-.058.103-.058.123 0z"/>
        </g>
    </g>
</svg>
