<svg width="50" height="50" viewBox="0 0 50 50" fill="none" xmlns="http://www.w3.org/2000/svg">
<path opacity="0.5" d="M40 26.8387C40 34.2946 33.9558 40.3387 26.5 40.3387C19.0442 40.3387 13 34.2946 13 26.8387C13 19.3829 19.0442 13.3387 26.5 13.3387C33.9558 13.3387 40 19.3829 40 26.8387Z" fill="#F7CD3D"/>
<path fill-rule="evenodd" clip-rule="evenodd" d="M37.4699 28.8599C35.6331 35.7149 28.5869 39.783 21.7319 37.9462C14.8769 36.1094 10.8088 29.0633 12.6456 22.2082C13.6512 18.4554 16.2171 15.5381 19.4607 13.9668C19.7838 13.8103 19.9188 13.4215 19.7623 13.0984C19.6058 12.7754 19.217 12.6403 18.894 12.7968C15.3251 14.5257 12.4973 17.739 11.3899 21.8718C9.36726 29.4203 13.8469 37.1793 21.3954 39.2019C28.944 41.2245 36.703 36.7449 38.7256 29.1963C40.7482 21.6478 36.2686 13.8888 28.72 11.8662C28.3733 11.7733 28.0169 11.9791 27.9239 12.3258C27.831 12.6726 28.0368 13.029 28.3836 13.1219C35.2386 14.9587 39.3067 22.0048 37.4699 28.8599Z" fill="#434343"/>
<path fill-rule="evenodd" clip-rule="evenodd" d="M27.9268 11.8508C27.6159 12.0303 27.5094 12.4278 27.6889 12.7387L29.4389 15.7698C29.6184 16.0807 30.0159 16.1872 30.3268 16.0077C30.6377 15.8282 30.7442 15.4307 30.5647 15.1198L29.1397 12.6516L31.6079 11.2266C31.9188 11.0471 32.0253 10.6496 31.8458 10.3387C31.6663 10.0278 31.2688 9.92129 30.9579 10.1008L27.9268 11.8508Z" fill="#434343"/>
<path fill-rule="evenodd" clip-rule="evenodd" d="M17.35 21.7276C17.35 21.3686 17.641 21.0776 18 21.0776H31.7222C32.0812 21.0776 32.3722 21.3686 32.3722 21.7276V30.8387C32.3722 31.75 31.6335 32.4887 30.7222 32.4887H19C18.0887 32.4887 17.35 31.75 17.35 30.8387V21.7276ZM18.65 22.3776V30.8387C18.65 31.032 18.8067 31.1887 19 31.1887H30.7222C30.9155 31.1887 31.0722 31.032 31.0722 30.8387V22.3776H18.65Z" fill="#434343"/>
<path fill-rule="evenodd" clip-rule="evenodd" d="M20.1317 18.4027C20.255 18.2665 20.4301 18.1888 20.6137 18.1888H29.1085C29.2921 18.1888 29.4672 18.2665 29.5905 18.4027L32.2042 21.2915C32.3766 21.4821 32.4206 21.7564 32.3163 21.9913C32.2121 22.2262 31.9792 22.3776 31.7222 22.3776H18C17.743 22.3776 17.5101 22.2262 17.4059 21.9913C17.3016 21.7564 17.3456 21.4821 17.518 21.2915L20.1317 18.4027ZM20.9022 19.4888L19.4646 21.0776H30.2576L28.82 19.4888H20.9022Z" fill="#434343"/>
<path fill-rule="evenodd" clip-rule="evenodd" d="M24.1647 18.2224C24.5051 18.3364 24.6887 18.7047 24.5747 19.0451L23.7056 21.641V22.9578L23.731 22.9483C23.8776 22.8936 24.0391 22.8936 24.1857 22.9483L24.8611 23.2005L25.5366 22.9483C25.6832 22.8936 25.8446 22.8936 25.9912 22.9483L26.0167 22.9578V21.535C26.0167 21.1761 26.3077 20.885 26.6667 20.885C27.0257 20.885 27.3167 21.1761 27.3167 21.535V23.8943C27.3167 24.1073 27.2123 24.3068 27.0373 24.4283C26.8623 24.5497 26.6389 24.5778 26.4393 24.5032L25.7639 24.2511L25.0885 24.5032C24.9418 24.558 24.7804 24.558 24.6338 24.5032L23.9583 24.2511L23.2829 24.5032C23.0833 24.5778 22.8599 24.5497 22.6849 24.4283C22.5099 24.3068 22.4056 24.1073 22.4056 23.8943V21.535C22.4056 21.4649 22.4169 21.3952 22.4392 21.3287L23.342 18.6324C23.4559 18.292 23.8243 18.1084 24.1647 18.2224Z" fill="#434343"/>
<path fill-rule="evenodd" clip-rule="evenodd" d="M25.7868 18.2081C25.4385 18.2952 25.2268 18.6481 25.3138 18.9964L26.036 21.8853C26.1231 22.2335 26.476 22.4453 26.8243 22.3582C27.1725 22.2712 27.3843 21.9182 27.2972 21.57L26.575 18.6811C26.4879 18.3328 26.135 18.1211 25.7868 18.2081Z" fill="#434343"/>
<path fill-rule="evenodd" clip-rule="evenodd" d="M26.7388 27.5055C26.7388 27.1465 27.0299 26.8555 27.3888 26.8555H29.5555C29.9145 26.8555 30.2055 27.1465 30.2055 27.5055V29.6721C30.2055 30.0311 29.9145 30.3221 29.5555 30.3221H27.3888C27.0299 30.3221 26.7388 30.0311 26.7388 29.6721V27.5055ZM28.0388 28.1555V29.0221H28.9055V28.1555H28.0388Z" fill="#434343"/>
<path fill-rule="evenodd" clip-rule="evenodd" d="M19.8056 27.5776C19.8056 27.2186 20.0966 26.9276 20.4556 26.9276H21.3222C21.6812 26.9276 21.9722 27.2186 21.9722 27.5776C21.9722 27.9366 21.6812 28.2276 21.3222 28.2276H20.4556C20.0966 28.2276 19.8056 27.9366 19.8056 27.5776Z" fill="#434343"/>
<path fill-rule="evenodd" clip-rule="evenodd" d="M19.8056 29.3832C19.8056 29.0242 20.0966 28.7332 20.4556 28.7332H24.2111C24.5701 28.7332 24.8611 29.0242 24.8611 29.3832C24.8611 29.7422 24.5701 30.0332 24.2111 30.0332H20.4556C20.0966 30.0332 19.8056 29.7422 19.8056 29.3832Z" fill="#434343"/>
</svg>
