<svg xmlns="http://www.w3.org/2000/svg" viewBox="0 0 66 73"><path fill="#434343" fill-rule="nonzero" stroke="#434343" stroke-width=".3" d="M37.09 1.292a1 1 0 0 1 .096 1.296l-.096.111-5.011 5.039.119-.004a32.297 32.297 0 0 1 7.359.684 32.128 32.128 0 0 1 8.1 2.878 32.328 32.328 0 0 1 8.062 5.894 32.386 32.386 0 0 1 5.242 6.86 32.101 32.101 0 0 1 3.259 8.124 32.29 32.29 0 0 1 .944 8.922 32.12 32.12 0 0 1-1.017 7.006 31.7 31.7 0 0 1-8.3 14.472 31.987 31.987 0 0 1-4.675 3.866 31.649 31.649 0 0 1-7.575 3.767 32.163 32.163 0 0 1-14.378 1.446 32.149 32.149 0 0 1-18.755-9.208 32.238 32.238 0 0 1-7.122-10.74 32.253 32.253 0 0 1-2.316-13.358A31.944 31.944 0 0 1 4.23 25.603a31.795 31.795 0 0 1 6.105-8.542.993.993 0 0 1 1.404.004.993.993 0 0 1 .004 1.404 29.826 29.826 0 0 0-5.728 8.013 29.967 29.967 0 0 0-3.006 11.955 30.263 30.263 0 0 0 2.173 12.534 30.237 30.237 0 0 0 6.681 10.075 30.154 30.154 0 0 0 17.593 8.639c4.545.574 9.167.113 13.492-1.357a29.678 29.678 0 0 0 7.104-3.534 30.02 30.02 0 0 0 4.388-3.628 29.728 29.728 0 0 0 7.786-13.575 30.14 30.14 0 0 0 .954-6.573 30.302 30.302 0 0 0-.886-8.373 30.105 30.105 0 0 0-3.056-7.62 30.385 30.385 0 0 0-4.919-6.435 30.328 30.328 0 0 0-7.564-5.53 30.132 30.132 0 0 0-7.596-2.7 30.308 30.308 0 0 0-6.885-.642l4.816 4.845a1 1 0 0 1 .096 1.296l-.096.111a.986.986 0 0 1-1.289.097l-.11-.097-7.298-7.34 7.297-7.338a.986.986 0 0 1 1.4 0zM43.728 24c.222 0 .436.075.61.21l.098.09 4.356 4.466.007.007.006.006a.985.985 0 0 1 .285.64V53a.997.997 0 0 1-.877.993l-.116.007H18.086a.995.995 0 0 1-.986-.883L17.093 53V29.532a.977.977 0 0 1 .212-.67l.075-.085 4.398-4.48a.99.99 0 0 1 .575-.288l.13-.009h21.245zm-5.755 6.481l.001 4.599a.993.993 0 0 1-1.413.906l-.1-.055-.776-.482-.776.482a.986.986 0 0 1-.773.116l-.128-.043-.141-.073-.776-.482-.775.482a.986.986 0 0 1-.774.116l-.127-.043-.142-.073-.775-.482-.776.482a.991.991 0 0 1-1.483-.602l-.022-.114-.008-.135v-4.599h-9.13v21.52h28.025v-21.52h-9.13zm-4.222 18.295c.547 0 .99.445.99.995 0 .504-.373.92-.856.986l-.134.01H21.875a.993.993 0 0 1-.99-.996c0-.504.372-.92.855-.986l.135-.01H33.75zm10.8-6.11c.509 0 .928.387.985.884l.007.117V49a.997.997 0 0 1-.877.993l-.115.007h-5.293a.995.995 0 0 1-.986-.883L38.265 49v-5.333c0-.513.383-.936.877-.994l.116-.006h5.293zm-.993 2.002H40.25v3.333h3.308v-3.333zm-17.724.126c.546 0 .99.446.99.996 0 .504-.373.92-.856.986l-.134.009h-3.96a.993.993 0 0 1-.989-.995c0-.504.372-.92.855-.987l.135-.009h3.959zm10.154-14.313h-5.795v2.844l.074-.024a.986.986 0 0 1 .492.008l.118.04.142.074.776.482.775-.482a.986.986 0 0 1 .774-.117l.127.044.141.073.776.482.776-.482a.986.986 0 0 1 .624-.144l.128.022.073.024v-2.844zm-6.512-4.48h-6.58l-2.434 2.479h8.085l.93-2.479zm5.107 0h-2.984l-.93 2.479h4.842l-.928-2.479zm2.122 0l.93 2.479h8.094l-2.417-2.479h-6.607z"/></svg>