<svg width="50" height="50" viewBox="0 0 50 50" fill="none" xmlns="http://www.w3.org/2000/svg">
<path opacity="0.5" fill-rule="evenodd" clip-rule="evenodd" d="M20.1646 13.5C19.6124 13.5 19.1646 13.9477 19.1646 14.5V28.526H15.502C14.5704 28.526 14.1449 29.6877 14.8561 30.2894L26.0618 39.7692C26.4346 40.0846 26.9807 40.0846 27.3535 39.7692L38.5592 30.2894C39.2704 29.6877 38.8449 28.526 37.9133 28.526H34.2508V14.5C34.2508 13.9477 33.8031 13.5 33.2508 13.5H20.1646Z" fill="#F7CD3D"/>
<path fill-rule="evenodd" clip-rule="evenodd" d="M18.6646 12.65C18.4713 12.65 18.3146 12.8067 18.3146 13V27.026C18.3146 27.385 18.0236 27.676 17.6646 27.676H14.002C13.6759 27.676 13.527 28.0826 13.7759 28.2932L24.9816 37.773C25.112 37.8834 25.3032 37.8834 25.4337 37.773L36.6393 28.2932C36.8882 28.0826 36.7393 27.676 36.4133 27.676H32.7508C32.3918 27.676 32.1008 27.385 32.1008 27.026V13C32.1008 12.8067 31.9441 12.65 31.7508 12.65H18.6646ZM17.0146 13C17.0146 12.0887 17.7533 11.35 18.6646 11.35H31.7508C32.662 11.35 33.4008 12.0887 33.4008 13V26.376H36.4133C37.9504 26.376 38.6525 28.2929 37.4789 29.2857L26.2733 38.7655C25.6581 39.2859 24.7571 39.2859 24.1419 38.7655L12.9363 29.2857C11.7627 28.2929 12.4648 26.376 14.002 26.376H17.0146V13Z" fill="#434343"/>
<path d="M25.5006 19.3387C25.9773 19.3387 26.4409 19.421 26.8916 19.5857C27.3509 19.7417 27.7453 19.993 28.0746 20.3397L27.1386 21.2497C26.9393 20.9983 26.6966 20.8033 26.4106 20.6647C26.1333 20.5173 25.8299 20.4393 25.5006 20.4307V23.4987L25.4746 23.5117C25.8473 23.6157 26.2026 23.7327 26.5406 23.8627C26.8873 23.984 27.1906 24.1443 27.4506 24.3437C27.7106 24.5343 27.9186 24.777 28.0746 25.0717C28.2306 25.3663 28.3086 25.7347 28.3086 26.1767C28.3086 26.5753 28.2306 26.935 28.0746 27.2557C27.9273 27.5763 27.7236 27.8537 27.4636 28.0877C27.2123 28.313 26.9133 28.4907 26.5666 28.6207C26.2286 28.7507 25.8733 28.8287 25.5006 28.8547V29.7907H24.7986V28.8547C24.2266 28.8547 23.6936 28.7637 23.1996 28.5817C22.7143 28.391 22.2939 28.066 21.9386 27.6067L22.9396 26.7097C23.1389 27.039 23.4076 27.2947 23.7456 27.4767C24.0836 27.65 24.4346 27.7453 24.7986 27.7627V24.5647C24.4433 24.478 24.1053 24.3697 23.7846 24.2397C23.4726 24.101 23.1909 23.9277 22.9396 23.7197C22.6969 23.5117 22.5019 23.2603 22.3546 22.9657C22.2159 22.671 22.1466 22.3157 22.1466 21.8997C22.1466 21.527 22.2203 21.1933 22.3676 20.8987C22.5149 20.5953 22.7099 20.3353 22.9526 20.1187C23.1952 19.8933 23.4769 19.7157 23.7976 19.5857C24.1183 19.447 24.4519 19.3647 24.7986 19.3387V18.4027H25.5006V19.3387ZM24.7986 20.4307C24.3826 20.5 24.0446 20.6603 23.7846 20.9117C23.5246 21.1543 23.3946 21.4837 23.3946 21.8997C23.3946 22.1077 23.4336 22.2897 23.5116 22.4457C23.5896 22.593 23.6936 22.723 23.8236 22.8357C23.9536 22.9483 24.1009 23.0437 24.2656 23.1217C24.4389 23.1997 24.6166 23.2647 24.7986 23.3167V20.4307ZM25.5006 27.7627C25.7173 27.7367 25.9166 27.6847 26.0986 27.6067C26.2893 27.5287 26.4539 27.4247 26.5926 27.2947C26.7399 27.1647 26.8526 27.013 26.9306 26.8397C27.0173 26.6577 27.0606 26.454 27.0606 26.2287C27.0606 26.0033 27.0129 25.8127 26.9176 25.6567C26.8309 25.492 26.7139 25.3533 26.5666 25.2407C26.4279 25.128 26.2633 25.0327 26.0726 24.9547C25.8819 24.8767 25.6913 24.8073 25.5006 24.7467V27.7627Z" fill="#434343"/>
</svg>
