<svg xmlns="http://www.w3.org/2000/svg" viewBox="0 0 68 54"><g fill="#3A3A3A"><path d="M61.863 23.182c0-10.349-4.502-14.878-10.061-14.878H41.357c-.91 0-1.647.737-1.647 1.647v27.451H2.02a1.645 1.645 0 0 0-1.647 1.716v1.77a1.646 1.646 0 0 0 1.647 1.661h4.35a7.04 7.04 0 0 0-.988 3.555 7.096 7.096 0 1 0 14.193 0 7.036 7.036 0 0 0-.975-3.555h31.267a7.031 7.031 0 0 0-.989 3.555 7.096 7.096 0 0 0 14.193 0 7.025 7.025 0 0 0-.934-3.555h4.118c.91 0 1.647-.737 1.647-1.647V29.235a6.038 6.038 0 0 0-6.039-6.053zM12.45 48.904a2.827 2.827 0 1 1 .027 0h-.027zm43.496 0a2.828 2.828 0 1 1 .028 0h-.028zM42.345 25.996v-.274a.7.7 0 0 1 .7-.7h2.992a.696.696 0 0 1 .7.7v.274a.7.7 0 0 1-.7.7h-2.992a.7.7 0 0 1-.7-.7zm16.47-2.745H43.719c-.827 0-1.496-.67-1.496-1.496v-8.99c0-.827.67-1.496 1.496-1.496h7.11c2.745 0 6.862 1.55 7.548 5.737.367 2.047.524 4.125.467 6.204l-.027.041z"/><path d="M35.51 7.22H22.8c1.437-.237 2.827-.7 4.118-1.373A3.267 3.267 0 0 0 22.937.673a20.61 20.61 0 0 0-3.212 5.133 20.579 20.579 0 0 0-3.17-5.133 3.265 3.265 0 0 0-3.98 5.174c1.29.673 2.68 1.136 4.117 1.373H3.942a1.29 1.29 0 0 0-1.291 1.29v25.804a1.29 1.29 0 0 0 1.29 1.29H35.51a1.29 1.29 0 0 0 1.29-1.29V8.51a1.293 1.293 0 0 0-1.29-1.29zM23.637 1.633a2.051 2.051 0 0 1 2.498 3.253 21.064 21.064 0 0 1-5.339 1.524 21.218 21.218 0 0 1 2.841-4.777zm-10.692.385a2.047 2.047 0 0 1 2.869-.385 21.154 21.154 0 0 1 2.855 4.777 21.129 21.129 0 0 1-5.353-1.537 2.04 2.04 0 0 1-.37-2.869v.014zm6.026 29.894a1.29 1.29 0 0 1-1.29 1.29H6.301a1.29 1.29 0 0 1-1.29-1.29v-8.469c0-.712.577-1.29 1.29-1.29h11.365c.712 0 1.29.578 1.29 1.29l.014 8.469zm0-12.56a1.29 1.29 0 0 1-1.291 1.291H6.302a1.29 1.29 0 0 1-1.29-1.29v-8.469a1.29 1.29 0 0 1 1.29-1.276h11.365c.712 0 1.29.577 1.29 1.29l.014 8.455zm15.454 12.56a1.29 1.29 0 0 1-1.29 1.29H21.771a1.29 1.29 0 0 1-1.29-1.29v-8.469c0-.712.577-1.29 1.29-1.29h11.364c.713 0 1.29.578 1.29 1.29v8.469zm0-12.56a1.29 1.29 0 0 1-1.29 1.291H21.771a1.292 1.292 0 0 1-1.291-1.29v-8.469c0-.712.578-1.29 1.29-1.29h11.365c.713 0 1.29.578 1.29 1.29v8.469z"/></g></svg>