<svg width="50" height="50" viewBox="0 0 50 50" fill="none" xmlns="http://www.w3.org/2000/svg">
<path opacity="0.5" fill-rule="evenodd" clip-rule="evenodd" d="M13.5 16.6739C13.5 15.4733 14.4733 14.5 15.6739 14.5H36.3261C37.5267 14.5 38.5 15.4733 38.5 16.6739V32.4348C38.5 33.6354 37.5267 34.6087 36.3261 34.6087H25.1848L22.7391 37.5978L20.2935 34.6087H15.6739C14.4733 34.6087 13.5 33.6354 13.5 32.4348V16.6739Z" fill="#F7CD3D"/>
<path fill-rule="evenodd" clip-rule="evenodd" d="M14.1739 13.65C13.3323 13.65 12.65 14.3323 12.65 15.1739V30.9348C12.65 31.7764 13.3323 32.4587 14.1739 32.4587H18.7935C18.9884 32.4587 19.1731 32.5462 19.2965 32.6971L21.2391 35.0714L23.1817 32.6971C23.3052 32.5462 23.4898 32.4587 23.6848 32.4587H34.8261C35.6677 32.4587 36.35 31.7764 36.35 30.9348V15.1739C36.35 14.3323 35.6677 13.65 34.8261 13.65H14.1739ZM11.35 15.1739C11.35 13.6143 12.6143 12.35 14.1739 12.35H34.8261C36.3857 12.35 37.65 13.6143 37.65 15.1739V30.9348C37.65 32.4944 36.3857 33.7587 34.8261 33.7587H23.9928L21.7422 36.5094C21.6187 36.6603 21.4341 36.7478 21.2391 36.7478C21.0442 36.7478 20.8595 36.6603 20.7361 36.5094L18.4855 33.7587H14.1739C12.6143 33.7587 11.35 32.4944 11.35 30.9348V15.1739Z" fill="#434343"/>
<path fill-rule="evenodd" clip-rule="evenodd" d="M23.9575 24.4705C23.9575 24.8307 24.2495 25.1227 24.6097 25.1227H24.664C24.9942 25.1227 25.2618 24.855 25.2618 24.5249C25.2618 24.3346 25.2709 24.1761 25.289 24.0493C25.3071 23.9225 25.3388 23.8093 25.3841 23.7096C25.4385 23.6009 25.5064 23.5013 25.5879 23.4107C25.6785 23.3111 25.7962 23.1933 25.9412 23.0575L26.0771 22.9352L26.8923 22.0928C27.0734 21.8663 27.2138 21.6263 27.3135 21.3727C27.4131 21.11 27.4629 20.8065 27.4629 20.4624C27.4629 20.0638 27.3905 19.7106 27.2455 19.4026C27.1097 19.0856 26.9194 18.8229 26.6749 18.6145C26.4303 18.3971 26.1405 18.2341 25.8053 18.1254C25.4792 18.0076 25.126 17.9488 24.7455 17.9488C23.9484 17.9488 23.2781 18.1752 22.7347 18.6281C22.3699 18.9311 22.1022 19.3141 21.9316 19.7774C21.7959 20.1456 22.0838 20.5081 22.4744 20.5463C22.8456 20.5827 23.1612 20.3053 23.3188 19.9673C23.3987 19.7961 23.5029 19.644 23.6314 19.5113C23.9122 19.2305 24.2745 19.0901 24.7184 19.0901C24.9177 19.0901 25.1033 19.1263 25.2754 19.1988C25.4566 19.2712 25.6106 19.3709 25.7374 19.4977C25.8642 19.6245 25.9638 19.7785 26.0363 19.9596C26.1178 20.1318 26.1586 20.322 26.1586 20.5303C26.1586 20.7386 26.1178 20.9288 26.0363 21.101C25.9638 21.264 25.8687 21.4225 25.751 21.5765C25.6332 21.7214 25.5019 21.8663 25.3569 22.0113L24.9222 22.4189C24.741 22.591 24.587 22.7405 24.4602 22.8673C24.3424 22.985 24.2473 23.1118 24.1749 23.2477C24.1024 23.3745 24.0481 23.5194 24.0118 23.6825C23.9756 23.8455 23.9575 24.0493 23.9575 24.2939V24.4705ZM23.9575 26.3728C23.7854 26.545 23.6993 26.7533 23.6993 26.9978C23.6993 27.2424 23.7854 27.4553 23.9575 27.6364C24.1386 27.8086 24.3515 27.8946 24.5961 27.8946C24.8406 27.8946 25.0489 27.8086 25.2211 27.6364C25.4022 27.4553 25.4928 27.2424 25.4928 26.9978C25.4928 26.7533 25.4022 26.545 25.2211 26.3728C25.0489 26.1917 24.8406 26.1011 24.5961 26.1011C24.3515 26.1011 24.1386 26.1917 23.9575 26.3728Z" fill="#434343"/>
</svg>
