<svg xmlns="http://www.w3.org/2000/svg" viewBox="0 0 64 58"><g fill="#3A3A3A"><path d="M50.255 44.957a26.32 26.32 0 0 1-2.821 3.192 26.1 26.1 0 0 1-9.702 5.91A26.372 26.372 0 0 1 2.97 31.67c-.32-2.996-.09-6.024.677-8.937A26.41 26.41 0 0 1 26.204 2.996a24.85 24.85 0 0 1 9.409.625C48.72 6.924 57.202 19.61 55.247 32.983l-3.409-3.434a1.277 1.277 0 0 0-1.8 0 1.277 1.277 0 0 0 0 1.8l4.609 4.672 1.391 1.277L62.6 32.19a1.276 1.276 0 0 0 .217-1.787 1.277 1.277 0 0 0-1.787-.217l-3.14 2.451C59.521 19.011 51.35 6.114 38.331 1.77A28.463 28.463 0 0 0 22.872.991 28.906 28.906 0 0 0 1.17 22.094a27.272 27.272 0 0 0-.727 10.02 28.9 28.9 0 0 0 38.131 24.332 28.767 28.767 0 0 0 13.75-9.982c.66-.892 1.27-1.822 1.825-2.783a1.277 1.277 0 0 0-.524-1.749 1.276 1.276 0 0 0-1.697.51c-.51.87-1.068 1.71-1.673 2.515z"/><path d="M17.243 28.91h2.897a3.828 3.828 0 0 0 3.115-1.11 4.68 4.68 0 0 0 .92-3.077 4.473 4.473 0 0 0-1.047-3.204 4.08 4.08 0 0 0-3.09-1.098 4.28 4.28 0 0 0-3.115 1.136 4.024 4.024 0 0 0-1.174 3.026h-3.153v-.102a5.935 5.935 0 0 1 2.017-4.724 7.733 7.733 0 0 1 5.49-1.94 7.827 7.827 0 0 1 5.425 1.813 6.574 6.574 0 0 1 2.017 5.106 5.898 5.898 0 0 1-3.677 5.324 5.388 5.388 0 0 1 3.128 2.272 6.681 6.681 0 0 1 .919 3.472 6.639 6.639 0 0 1-2.234 5.324 8.238 8.238 0 0 1-5.617 1.915 8.439 8.439 0 0 1-5.553-1.813 5.812 5.812 0 0 1-2.12-4.915v-.102h3.205a4.057 4.057 0 0 0 1.187 3.076 4.507 4.507 0 0 0 3.255 1.137 4.598 4.598 0 0 0 3.307-1.137 4.456 4.456 0 0 0 1.187-3.357 4.596 4.596 0 0 0-1.06-3.345 4.555 4.555 0 0 0-3.357-1.072h-2.872V28.91zm28.697 4.443a10.99 10.99 0 0 1-2.08 7.2 7.02 7.02 0 0 1-5.707 2.553 7.083 7.083 0 0 1-5.732-2.553 10.903 10.903 0 0 1-2.106-7.2v-5.808a10.96 10.96 0 0 1 2.094-7.2 7.038 7.038 0 0 1 5.706-2.554 7.05 7.05 0 0 1 5.719 2.554 10.972 10.972 0 0 1 2.094 7.2l.012 5.808zm-3.319-6.523a8.203 8.203 0 0 0-1.149-4.787 3.828 3.828 0 0 0-3.344-1.609 3.828 3.828 0 0 0-3.383 1.609 8.244 8.244 0 0 0-1.15 4.787v7.187a8.235 8.235 0 0 0 1.15 4.813 3.829 3.829 0 0 0 3.357 1.621 3.83 3.83 0 0 0 3.332-1.621 8.374 8.374 0 0 0 1.136-4.813l.051-7.187z"/></g></svg>