<svg width="50" height="50" viewBox="0 0 50 50" fill="none" xmlns="http://www.w3.org/2000/svg">
<path opacity="0.5" d="M16.5 20.39C16.5 18.8823 17.7223 17.66 19.23 17.66H19.6747C22.2591 17.66 24.6926 16.4432 26.2432 14.3758C26.5716 13.9379 27.2284 13.9379 27.5568 14.3758C29.1074 16.4432 31.5409 17.66 34.1253 17.66H34.57C36.0777 17.66 37.3 18.8823 37.3 20.39V25.8063C37.3 32.0822 33.1834 37.615 27.1722 39.4183C26.9947 39.4716 26.8053 39.4716 26.6278 39.4183C20.6166 37.615 16.5 32.0822 16.5 25.8063V20.39Z" fill="#F7CD3D"/>
<path fill-rule="evenodd" clip-rule="evenodd" d="M30.0275 22.9883C30.2769 23.2465 30.2698 23.658 30.0116 23.9074L24.628 29.1074C24.3762 29.3507 23.9768 29.3507 23.7249 29.1074L20.7884 26.271C20.5302 26.0216 20.5231 25.6101 20.7725 25.3519C21.0219 25.0937 21.4334 25.0866 21.6916 25.336L24.1765 27.7362L29.1084 22.9724C29.3666 22.723 29.7781 22.7301 30.0275 22.9883Z" fill="#434343"/>
<path fill-rule="evenodd" clip-rule="evenodd" d="M25.5368 13.2658C25.4684 13.1746 25.3316 13.1746 25.2632 13.2658C23.5898 15.4969 20.9637 16.81 18.1747 16.81H17.73C16.5813 16.81 15.65 17.7413 15.65 18.89V24.3063C15.65 30.2951 19.5783 35.5749 25.3145 37.2957C25.3703 37.3125 25.4297 37.3125 25.4855 37.2957C31.2217 35.5749 35.15 30.2951 35.15 24.3063V18.89C35.15 17.7412 34.2188 16.81 33.07 16.81H32.6253C29.8364 16.81 27.2102 15.4969 25.5368 13.2658ZM24.2232 12.4858C24.8116 11.7012 25.9884 11.7012 26.5768 12.4858C28.0047 14.3896 30.2455 15.51 32.6253 15.51H33.07C34.9367 15.51 36.45 17.0233 36.45 18.89V24.3063C36.45 30.8692 32.1451 36.6551 25.859 38.5409C25.5596 38.6307 25.2404 38.6307 24.941 38.5409C18.6549 36.6551 14.35 30.8692 14.35 24.3063V18.89C14.35 17.0233 15.8633 15.51 17.73 15.51H18.1747C20.5545 15.51 22.7953 14.3896 24.2232 12.4858Z" fill="#434343"/>
</svg>
