<svg xmlns="http://www.w3.org/2000/svg" fill="none" viewBox="0 0 73 73"><g filter="url(#filter0_d)"><circle cx="36.5" cy="32.5" r="32.5" fill="#fff"/><circle cx="36.5" cy="32.5" r="31" stroke="url(#paint0_linear)" stroke-width="3"/></g><path fill="#434343" fill-rule="evenodd" d="M31.422 15a.66.66 0 0 0-.682.636v.044c.011.372.31.671.681.684l1.648.057a.706.706 0 0 0 .726-.636.66.66 0 0 0-.592-.72l-.042-.004-1.74-.06zm-2.45.857a.656.656 0 0 0-.762-.528l-.05.011-1.695.446a.652.652 0 0 0-.446.852.717.717 0 0 0 .856.448l1.578-.415a.71.71 0 0 0 .519-.814zm9.1.145l-.035-.01-1.69-.448h-.002a.667.667 0 0 0-.793.478l-.007.03a.7.7 0 0 0 .505.823l1.6.424a.704.704 0 0 0 .848-.462.663.663 0 0 0-.425-.835zm3.032 1.134a.667.667 0 0 0-.893.308l-.011.024a.697.697 0 0 0 .332.906l1.487.725c.335.163.74.037.922-.289a.663.663 0 0 0-.254-.902l-.034-.017-1.549-.755zm4.29 2.45a.664.664 0 0 0-.934.114l-.02.026a.702.702 0 0 0 .142.957l1.29 1.008a.712.712 0 0 0 .965-.083.659.659 0 0 0-.045-.93l-.037-.03-1.36-1.063zm2.345 8.482c0 2.27 1.844 4.11 4.118 4.11s4.117-1.84 4.117-4.11c0-2.27-1.843-4.11-4.117-4.11s-4.118 1.84-4.118 4.11zm5.037 3.12a3.243 3.243 0 0 1-1.128.125c.64-2.66-.167-4.685-2.353-5.254a3.268 3.268 0 0 1 1.063-.879v.005c2.196-.42 4.16 3.408 2.418 6.003zm1.3-.74a3.242 3.242 0 0 0 1.038-2.38 3.255 3.255 0 0 0-2.745-3.212c1.497 1.066 2.376 3.462 1.707 5.592zm-3.272.698a3.253 3.253 0 0 1-1.964-4.308c1.864.363 2.545 1.957 1.964 4.308zm-11.458 1.445c-1.175-1.298-2.072-1.995-3.303-2.332-1.548-.425-2.928-.554-4.138-.379-.137.02-.305.054-.505.102l-.05.015a.564.564 0 0 0-.353.717.658.658 0 0 0 .766.43c.178-.04.33-.067.455-.082.996-.12 2.16 0 3.494.365.948.26 1.688.834 2.719 1.973l.273.305c.175.196.377.423.458.512 1.076 1.18 1.85 1.725 2.905 1.787.444.025.615.029 1.577.04 1.92.022 2.51.188 2.765.858.367.97-.965 4.4-2.665 5.55-.692.338-2.247.193-3.713.057l-.313-.029c-1.95-.179-3.247-.886-3.5-2.044l-.008-.069a.584.584 0 0 0-.642-.52c-.014.002-.029.003-.043.006a.648.648 0 0 0-.525.734l.017.112c.089.404.275.773.538 1.105-1.126 1.68-1.498 3.355-1.128 4.468a8.02 8.02 0 0 0-1.015 1.222c-.184.275-.33.713-.438 1.314a.69.69 0 0 0 .498.788l.056.012a.532.532 0 0 0 .608-.443c.101-.642.255-1.096.462-1.362.16-.207.327-.402.5-.584.061.045.127.086.197.124 1.27.689 2.67-.375 3.522-2.554a12.55 12.55 0 0 1 3.707-.782c2.762-.124 5.186-4.194 5.179-6.63l.06-.005a1.457 1.457 0 1 0-1.401-2.199c-.61-.25-1.465-.327-2.7-.341-.94-.011-1.104-.014-1.52-.038-.635-.037-1.193-.43-2.067-1.39-.05-.054-.15-.165-.26-.29l-.226-.252-.243-.271zm-3.464 13.673c-.596-.323-.56-1.823.592-3.621l.059.042c.428.286.92.528 1.446.724-.588 2.214-1.567 3.143-2.097 2.855zm-5.68-16.632c-.145-2.701-.634-4.075-1.75-4.15-1.444-.098-2.059 1.398-2.947 5.115-.408 1.71-1.354 3.49-2.726 5.353-.488.665-1.708 2.274-3.66 4.827a.584.584 0 0 0 .928.709 477.492 477.492 0 0 0 3.674-4.846c1.456-1.979 2.47-3.887 2.92-5.773.664-2.777 1.271-4.254 1.731-4.223.06.004.214.215.364.783.114.431.215 1.356.302 2.774.02.324.293.576.618.57h.008a.58.58 0 0 0 .56-.598c-.009-.226-.016-.406-.023-.54zm6.488 5.819c-.07-.674-.62-1.169-1.228-1.105-.608.064-1.043.662-.972 1.336.07.674.62 1.169 1.228 1.105.608-.064 1.043-.662.972-1.336zm.192-7.393c-.29-2.265-.836-3.448-1.88-3.515-1.064-.068-1.69 1.055-2.121 3.296l-.05.272-.002.012a.577.577 0 0 0 .482.657.593.593 0 0 0 .674-.483l.038-.207c.155-.805.33-1.422.523-1.847.187-.412.325-.54.38-.537.074.005.22.164.385.604.166.442.304 1.07.41 1.88l.024.197c.037.32.322.551.643.521l.011-.001a.577.577 0 0 0 .508-.639 8.026 8.026 0 0 0-.025-.21z" clip-rule="evenodd"/><defs><linearGradient id="paint0_linear" x1="36.5" x2="36.5" y1="0" y2="65" gradientUnits="userSpaceOnUse"><stop stop-color="#F7CD3D"/><stop offset="1" stop-color="#1E7BAC"/></linearGradient><filter id="filter0_d" width="73" height="73" x="0" y="0" color-interpolation-filters="sRGB" filterUnits="userSpaceOnUse"><feFlood flood-opacity="0" result="BackgroundImageFix"/><feColorMatrix in="SourceAlpha" values="0 0 0 0 0 0 0 0 0 0 0 0 0 0 0 0 0 0 127 0"/><feOffset dy="4"/><feGaussianBlur stdDeviation="2"/><feColorMatrix values="0 0 0 0 0 0 0 0 0 0 0 0 0 0 0 0 0 0 0.25 0"/><feBlend in2="BackgroundImageFix" result="effect1_dropShadow"/><feBlend in="SourceGraphic" in2="effect1_dropShadow" result="shape"/></filter></defs></svg>