<svg xmlns="http://www.w3.org/2000/svg" fill="none" viewBox="0 0 73 73"><g filter="url(#filter0_d)"><circle cx="36.5" cy="32.5" r="32.5" fill="#fff"/><circle cx="36.5" cy="32.5" r="31" stroke="url(#paint0_linear)" stroke-width="3"/></g><path fill="#434343" fill-rule="evenodd" d="M27.105 22.619c-.112-.67-.21-1.661-.15-2.466.03-.41.097-.717.187-.905a.38.38 0 0 1 .092-.135l.002-.002c.003-.002.003-.003.015-.003.07 0 .19.036.363.212.17.175.343.442.506.776.325.666.556 1.482.665 2.03a.554.554 0 0 0 1.087-.217c-.122-.607-.376-1.522-.756-2.3-.189-.387-.423-.77-.71-1.063-.285-.293-.673-.546-1.155-.546-.571 0-.922.381-1.108.77-.18.374-.26.845-.294 1.302-.067.927.043 2.013.162 2.729a.554.554 0 1 0 1.094-.182zm-6.226 6.324c0-1.067-.044-2.124-.087-3.1l-.01-.22a57.186 57.186 0 0 1-.076-2.415c0-.772.045-1.348.151-1.716.053-.183.107-.265.136-.295l.003-.004c.003-.004.005-.006.007-.006l.009-.001h.005c.015 0 .154.026.411.332.234.28.48.688.72 1.176.477.972.882 2.15 1.107 2.938a.553.553 0 1 0 1.065-.304c-.236-.828-.662-2.073-1.178-3.122-.256-.522-.548-1.022-.865-1.4-.294-.35-.72-.728-1.26-.728-.33 0-.615.13-.83.358-.199.21-.318.481-.395.748-.153.532-.195 1.245-.195 2.024 0 .73.038 1.57.077 2.458l.01.226a67.9 67.9 0 0 1 .086 3.051c0 1.667-.334 3.635-.845 5.48-.512 1.847-1.188 3.527-1.846 4.624a.554.554 0 0 0 .95.57c.727-1.211 1.436-2.994 1.964-4.898.528-1.907.886-3.98.886-5.776zm8.437-4.63c-1.303.217-2.566.652-3.203.97a.554.554 0 1 1-.495-.991c.748-.374 2.118-.84 3.516-1.073.701-.117 1.43-.178 2.106-.134.668.045 1.33.197 1.859.549.538.359.942.673 1.273.937l.169.136c.251.203.443.357.636.485.408.273.814.427 1.77.427.947 0 2.187-.321 3.372-.67l.626-.187c.355-.107.694-.209.993-.292.456-.127.91-.236 1.243-.236h.002a1.177 1.177 0 0 1 2.352.069c0 .453-.255.846-.63 1.043.128.237.228.497.3.766.272 1.01.233 2.322-.102 3.658-.379 1.518-1.16 2.52-2.263 3.123-1.074.586-2.397.76-3.815.76-.69 0-1.226.016-1.647.064-.426.048-.687.125-.853.218a.61.61 0 0 0-.294.344c-.072.186-.115.465-.115.898 0 .381.119.557.249.662.158.128.42.22.81.258.383.038.819.02 1.27-.012l.32-.024c.333-.026.671-.053.953-.053.347 0 .7.004 1.021.034.317.03.646.086.93.215.298.135.577.365.705.739.122.353.076.74-.053 1.126-.216.648-.608 1.105-1.128 1.4-.502.285-1.093.403-1.692.45-.602.046-1.261.022-1.92-.01l-.355-.018a31.775 31.775 0 0 0-1.664-.058c-1.103 0-1.977.672-2.523 1.92-.55 1.26-.727 3.05-.393 5.054a.555.555 0 0 1-1.093.182c-.359-2.15-.19-4.17.471-5.68.667-1.524 1.87-2.584 3.538-2.584.588 0 1.176.03 1.73.06h.004l.339.017c.66.032 1.257.052 1.78.012.527-.04.932-.139 1.23-.309.28-.159.495-.395.625-.786.09-.27.067-.385.057-.415-.004-.012-.015-.045-.116-.09-.117-.054-.302-.097-.574-.122a10.614 10.614 0 0 0-.92-.029c-.233 0-.507.022-.825.046h-.001c-.116.01-.239.02-.367.028-.459.033-.975.058-1.459.01-.476-.048-.992-.173-1.397-.5-.432-.349-.66-.866-.66-1.523 0-.483.044-.922.189-1.297.153-.398.412-.702.787-.912.354-.198.785-.297 1.268-.352.488-.056 1.077-.071 1.773-.071 1.353 0 2.454-.172 3.284-.625.801-.437 1.406-1.166 1.72-2.419.303-1.212.315-2.324.106-3.101-.213-.792-.582-1.058-.954-1.058-.157 0-.467.063-.947.196-.29.08-.606.176-.95.28l-.652.194c-1.166.343-2.554.715-3.685.715-1.12 0-1.754-.192-2.385-.613-.238-.158-.476-.35-.729-.553v-.001l-.154-.123a16.177 16.177 0 0 0-1.195-.881c-.303-.202-.748-.327-1.318-.365-.563-.037-1.202.013-1.85.122zm25.254 2.32a.554.554 0 1 0-.615-.921l-6.233 4.155a.554.554 0 0 0 .614.923l6.234-4.156zm-7.779 7.06a.556.556 0 0 1 .645-.447l7.618 1.386a.553.553 0 1 1-.198 1.09l-7.619-1.385a.556.556 0 0 1-.446-.645zm-.472 3.148a.554.554 0 1 0-.736.828l6.233 5.54a.555.555 0 1 0 .737-.828l-6.234-5.54zm-14.913-8.175c.765 0 1.385-.31 1.385-.692 0-.383-.62-.693-1.385-.693s-1.385.31-1.385.693c0 .382.62.692 1.385.692z" clip-rule="evenodd"/><path fill="#434343" d="M26.955 20.153l.1.007-.1-.007zm.15 2.466l.098-.017-.098.017zm.037-3.37l-.09-.044.09.043zm.092-.136l.062.079.001-.002-.063-.077zm.002-.002l.063.078.001-.001-.064-.077zm.378.209l.071-.07-.071.07zm.506.776l.09-.044-.09.044zm.665 2.03l-.098.02.098-.02zm.652.434l.02.099-.02-.098zm.435-.651l-.098.02.098-.02zm-.756-2.3l-.09.045.09-.044zm-.71-1.063l-.07.07.07-.07zm-2.263.223l-.09-.043.09.043zm-.294 1.303l-.1-.007.1.007zm.162 2.729l-.098.016.098-.016zm.638.455l-.016-.098.016.098zm-5.857 2.587l.1-.005-.1.005zm-.01-.22l.1-.004-.1.005zm0 0l-.1.005.1-.004zm.075-4.131l-.096-.028.096.028zm.136-.295l.072.068-.073-.068zm.003-.004l.073.068-.073-.068zm.007-.006l.038.092-.038-.092zm.009-.001l-.002.1.002-.1zm.005 0v.1-.1zm.411.332l-.076.065.076-.064zm.72 1.176l.09-.044-.09.044zm1.107 2.938l-.096.028.096-.028zm.685.381l-.028-.096.028.096zm.38-.685l.097-.027-.097.027zm-1.178-3.122l.09-.044-.09.044zm-.865-1.4l-.076.064.076-.064zm-2.09-.37l.073.069-.073-.07zm-.395.748l-.096-.027.096.027zm-.118 4.482l.1-.004-.1.004zm.01.226l.1-.005-.1.005zm-.76 8.53l.097.028-.096-.027zm-1.845 4.625l-.086-.051.086.051zm.19.76l-.051.086.051-.085zm.76-.19l-.085-.05.085.05zm1.964-4.898l-.096-.027.096.027zm6.12-9.436l-.044-.09.044.09zm3.203-.97l-.017-.1.017.1zm-3.946.722l-.09.045.09-.045zm.248-.743l-.045-.09.045.09zm3.516-1.073l-.017-.098.017.099zm2.106-.134l-.007.1.007-.1zm1.859.549l.056-.083-.056.083zm1.273.937l.062-.078-.063.078zm.169.136l-.063.078.063-.078zm0 0l.063-.078-.063.078zm.636.485l-.056.084.056-.084zm5.142-.243l.029.096-.029-.096zm.626-.187l.03.095-.03-.095zm0 0l-.027-.096h-.001l.029.096zm0 0l-.026-.097h-.001l.028.097zm0 0l.028.096h.002l-.03-.096zm.993-.292l.026.097-.026-.097zm1.243-.236v-.1.1zm.002 0v.1a.101.101 0 0 0 .1-.095l-.1-.006zm1.722 1.112l-.047-.089a.105.105 0 0 0-.049.06.096.096 0 0 0 .008.076l.088-.047zm.3.766l.097-.026-.097.026zm-.102 3.658l-.096-.024.096.024zm-2.263 3.123l.048.087-.048-.087zm-5.462.824l.011.099-.011-.1zm-.853.218l.049.087-.049-.087zm-.294.344l.093.036-.093-.036zm.134 1.56l.063-.078-.063.078zm.81.258l-.01.1.01-.1zm1.27-.012l.007.1-.008-.1zm.32-.024v-.1h-.009l.008.1zm0 0v.1h.01l-.01-.1zm0 0l-.009-.1h-.002l.01.1zm1.974-.02l.01-.099-.01.1zm.93.216l.042-.09-.042.09zm.705.739l.095-.033-.095.033zm-.053 1.126l-.095-.031.095.031zm-1.128 1.4l-.05-.087.05.087zm-1.692.45l-.008-.1.008.1zm-1.92-.01l-.006.1.005-.1zm-.355-.018l.005-.1h-.005v.1zm0 0l-.005.1h.005v-.1zm-4.187 1.861l.092.04-.092-.04zm-.393 5.055l-.1.017.1-.017zm-.456.638l.017.098-.017-.098zm-.637-.456l.098-.016-.099.016zm.471-5.68l-.091-.04.091.04zm5.268-2.525l.009-.1h-.004l-.005.1zm0 0l-.008.1h.003l.005-.1zm.004 0l.005-.1-.005.1zm.339.018l.005-.1-.005.1zm1.78.012l.008.1-.008-.1zm1.23-.309l.05.087-.05-.087zm.625-.786l-.095-.032.095.032zm.057-.415l-.095.032.095-.032zm0 0l-.096.03v.001l.095-.032zm-.116-.09l-.041.09.041-.09zm-.574-.122l-.009.1.01-.1zm-1.745.017l.006.1h.002l-.008-.1zm0 0l-.007-.1h-.002l.009.1zm0 0l.008.1-.008-.1zm0 0l-.01-.1.01.1zm0 0l.008.1-.009-.1zm0 0l.008.1-.009-.1zm-.001 0l.008.1-.008-.1zm-.367.028l-.008-.1.008.1zm-1.459.01l-.01.1.01-.1zm-1.397-.5l.063-.077-.063.078zm-.471-2.82l-.094-.036.094.036zm.787-.912l.049.087-.049-.087zm1.268-.352l-.01-.1.01.1zm5.057-.696l.048.088-.048-.088zm1.72-2.419l.096.025-.096-.024zm.106-3.101l-.097.026.097-.026zm-.954-1.058v.1-.1zm-.947.196l.027.096-.027-.096zm-.95.28l.028.095-.028-.096zm0 0l-.029-.097.029.096zm0 0l-.03-.097.03.096zm-.652.194l-.028-.096.028.096zm-6.07.102l.056-.083-.056.083zm-.729-.553l.063-.078-.001-.001-.062.079zm0 0l-.062.077.001.002.061-.08zm0 0l.063-.079-.063.078zm0-.001l-.063.078.063-.078zm-.154-.123l-.062.078.062-.078zm-1.195-.881l.056-.083-.056.083zm-1.318-.365l.007-.1-.007.1zm23.404 2.443l-.056-.083.056.083zm-.615-.922l-.055-.083.055.083zm-6.233 4.155l.055.084-.055-.084zm-.154.769l.083-.056-.083.056zm.768.154l.056.083-.056-.084zm-.9 2.456l.017-.098-.018.098zm-.645.446l-.098-.017.098.017zm8.263.94l-.018.098.018-.098zm.446.644l-.098-.018.098.018zm-.644.446l-.018.098.018-.098zm-7.619-1.385l.018-.099-.018.099zm-.918 2.503l.067-.074-.067.075zm-.736.829l-.066.075.066-.075zm6.233 5.54l-.066.075.066-.074zm.737-.828l.066-.074-.066.074zM26.855 20.146c-.06.816.039 1.815.15 2.49l.198-.034c-.11-.665-.207-1.648-.148-2.442l-.2-.014zm.197-.941c-.098.205-.167.527-.197.94l.2.015c.03-.405.095-.697.177-.869l-.18-.086zm.12-.171a.478.478 0 0 0-.12.17l.18.087c.039-.08.066-.101.064-.1l-.123-.157zm0 0l-.001.001.126.155.002-.001-.127-.155zm.079-.026c-.003 0-.018 0-.034.003-.027.007-.043.022-.046.024l.13.153c.001-.002-.004.003-.01.007a.124.124 0 0 1-.028.011l-.014.002h.002v-.2zm.434.242c-.182-.187-.326-.242-.434-.242v.2c.034 0 .13.017.291.182l.143-.14zm.525.802c-.165-.34-.343-.616-.525-.802l-.143.14c.16.164.328.42.489.75l.18-.088zm.673 2.054c-.11-.553-.343-1.378-.673-2.054l-.18.088c.32.655.549 1.463.657 2.005l.196-.039zm.535.356a.454.454 0 0 1-.535-.356l-.196.04c.07.354.415.583.77.512l-.04-.196zm.356-.534a.453.453 0 0 1-.357.534l.04.197a.655.655 0 0 0 .513-.77l-.196.04zm-.747-2.274c.374.767.626 1.672.747 2.274l.196-.04c-.123-.612-.38-1.535-.764-2.322l-.18.088zm-.692-1.038c.276.283.505.655.692 1.038l.18-.088c-.192-.392-.432-.785-.729-1.09l-.143.14zm-1.084-.516c.445 0 .809.233 1.084.516l.143-.14c-.295-.303-.708-.576-1.227-.576v.2zm-1.018.712c.177-.37.5-.712 1.018-.712v-.2c-.625 0-1.004.42-1.198.826l.18.086zm-.284 1.267c.033-.452.112-.909.284-1.267l-.18-.086c-.188.391-.27.878-.303 1.339l.2.014zm.161 2.705c-.119-.711-.228-1.79-.16-2.705l-.2-.014c-.069.937.043 2.033.163 2.752l.197-.033zm.523.374a.455.455 0 0 1-.523-.374l-.197.033c.06.357.396.597.753.538l-.033-.197zm.373-.523a.455.455 0 0 1-.373.523l.033.197a.654.654 0 0 0 .537-.753l-.197.033zm-6.314 3.212c.043.977.087 2.032.087 3.096h.2c0-1.07-.044-2.128-.087-3.105l-.2.01zm-.01-.219l.01.22.2-.01-.01-.219-.2.01zm0 0l.2-.01-.2.01zm-.076-2.42c0 .706.036 1.525.076 2.42l.2-.009c-.04-.897-.077-1.71-.077-2.411h-.2zm.155-1.744c-.11.383-.155.971-.155 1.744h.2c0-.772.045-1.335.147-1.688l-.192-.056zm.159-.336c-.044.047-.104.146-.16.336l.193.056a.697.697 0 0 1 .112-.255l-.145-.137zm.003-.003l-.004.004.147.136.003-.004-.146-.136zm.042-.03a.112.112 0 0 0-.033.02l-.01.01.147.136.001-.001-.002.002a.096.096 0 0 1-.027.017l-.076-.185zm.048-.009h-.012a.102.102 0 0 0-.036.008l.076.185a.072.072 0 0 1-.029.007h-.003.001l.003-.2zm.005 0h-.005l-.002.2h.005l.002-.2zm.487.368a1.537 1.537 0 0 0-.318-.3.51.51 0 0 0-.1-.052.19.19 0 0 0-.07-.016v.2c-.014 0-.015-.003 0 .002.01.005.031.014.06.033.059.038.15.114.275.262l.153-.129zm.732 1.196c-.241-.49-.49-.908-.732-1.196l-.153.129c.226.27.468.67.706 1.155l.18-.088zm1.114 2.955c-.226-.792-.633-1.977-1.114-2.955l-.18.088c.475.965.878 2.137 1.102 2.922l.192-.055zm.561.312a.454.454 0 0 1-.561-.312l-.192.055a.655.655 0 0 0 .808.45l-.055-.193zm.312-.562a.453.453 0 0 1-.312.562l.055.192a.655.655 0 0 0 .45-.809l-.193.055zm-1.172-3.105c.512 1.042.937 2.281 1.172 3.105l.193-.055c-.238-.83-.666-2.082-1.185-3.138l-.18.088zm-.851-1.38c.31.37.596.86.851 1.38l.18-.088c-.258-.525-.554-1.034-.878-1.42l-.153.128zm-1.184-.692c.492 0 .892.346 1.184.692l.153-.128c-.298-.355-.75-.764-1.337-.764v.2zm-.757.326c.197-.208.456-.326.757-.326v-.2c-.358 0-.669.142-.903.39l.146.137zm-.372.708c.075-.26.188-.513.372-.707l-.146-.138c-.214.227-.338.515-.418.79l.192.055zm-.19 1.996c0-.779.041-1.479.19-1.996l-.192-.055c-.158.546-.199 1.271-.199 2.05h.2zm.076 2.454a57.438 57.438 0 0 1-.077-2.454h-.2c0 .732.038 1.575.078 2.463l.2-.01zm.01.225l-.01-.225-.2.009.01.225.2-.009zm.087 3.056a67.97 67.97 0 0 0-.087-3.056l-.2.01c.044.976.087 2.01.087 3.046h.2zm-.85 5.507c.513-1.85.85-3.829.85-5.507h-.2c0 1.655-.333 3.614-.843 5.453l.193.054zm-1.856 4.649c.664-1.108 1.343-2.797 1.856-4.65l-.193-.053c-.51 1.842-1.183 3.513-1.835 4.6l.172.103zm.155.623a.454.454 0 0 1-.155-.623l-.172-.103a.653.653 0 0 0 .225.897l.102-.171zm.623-.156a.454.454 0 0 1-.623.156l-.102.171c.31.186.711.086.897-.224l-.171-.103zm1.953-4.874c-.526 1.9-1.232 3.673-1.953 4.874l.172.103c.733-1.222 1.445-3.014 1.974-4.924l-.192-.053zm.883-5.749c0 1.785-.356 3.848-.883 5.749l.193.053c.53-1.912.89-3.993.89-5.802h-.2zm5.38-3.57c.626-.314 1.879-.746 3.173-.962l-.033-.197c-1.311.219-2.583.656-3.23.98l.09.179zm-.878-.293a.654.654 0 0 0 .877.293l-.09-.18a.453.453 0 0 1-.609-.202l-.178.09zm.292-.877a.654.654 0 0 0-.293.877l.18-.09a.451.451 0 0 1 .203-.608l-.09-.18zm3.544-1.082c-1.406.234-2.786.703-3.544 1.082l.09.178c.738-.369 2.098-.831 3.487-1.063l-.033-.197zm2.13-.135c-.686-.046-1.423.017-2.13.135l.033.197c.697-.116 1.418-.177 2.083-.133l.013-.2zm1.907.565c-.548-.366-1.23-.52-1.908-.565l-.013.2c.66.043 1.303.193 1.81.531l.111-.166zm1.28.942a17.66 17.66 0 0 0-1.28-.942l-.11.166c.534.357.935.669 1.265.933l.125-.157zm.17.136l-.17-.136-.125.157.17.135.124-.156zm0 0l-.126.156.125-.156zm.628.48c-.188-.125-.376-.277-.628-.48l-.126.156c.25.202.446.36.643.49l.111-.166zm1.715.41c-.473 0-.804-.038-1.065-.108a2.103 2.103 0 0 1-.65-.302l-.11.166c.21.141.423.253.709.33.283.075.633.114 1.116.114v-.2zm3.344-.666c-1.187.35-2.413.666-3.344.666v.2c.964 0 2.217-.326 3.4-.674l-.056-.192zm.626-.187l-.626.187.057.192.626-.188-.057-.191zm0 0l.057.191-.057-.191zm0 0l.057.192-.056-.192zm.002 0l.054.192-.054-.193zm.992-.292c-.3.083-.64.185-.994.292l.058.191c.354-.106.692-.208.99-.29l-.054-.193zm1.27-.24c-.349 0-.816.114-1.27.24l.053.193c.459-.128.9-.233 1.217-.233v-.2zm.002 0h-.002v.2h.002v-.2zm1.175-1.109c-.68 0-1.236.532-1.275 1.203l.2.011a1.077 1.077 0 0 1 1.075-1.014v-.2zm1.277 1.278c0-.706-.572-1.278-1.277-1.278v.2c.595 0 1.077.483 1.077 1.078h.2zm-.684 1.131c.407-.213.684-.64.684-1.131h-.2c0 .414-.233.774-.577.954l.093.177zm.35.652a3.584 3.584 0 0 0-.308-.788l-.176.096c.124.229.221.482.292.744l.193-.052zm-.1 3.709c.337-1.348.378-2.678.1-3.709l-.192.052c.265.989.229 2.283-.102 3.608l.194.049zm-2.313 3.185c1.131-.616 1.927-1.644 2.313-3.185l-.194-.049c-.374 1.494-1.138 2.472-2.215 3.059l.096.175zm-3.863.773c1.423 0 2.767-.175 3.863-.773l-.096-.175c-1.052.574-2.355.748-3.767.748v.2zm-1.636.063c.416-.047.947-.063 1.636-.063v-.2c-.69 0-1.231.016-1.658.064l.022.199zm-.815.206c.149-.083.395-.158.815-.206l-.022-.199c-.431.05-.708.129-.89.23l.097.175zm-.25.293a.517.517 0 0 1 .25-.293l-.098-.174a.713.713 0 0 0-.339.395l.187.072zm-.108.862c0-.429.043-.693.108-.862l-.187-.072c-.078.203-.12.496-.12.934h.2zm.212.584a.488.488 0 0 1-.145-.19.978.978 0 0 1-.067-.394h-.2c0 .2.031.354.084.474a.676.676 0 0 0 .202.265l.126-.155zm.758.237c-.382-.038-.622-.127-.758-.237l-.126.155c.18.147.466.241.864.28l.02-.198zm1.251-.013c-.45.032-.878.05-1.252.013l-.02.199c.392.039.835.02 1.287-.012l-.015-.2zm.32-.024l-.32.024.015.2.32-.025-.016-.199zm.007 0v.2-.2zm-.01 0l.02.2-.02-.2zm.964-.053c-.287 0-.63.027-.962.053l.016.2c.335-.027.669-.053.946-.053v-.2zm1.03.034c-.326-.03-.683-.034-1.03-.034v.2c.347 0 .695.004 1.012.034l.019-.2zm.963.224c-.3-.136-.642-.194-.962-.224l-.019.2c.312.028.629.084.898.206l.083-.182zm.758.797c-.14-.406-.443-.654-.758-.797l-.083.182c.28.127.534.34.652.68l.189-.065zm-.053 1.191c.133-.397.185-.809.053-1.19l-.19.064c.112.324.073.686-.053 1.063l.19.063zm-1.174 1.455c.542-.308.95-.784 1.174-1.455l-.19-.063c-.208.625-.584 1.061-1.083 1.344l.099.174zm-1.734.462c.606-.046 1.214-.167 1.734-.462l-.099-.174c-.483.275-1.057.391-1.65.437l.015.2zm-1.933-.01c.66.033 1.325.057 1.933.01l-.015-.2c-.595.046-1.248.023-1.908-.01l-.01.2zm-.354-.017l.354.018.01-.2-.354-.018-.01.2zm.005 0v-.2.2zm0 0v-.2.2zm0 0v-.2.2zm0 0v-.2.2zm0 0v-.2.2zm0 0v-.2.2zm-1.664-.057c.553 0 1.105.028 1.659.056l.01-.2c-.553-.028-1.11-.057-1.669-.057v.2zm-2.43 1.859c.534-1.222 1.378-1.86 2.43-1.86v-.2c-1.154 0-2.057.707-2.614 1.98l.183.08zm-.388 4.998c-.332-1.992-.154-3.76.387-4.998l-.183-.08c-.561 1.282-.737 3.093-.401 5.11l.197-.032zm-.537.752a.653.653 0 0 0 .537-.752l-.197.032a.454.454 0 0 1-.373.523l.033.197zm-.753-.537c.06.356.396.597.753.537l-.033-.197a.454.454 0 0 1-.523-.373l-.197.033zm.479-5.738c-.671 1.533-.84 3.574-.48 5.738l.198-.033c-.356-2.138-.186-4.137.465-5.625l-.183-.08zm3.63-2.643c-1.72 0-2.953 1.095-3.63 2.643l.183.08c.656-1.498 1.83-2.523 3.446-2.523v-.2zm1.734.06c-.553-.03-1.144-.06-1.735-.06v.2c.585 0 1.17.03 1.725.06l.01-.2zm.004 0l-.017.199.017-.2zm0 0h-.004l-.01.2h.004l.01-.2zm.339.017l-.339-.017-.01.2.339.017.01-.2zm1.768.012c-.517.04-1.107.02-1.768-.012l-.01.2c.66.032 1.262.052 1.793.011l-.015-.2zm1.188-.296c-.28.16-.669.256-1.188.296l.015.2c.533-.042.955-.142 1.272-.322l-.099-.174zm.579-.73c-.122.367-.32.584-.579.73l.099.174c.302-.171.532-.427.67-.841l-.19-.064zm.057-.351s.008.022.004.078a1.076 1.076 0 0 1-.061.272l.19.064c.093-.281.077-.42.056-.48l-.189.066zm0-.002v.001l.19-.064v-.001l-.19.064zm-.062-.03c.044.02.06.033.065.038.002.002.001.001 0-.002l-.004-.006.19-.064a.166.166 0 0 0-.046-.071.421.421 0 0 0-.122-.078l-.083.182zm-.542-.113c.268.025.44.066.542.112l.083-.182c-.132-.06-.33-.104-.606-.13l-.019.2zm-.91-.029c.345 0 .649.005.91.029l.019-.2a10.942 10.942 0 0 0-.93-.029v.2zm-.818.046c.32-.025.588-.046.818-.046v-.2c-.24 0-.517.022-.834.047l.016.2zm-.002 0l-.012-.2.012.2zm.003 0l-.018-.2.018.2zm0 0l-.018-.2.017.2zm0 0l-.019-.2.019.2zm-.001 0l-.017-.2.017.2zm0 0l-.017-.2.017.2zm-.37.028l.369-.028-.016-.2c-.116.01-.238.02-.367.029l.015.2zm-1.475.01c.493.049 1.017.023 1.476-.01l-.015-.2c-.457.033-.966.058-1.44.01l-.02.2zm-1.45-.521c.427.344.966.472 1.45.52l.02-.199c-.468-.046-.962-.168-1.344-.477l-.125.156zm-.697-1.602c0 .682.237 1.23.698 1.602l.125-.156c-.405-.327-.623-.813-.623-1.446h-.2zm.195-1.333c-.15.392-.195.846-.195 1.333h.2c0-.478.044-.903.182-1.26l-.187-.073zm.832-.964c-.396.222-.67.545-.832.964l.187.072c.145-.376.388-.662.743-.86l-.098-.175zm1.306-.364c-.488.056-.935.157-1.306.364l.098.175c.337-.188.753-.286 1.23-.34l-.022-.199zm1.784-.071c-.696 0-1.29.015-1.784.071l.023.199c.481-.055 1.066-.07 1.761-.07v-.2zm3.236-.613c-.808.441-1.889.613-3.236.613v.2c1.359 0 2.48-.172 3.332-.637l-.096-.176zm1.67-2.355c-.307 1.23-.896 1.933-1.67 2.355l.096.176c.829-.452 1.45-1.205 1.769-2.482l-.195-.049zm.107-3.051c.204.756.194 1.85-.107 3.051l.195.049c.305-1.224.32-2.354.105-3.152l-.193.052zm-.857-.984c.16 0 .32.056.466.203.149.148.288.395.391.78l.194-.051c-.11-.406-.261-.689-.444-.87a.835.835 0 0 0-.607-.262v.2zm-.92.192c.482-.133.778-.192.92-.192v-.2c-.173 0-.496.067-.974.2l.054.192zm-.948.279c.344-.104.66-.199.948-.279l-.054-.192c-.29.08-.608.176-.952.28l.058.19zm0 0l-.058-.192.057.192zm0 0l-.058-.192.057.192zm-.652.195l.651-.195-.057-.192-.65.195.056.192zm-3.714.719c1.148 0 2.549-.376 3.714-.72l-.057-.191c-1.168.344-2.542.71-3.657.71v.2zm-2.44-.63c.65.434 1.304.63 2.44.63v-.2c-1.106 0-1.719-.189-2.33-.596l-.11.167zm-.736-.558c.251.202.493.397.736.559l.11-.167c-.233-.155-.468-.345-.72-.548l-.126.155zm.001 0l.123-.157-.123.158zm-.002-.001l.126-.155-.126.155zm0 0l.125-.156-.125.156zm-.153-.123l.153.123.125-.156-.153-.123-.125.156zm-1.188-.876c.497.332.87.622 1.188.876l.125-.156c-.32-.256-.698-.55-1.202-.886l-.111.166zm-1.27-.348c.561.037.987.16 1.27.348l.11-.166c-.322-.216-.788-.343-1.366-.382l-.013.2zm-1.827.12c.644-.107 1.275-.157 1.828-.12l.013-.2c-.573-.038-1.22.014-1.874.123l.033.197zm25.308 1.51c.14.209.083.49-.126.63l.111.166c.3-.2.382-.607.182-.907l-.167.11zm-.63-.126a.453.453 0 0 1 .63.126l.167-.111a.654.654 0 0 0-.907-.181l.11.166zm-6.233 4.156l6.234-4.156-.111-.166-6.234 4.155.111.167zm-.126.63a.454.454 0 0 1 .126-.63l-.11-.167a.653.653 0 0 0-.182.907l.166-.11zm.63.125a.453.453 0 0 1-.63-.126l-.166.111c.2.3.606.382.907.182l-.111-.167zm6.233-4.155l-6.233 4.155.11.167 6.234-4.156-.11-.166zm-7.06 6.597a.654.654 0 0 0-.761.527l.197.035a.453.453 0 0 1 .528-.365l.035-.197zm7.618 1.385l-7.619-1.385-.035.197 7.618 1.385.036-.197zm.527.76a.654.654 0 0 0-.527-.76l-.036.197c.247.045.41.281.366.528l.197.036zm-.76.527a.653.653 0 0 0 .76-.526l-.197-.036a.453.453 0 0 1-.528.365l-.036.197zm-7.62-1.385l7.62 1.385.035-.197-7.619-1.385-.036.197zm-.526-.76a.653.653 0 0 0 .526.76l.036-.197a.452.452 0 0 1-.365-.528l-.197-.035zm-1.081 3.278a.453.453 0 0 1 .64-.038l.134-.15a.655.655 0 0 0-.924.055l.15.133zm.037.641a.454.454 0 0 1-.037-.641l-.15-.133a.654.654 0 0 0 .055.923l.132-.149zm6.234 5.54l-6.234-5.54-.132.15 6.233 5.54.133-.15zm.641-.037a.454.454 0 0 1-.641.038l-.133.15c.27.24.684.215.923-.055l-.149-.133zm-.038-.64a.452.452 0 0 1 .038.64l.15.133a.654.654 0 0 0-.055-.923l-.133.15zm-6.233-5.542l6.233 5.541.133-.15-6.233-5.54-.133.15zM32.69 27.974c0 .133-.11.28-.35.4-.234.117-.565.192-.935.192v.2c.395 0 .757-.08 1.024-.213.262-.13.461-.33.461-.58h-.2zm-1.285-.593c.37 0 .7.075.935.192.24.12.35.268.35.4h.2c0-.249-.2-.448-.46-.579-.268-.133-.63-.213-1.025-.213v.2zm-1.285.593c0-.133.11-.28.35-.4.234-.118.565-.193.935-.193v-.2c-.394 0-.757.08-1.024.213-.261.131-.461.33-.461.58h.2zm1.285.592c-.37 0-.7-.075-.935-.192-.24-.12-.35-.267-.35-.4h-.2c0 .25.2.448.46.579.268.133.63.213 1.025.213v-.2z"/><defs><linearGradient id="paint0_linear" x1="36.5" x2="36.5" y1="0" y2="65" gradientUnits="userSpaceOnUse"><stop stop-color="#F7CD3D"/><stop offset="1" stop-color="#1E7BAC"/></linearGradient><filter id="filter0_d" width="73" height="73" x="0" y="0" color-interpolation-filters="sRGB" filterUnits="userSpaceOnUse"><feFlood flood-opacity="0" result="BackgroundImageFix"/><feColorMatrix in="SourceAlpha" values="0 0 0 0 0 0 0 0 0 0 0 0 0 0 0 0 0 0 127 0"/><feOffset dy="4"/><feGaussianBlur stdDeviation="2"/><feColorMatrix values="0 0 0 0 0 0 0 0 0 0 0 0 0 0 0 0 0 0 0.25 0"/><feBlend in2="BackgroundImageFix" result="effect1_dropShadow"/><feBlend in="SourceGraphic" in2="effect1_dropShadow" result="shape"/></filter></defs></svg>