<svg xmlns="http://www.w3.org/2000/svg" fill="none" viewBox="0 0 73 73"><g filter="url(#filter0_d)"><circle cx="36.5" cy="32.5" r="32.5" fill="#fff"/><circle cx="36.5" cy="32.5" r="31" stroke="url(#paint0_linear)" stroke-width="3"/></g><path fill="#434343" fill-rule="evenodd" stroke="#434343" stroke-linejoin="round" stroke-width=".3" d="M32.68 22.244c-3.502 0-6.34 2.786-6.34 6.223a6.1 6.1 0 0 0 .438 2.279.613.613 0 0 1-.052.558.636.636 0 0 1-.489.29c-2.78.21-4.969 2.491-4.969 5.273 0 2.828 2.26 5.138 5.105 5.282.023.001.046.004.069.007H47.16a.732.732 0 0 1 .069-.007c2.843-.145 5.104-2.454 5.104-5.282 0-2.445-1.691-4.505-3.99-5.11a.622.622 0 0 1-.468-.653c.014-.151.02-.304.02-.46 0-2.92-2.412-5.288-5.388-5.288a5.432 5.432 0 0 0-3.054.93.647.647 0 0 1-.536.086.632.632 0 0 1-.407-.353c-.969-2.22-3.215-3.774-5.83-3.774zm-7.608 6.223c0-4.124 3.406-7.467 7.608-7.467a7.631 7.631 0 0 1 6.678 3.887 6.729 6.729 0 0 1 3.149-.776c3.676 0 6.656 2.925 6.656 6.534v.06c2.586.897 4.438 3.317 4.438 6.162 0 3.458-2.736 6.288-6.2 6.519a.646.646 0 0 1-.14.015H26.34a.646.646 0 0 1-.14-.015c-3.464-.23-6.2-3.06-6.2-6.519 0-3.168 2.297-5.809 5.346-6.407a7.333 7.333 0 0 1-.274-1.993z" clip-rule="evenodd"/><path fill="#434343" fill-rule="evenodd" stroke="#434343" stroke-width=".3" d="M40.595 33.062a1.297 1.297 0 0 1 0 2.173l-4.466 3.04c-.939.64-2.25.007-2.25-1.086v-6.081c0-1.093 1.311-1.726 2.25-1.087l4.466 3.041zm-.831 1.086l-4.466-3.04v6.081l4.466-3.04z" clip-rule="evenodd"/><defs><linearGradient id="paint0_linear" x1="36.5" x2="36.5" y1="0" y2="65" gradientUnits="userSpaceOnUse"><stop stop-color="#F7CD3D"/><stop offset="1" stop-color="#1E7BAC"/></linearGradient><filter id="filter0_d" width="73" height="73" x="0" y="0" color-interpolation-filters="sRGB" filterUnits="userSpaceOnUse"><feFlood flood-opacity="0" result="BackgroundImageFix"/><feColorMatrix in="SourceAlpha" values="0 0 0 0 0 0 0 0 0 0 0 0 0 0 0 0 0 0 127 0"/><feOffset dy="4"/><feGaussianBlur stdDeviation="2"/><feColorMatrix values="0 0 0 0 0 0 0 0 0 0 0 0 0 0 0 0 0 0 0.25 0"/><feBlend in2="BackgroundImageFix" result="effect1_dropShadow"/><feBlend in="SourceGraphic" in2="effect1_dropShadow" result="shape"/></filter></defs></svg>