<svg xmlns="http://www.w3.org/2000/svg" fill="none" viewBox="0 0 73 73"><g filter="url(#filter0_d)"><circle cx="36.5" cy="32.5" r="32.5" fill="#fff"/><circle cx="36.5" cy="32.5" r="31" stroke="url(#paint0_linear)" stroke-width="3"/></g><path fill="#434343" d="M44.825 17C47.13 17 49 18.993 49 21.45v21.1c0 2.457-1.869 4.45-4.175 4.45H29.842c-1.108 0-2.17-.47-2.953-1.304a4.602 4.602 0 0 1-1.222-3.146v-2.61h-.802c-.478 0-.865-.395-.865-.882s.387-.883.865-.883h.801v-5.294h-.8c-.479 0-.866-.395-.866-.882s.387-.882.865-.882l.801-.002V24.94h-.8a.874.874 0 0 1-.866-.882c0-.488.387-.883.865-.883h.801V21.45c0-2.457 1.87-4.45 4.176-4.45h14.983zm-12.493 1.764h-2.337c-1.47 0-2.662 1.278-2.662 2.854v1.558h1.635c.478 0 .865.396.865.883s-.387.882-.865.882h-1.636v6.175l1.636.002c.478 0 .865.395.865.882s-.387.882-.865.882h-1.636v5.294h1.636c.478 0 .865.395.865.883a.874.874 0 0 1-.865.882h-1.636l.001 2.441c0 .758.281 1.483.78 2.018.5.535 1.176.835 1.882.835h2.337V18.763zm12.34 0H34v26.47l10.672.001c1.47 0 2.661-1.277 2.661-2.852V21.617c0-1.575-1.191-2.852-2.661-2.852z"/><defs><linearGradient id="paint0_linear" x1="36.5" x2="36.5" y1="0" y2="65" gradientUnits="userSpaceOnUse"><stop stop-color="#F7CD3D"/><stop offset="1" stop-color="#1E7BAC"/></linearGradient><filter id="filter0_d" width="73" height="73" x="0" y="0" color-interpolation-filters="sRGB" filterUnits="userSpaceOnUse"><feFlood flood-opacity="0" result="BackgroundImageFix"/><feColorMatrix in="SourceAlpha" values="0 0 0 0 0 0 0 0 0 0 0 0 0 0 0 0 0 0 127 0"/><feOffset dy="4"/><feGaussianBlur stdDeviation="2"/><feColorMatrix values="0 0 0 0 0 0 0 0 0 0 0 0 0 0 0 0 0 0 0.25 0"/><feBlend in2="BackgroundImageFix" result="effect1_dropShadow"/><feBlend in="SourceGraphic" in2="effect1_dropShadow" result="shape"/></filter></defs></svg>