<svg xmlns="http://www.w3.org/2000/svg" fill="none" viewBox="0 0 73 73"><g filter="url(#filter0_d)"><circle cx="36.5" cy="32.5" r="32.5" fill="#fff"/><circle cx="36.5" cy="32.5" r="31" stroke="url(#paint0_linear)" stroke-width="3"/></g><path fill="#E02020" fill-rule="evenodd" stroke="#fff" stroke-width=".1" d="M37 19c1.001 0 1.945.523 2.462 1.364l13.126 21.359c.534.87.55 1.96.041 2.843A2.888 2.888 0 0 1 50.126 46H23.874a2.89 2.89 0 0 1-2.503-1.434 2.779 2.779 0 0 1 .041-2.843l13.126-21.359A2.902 2.902 0 0 1 37 19zm0 2.044a.8.8 0 0 0-.678.376L23.196 42.779a.764.764 0 0 0-.011.782c.14.244.404.395.69.395h26.25c.286 0 .55-.152.69-.395a.764.764 0 0 0-.011-.782l-13.126-21.36a.8.8 0 0 0-.678-.375zm.03 17.423c.792 0 1.468.664 1.468 1.46 0 .778-.676 1.46-1.469 1.46-.85 0-1.488-.682-1.488-1.46 0-.796.638-1.46 1.488-1.46zm-.02-11.057c.753 0 1.391.418 1.391 1.157 0 2.257-.27 5.5-.27 7.757 0 .588-.657.835-1.121.835-.619 0-1.14-.247-1.14-.835 0-2.257-.271-5.5-.271-7.757 0-.74.618-1.157 1.41-1.157z" clip-rule="evenodd"/><defs><linearGradient id="paint0_linear" x1="36.5" x2="36.5" y1="0" y2="65" gradientUnits="userSpaceOnUse"><stop stop-color="#F7CD3D"/><stop offset="1" stop-color="#E02020"/></linearGradient><filter id="filter0_d" width="73" height="73" x="0" y="0" color-interpolation-filters="sRGB" filterUnits="userSpaceOnUse"><feFlood flood-opacity="0" result="BackgroundImageFix"/><feColorMatrix in="SourceAlpha" values="0 0 0 0 0 0 0 0 0 0 0 0 0 0 0 0 0 0 127 0"/><feOffset dy="4"/><feGaussianBlur stdDeviation="2"/><feColorMatrix values="0 0 0 0 0 0 0 0 0 0 0 0 0 0 0 0 0 0 0.25 0"/><feBlend in2="BackgroundImageFix" result="effect1_dropShadow"/><feBlend in="SourceGraphic" in2="effect1_dropShadow" result="shape"/></filter></defs></svg>