<svg width="50" height="50" viewBox="0 0 50 50" fill="none" xmlns="http://www.w3.org/2000/svg">
<path d="M50 25C50 38.8071 38.8071 50 25 50C11.1929 50 0 38.8071 0 25C0 11.1929 11.1929 0 25 0C38.8071 0 50 11.1929 50 25Z" fill="white"/>
<path fill-rule="evenodd" clip-rule="evenodd" d="M25 48C37.7025 48 48 37.7025 48 25C48 12.2975 37.7025 2 25 2C12.2975 2 2 12.2975 2 25C2 37.7025 12.2975 48 25 48ZM25 50C38.8071 50 50 38.8071 50 25C50 11.1929 38.8071 0 25 0C11.1929 0 0 11.1929 0 25C0 38.8071 11.1929 50 25 50Z" fill="url(#paint0_linear)"/>
<path fill-rule="evenodd" clip-rule="evenodd" d="M28.0121 16.3525C28.5286 16.4115 28.9602 16.7726 29.1096 17.2705C29.4703 18.473 30.7183 20.8073 33.2085 21.4145V20.017C33.2085 15.755 29.7535 12.3 25.4915 12.3C21.2296 12.3 17.7746 15.755 17.7746 20.017V21.699C20.4907 21.8463 24.4257 21.0416 26.7357 16.9991C26.9936 16.5477 27.4956 16.2934 28.0121 16.3525ZM28.4887 19.1028C29.3179 20.6146 30.8957 22.4215 33.5103 22.7949C34.0571 22.873 34.5085 22.4167 34.5085 21.8644V20.017C34.5085 15.037 30.4714 11 25.4915 11C20.5116 11 16.4746 15.037 16.4746 20.017V22.0173C16.4746 22.5061 16.8274 22.9275 17.3144 22.9697C20.0048 23.203 24.1614 22.6161 26.9785 18.9747C27.2916 18.5699 27.5882 18.1274 27.8644 17.6441C27.9813 18.0338 28.1847 18.5485 28.4887 19.1028Z" fill="#434343"/>
<path fill-rule="evenodd" clip-rule="evenodd" d="M33.0847 21.7398C33.4437 21.7398 33.7347 22.0309 33.7347 22.3898C33.7347 22.4168 33.7345 28.8559 33.7341 28.8927C33.6806 33.5136 30.0296 37.2771 25.4915 37.2771C20.9426 37.2771 17.285 33.4957 17.2485 28.8598C17.2484 28.8456 17.2484 27.343 17.2483 25.8515L17.2483 22.8645L17.8983 22.8644L18.5483 22.8645L18.5485 28.591C18.5485 28.6958 18.5485 28.7705 18.5485 28.8119C18.5485 28.837 18.5485 28.8498 18.5485 28.8496C18.5797 32.8108 21.6952 35.9771 25.4915 35.9771C29.2788 35.9771 32.3885 32.8258 32.4342 28.8777C32.4342 28.8786 32.4342 28.7817 32.4343 28.5981L32.4347 22.3898C32.4347 22.0309 32.7257 21.7398 33.0847 21.7398ZM17.8983 22.2144C18.2572 22.2144 18.5483 22.5055 18.5483 22.8645L17.8983 22.8644L17.2483 22.8645C17.2483 22.5055 17.5393 22.2144 17.8983 22.2144Z" fill="#434343"/>
<path fill-rule="evenodd" clip-rule="evenodd" d="M24.0534 36.1525C24.4124 36.1525 24.7034 36.4435 24.7034 36.8025L24.7034 38.3499C24.7034 38.7089 24.4124 38.9999 24.0534 38.9999C23.6944 38.9999 23.4034 38.7089 23.4034 38.3499L23.4034 36.8025C23.4034 36.4435 23.6944 36.1525 24.0534 36.1525Z" fill="#434343"/>
<path fill-rule="evenodd" clip-rule="evenodd" d="M27.3754 36.1525C27.7344 36.1525 28.0254 36.4435 28.0254 36.8025L28.0254 38.3499C28.0254 38.7089 27.7344 38.9999 27.3754 38.9999C27.0164 38.9999 26.7254 38.7089 26.7254 38.3499L26.7254 36.8025C26.7254 36.4435 27.0164 36.1525 27.3754 36.1525Z" fill="#434343"/>
<path d="M22.9762 26.1153C22.9762 26.6002 22.5831 26.9933 22.0983 26.9933C21.6134 26.9933 21.2203 26.6002 21.2203 26.1153C21.2203 25.6304 21.6134 25.2374 22.0983 25.2374C22.5831 25.2374 22.9762 25.6304 22.9762 26.1153Z" fill="#434343"/>
<path d="M29.6204 26.1153C29.6204 26.6002 29.2273 26.9932 28.7424 26.9932C28.2575 26.9932 27.8644 26.6002 27.8644 26.1153C27.8644 25.6304 28.2575 25.2373 28.7424 25.2373C29.2273 25.2373 29.6204 25.6304 29.6204 26.1153Z" fill="#434343"/>
<path fill-rule="evenodd" clip-rule="evenodd" d="M23.5933 29.333C23.9522 29.333 24.2433 29.6241 24.2433 29.983C24.2433 30.6725 24.8021 31.2313 25.4916 31.2313C26.181 31.2313 26.7399 30.6725 26.7399 29.983C26.7399 29.6241 27.0309 29.333 27.3899 29.333C27.7488 29.333 28.0399 29.6241 28.0399 29.983C28.0399 31.3904 26.8989 32.5313 25.4916 32.5313C24.0842 32.5313 22.9433 31.3904 22.9433 29.983C22.9433 29.6241 23.2343 29.333 23.5933 29.333Z" fill="#434343"/>
<path fill-rule="evenodd" clip-rule="evenodd" d="M18.5483 25.2374C18.5483 25.5964 18.2572 25.8874 17.8983 25.8874C17.2088 25.8874 16.65 26.4463 16.65 27.1357C16.65 27.8251 17.2088 28.384 17.8983 28.384C18.2572 28.384 18.5483 28.675 18.5483 29.034C18.5483 29.393 18.2572 29.684 17.8983 29.684C16.4909 29.684 15.35 28.5431 15.35 27.1357C15.35 25.7283 16.4909 24.5874 17.8983 24.5874C18.2572 24.5874 18.5483 24.8784 18.5483 25.2374Z" fill="#434343"/>
<path fill-rule="evenodd" clip-rule="evenodd" d="M32.4347 29.0339C32.4347 28.6749 32.7257 28.3839 33.0847 28.3839C33.7741 28.3839 34.333 27.825 34.333 27.1356C34.333 26.4462 33.7741 25.8873 33.0847 25.8873C32.7257 25.8873 32.4347 25.5963 32.4347 25.2373C32.4347 24.8783 32.7257 24.5873 33.0847 24.5873C34.4921 24.5873 35.633 25.7282 35.633 27.1356C35.633 28.543 34.4921 29.6839 33.0847 29.6839C32.7257 29.6839 32.4347 29.3929 32.4347 29.0339Z" fill="#434343"/>
<defs>
<linearGradient id="paint0_linear" x1="25" y1="0" x2="25" y2="50" gradientUnits="userSpaceOnUse">
<stop stop-color="#F7CD3D"/>
<stop offset="1" stop-color="#1E7BAC"/>
</linearGradient>
</defs>
</svg>
