<svg xmlns="http://www.w3.org/2000/svg" fill="none" viewBox="0 0 73 73"><g filter="url(#filter0_d)"><circle cx="36.5" cy="32.5" r="32.5" fill="#fff"/><circle cx="36.5" cy="32.5" r="31" stroke="url(#paint0_linear)" stroke-width="3"/></g><path fill="#434343" fill-rule="evenodd" d="M22.663 15A3.654 3.654 0 0 0 19 18.645v3.645a.73.73 0 0 0 .733.728.73.73 0 0 0 .732-.728v-3.645c0-1.208.984-2.187 2.198-2.187h3.663a.731.731 0 0 0 .732-.73.73.73 0 0 0-.732-.728h-3.663zM19 41.97v3.646a3.654 3.654 0 0 0 3.663 3.645h3.663a.731.731 0 0 0 .732-.73.73.73 0 0 0-.732-.728h-3.663a2.193 2.193 0 0 1-2.198-2.187V41.97a.73.73 0 0 0-.732-.729.73.73 0 0 0-.733.729zm26.372-26.24a.73.73 0 0 1 .732-.729h3.663a3.654 3.654 0 0 1 3.663 3.645v3.645a.73.73 0 0 1-.733.728.73.73 0 0 1-.733-.728v-3.645a2.192 2.192 0 0 0-2.197-2.187h-3.663a.731.731 0 0 1-.732-.73zm6.592 26.242a.73.73 0 0 1 .733-.729.73.73 0 0 1 .733.729v3.645a3.654 3.654 0 0 1-3.663 3.645h-3.663a.731.731 0 0 1-.732-.73.73.73 0 0 1 .732-.728h3.663c1.214 0 2.197-.98 2.197-2.187V41.97zM28.977 27.115c0-.09.002-.167.003-.23.024-.953.108-1.699.247-2.231.139-.53.289-.733.373-.747.064-.011.241.12.509.576.275.469.555 1.163.834 2.078l.07.236a.693.693 0 0 0 .843.477.671.671 0 0 0 .48-.82l-.003-.013c-.036-.124-.066-.228-.092-.311-.776-2.545-1.64-3.771-2.87-3.563-1.207.205-1.698 1.643-1.758 4.305l-.004.248a.673.673 0 0 0 .67.677h.013a.692.692 0 0 0 .685-.682zm12.472-.506c.223-.325.4-.564.53-.716.636-.744 1.2-1.095 1.45-.992.06.026.104.161.051.544-.049.358-.185.81-.41 1.342-.069.161-.178.391-.328.689a5.986 5.986 0 0 0-1.293-.867zm2.024 1.766c.88 1.546.515 3.602.194 5.41l-.082.464c2.445 1.492 2.6 5.405.212 7.147-1.082.788-2.864.515-3.746-.5-.396.416-1.066.65-1.569.802-2.662.808-5.152-.237-6.56-2.59-.407-.679.658-1.294 1.063-.618 1.132 1.891 3.047 2.681 5.17 2.027l.118-.036c.592-.18.85-.258.946-.89.071-.463.028-.98-.024-1.471-.574-.318-1.257-.943-1.257-1.661 0-.791.49-.743 1.185-.674.219.022.459.046.71.046.25 0 .49-.024.71-.046.694-.069 1.184-.117 1.184.674 0 .578-.443 1.096-.915 1.441.012.048.018.1.018.156 0 .157-.017.346-.035.546-.04.436-.083.922.035 1.237.193.514 1.383 1.017 2.146.599 1.854-1.018 1.72-4.452-.232-5.27-.338-.142-.486-.392-.43-.754.041-.264.098-.56.157-.877.312-1.642.726-3.823-.327-4.937-1.762-1.864-6.336-2.163-8.324-1.306-.72.31-1.346-.746-.621-1.058 1.944-.838 4.867-.864 7.186-.071a.623.623 0 0 1 .086-.19c.261-.391.47-.682.627-.872 1.013-1.226 2.077-1.84 2.844-1.52.962.402.957 1.81.151 3.715-.086.204-.222.49-.409.86a.51.51 0 0 1-.211.217zm-14.708.907c.11-.771-1.076-1.105-1.187-.326-.09.64-.184 1.24-.273 1.808-.569 3.653-.942 6.048.696 9.995.298.718 1.49.403 1.187-.326-1.565-3.77-1.224-5.96-.684-9.423.084-.541.174-1.114.261-1.728zm5.215 2.698c0 .694-.566 1.256-1.263 1.256s-1.263-.562-1.263-1.256.566-1.257 1.263-1.257 1.263.563 1.263 1.257zm6.82 0c0 .649-.529 1.175-1.181 1.175s-1.18-.526-1.18-1.175c0-.65.528-1.175 1.18-1.175.652 0 1.18.526 1.18 1.175z" clip-rule="evenodd"/><defs><linearGradient id="paint0_linear" x1="36.5" x2="36.5" y1="0" y2="65" gradientUnits="userSpaceOnUse"><stop stop-color="#F7CD3D"/><stop offset="1" stop-color="#1E7BAC"/></linearGradient><filter id="filter0_d" width="73" height="73" x="0" y="0" color-interpolation-filters="sRGB" filterUnits="userSpaceOnUse"><feFlood flood-opacity="0" result="BackgroundImageFix"/><feColorMatrix in="SourceAlpha" values="0 0 0 0 0 0 0 0 0 0 0 0 0 0 0 0 0 0 127 0"/><feOffset dy="4"/><feGaussianBlur stdDeviation="2"/><feColorMatrix values="0 0 0 0 0 0 0 0 0 0 0 0 0 0 0 0 0 0 0.25 0"/><feBlend in2="BackgroundImageFix" result="effect1_dropShadow"/><feBlend in="SourceGraphic" in2="effect1_dropShadow" result="shape"/></filter></defs></svg>