<svg width="50" height="50" viewBox="0 0 50 50" fill="none" xmlns="http://www.w3.org/2000/svg">
<path d="M50 25C50 38.8071 38.8071 50 25 50C11.1929 50 0 38.8071 0 25C0 11.1929 11.1929 0 25 0C38.8071 0 50 11.1929 50 25Z" fill="white"/>
<path fill-rule="evenodd" clip-rule="evenodd" d="M25 48C37.7025 48 48 37.7025 48 25C48 12.2975 37.7025 2 25 2C12.2975 2 2 12.2975 2 25C2 37.7025 12.2975 48 25 48ZM25 50C38.8071 50 50 38.8071 50 25C50 11.1929 38.8071 0 25 0C11.1929 0 0 11.1929 0 25C0 38.8071 11.1929 50 25 50Z" fill="url(#paint0_linear)"/>
<path d="M11.1041 27.0499C10.9041 27.0499 10.7041 26.9499 10.6041 26.7499C10.4041 26.4499 10.5041 26.0499 10.8041 25.8499C12.1041 24.9499 15.1041 22.1499 16.6041 18.5499C17.3041 16.8499 17.8041 15.5499 18.1041 14.5499C18.7041 12.7499 19.1041 11.4499 20.7041 11.6499C21.1041 11.6499 21.4041 11.8499 21.7041 12.2499C22.7041 13.5499 22.0041 17.1499 21.8041 17.8499C21.7041 18.2499 21.4041 18.4499 21.0041 18.3499C20.6041 18.2499 20.4041 17.9499 20.5041 17.5499C20.9041 15.5499 21.0041 13.5499 20.6041 13.0499C20.1041 12.9499 20.0041 13.0499 19.3041 15.0499C19.0041 16.0499 18.5041 17.4499 17.8041 19.1499C16.1041 22.9499 12.9041 25.9499 11.5041 26.9499C11.4041 27.0499 11.2041 27.0499 11.1041 27.0499Z" fill="#D0021B"/>
<path d="M20.904 35.7499C20.904 35.7499 20.804 35.7499 20.904 35.7499C20.504 35.7499 20.204 35.3499 20.304 35.0499C20.404 34.3499 20.904 32.7499 22.404 31.4499C24.504 29.6499 26.204 30.4499 28.604 31.4499C29.604 31.9499 30.504 32.0499 31.404 31.7499C33.204 31.0499 34.9041 28.6499 36.3041 24.8499C36.5041 24.3499 36.504 24.2499 36.504 24.2499C36.404 24.2499 35.6041 24.1499 34.8041 24.0499C34.1041 23.9499 33.2041 23.8499 32.104 23.6499C29.504 23.2499 29.0041 22.3499 28.7041 21.1499C28.5041 20.5499 28.404 19.9499 27.504 19.4499C25.604 18.1499 23.504 18.3499 22.904 18.4499C22.604 18.5499 22.204 18.3499 22.104 17.9499C22.004 17.6499 22.204 17.2499 22.604 17.1499C23.604 16.8499 26.0041 16.8499 28.2041 18.2499C29.5041 19.0499 29.804 20.0499 29.904 20.7499C30.104 21.5499 30.2041 21.9499 32.2041 22.3499C33.2041 22.5499 34.1041 22.5499 34.8041 22.6499C36.3041 22.7499 37.104 22.8499 37.504 23.5499C37.804 24.0499 37.604 24.7499 37.404 25.2499C36.304 28.1499 34.5041 31.8499 31.8041 32.8499C30.6041 33.3499 29.304 33.2499 28.004 32.5499C25.704 31.5499 24.7041 31.1499 23.2041 32.3499C21.9041 33.4499 21.504 34.6499 21.504 35.0499C21.504 35.5499 21.204 35.7499 20.904 35.7499Z" fill="#D0021B"/>
<path d="M26.304 17.05C26.204 17.05 26.204 17.05 26.104 17.05C25.804 16.95 25.604 16.55 25.704 16.25C26.204 14.45 26.104 12.95 25.804 12.85C25.604 12.95 25.004 14.25 24.604 16.05C24.504 16.45 24.204 16.65 23.804 16.55C23.404 16.45 23.204 16.15 23.304 15.75C23.504 14.95 24.004 12.25 25.204 11.65C25.504 11.45 25.904 11.45 26.304 11.65C28.004 12.35 27.104 15.85 26.904 16.55C26.804 16.85 26.604 17.05 26.304 17.05Z" fill="#D0021B"/>
<path d="M37.7041 24.15C38.3116 24.15 38.8041 23.6575 38.8041 23.05C38.8041 22.4424 38.3116 21.95 37.7041 21.95C37.0966 21.95 36.6041 22.4424 36.6041 23.05C36.6041 23.6575 37.0966 24.15 37.7041 24.15Z" fill="#D0021B"/>
<path d="M32.5041 37.0499C31.7041 37.0499 31.0041 36.6499 30.6041 36.0499C30.2041 35.3499 30.2041 34.5499 30.5041 33.9499C30.7041 33.4499 30.8041 33.0499 30.6041 32.5499V32.4499L31.8041 32.0499V32.1499C32.0041 32.9499 32.0041 33.7499 31.6041 34.4499C31.4041 34.7499 31.4041 35.0499 31.6041 35.3499C32.0041 35.9499 32.9041 35.8499 33.2041 35.1499L33.4041 34.4499C33.6041 33.7499 33.5041 33.0499 33.1041 32.4499L32.3041 31.3499L33.4041 30.6499L34.2041 31.7499C34.8041 32.6499 35.0041 33.8499 34.6041 34.9499L34.4041 35.6499C34.3041 36.4499 33.5041 37.0499 32.5041 37.0499Z" fill="#D0021B"/>
<path d="M25.0041 26.55C24.9041 26.55 24.9041 26.55 25.0041 26.55C23.3041 26.55 22.0041 25.25 22.0041 23.65C22.0041 22.05 23.4041 20.75 25.0041 20.75C25.9041 20.75 26.7041 21.05 27.3041 21.55C27.6041 21.75 27.6041 22.25 27.3041 22.45C27.1041 22.75 26.6041 22.75 26.4041 22.45C26.0041 22.15 25.6041 21.95 25.0041 21.95C24.0041 21.95 23.3041 22.65 23.3041 23.55C23.3041 24.45 24.0041 25.05 25.0041 25.15C25.4041 25.15 25.8041 24.95 25.9041 24.55C26.1041 24.25 25.9041 23.95 25.9041 23.95C25.8041 23.75 25.5041 23.65 25.2041 23.65H25.1041C25.2041 23.75 25.3041 23.95 25.3041 24.15C25.3041 24.55 25.0041 24.75 24.6041 24.75C24.2041 24.75 23.8041 24.45 23.7041 23.95C23.6041 23.55 23.7041 23.15 23.9041 22.85C24.2041 22.55 24.6041 22.25 25.1041 22.25C25.9041 22.25 26.6041 22.65 26.9041 23.25C27.3041 23.85 27.3041 24.55 26.9041 25.25C26.6041 26.05 25.8041 26.55 25.0041 26.55Z" fill="#D0021B"/>
<defs>
<linearGradient id="paint0_linear" x1="25" y1="0" x2="25" y2="50" gradientUnits="userSpaceOnUse">
<stop stop-color="#F7CD3D"/>
<stop offset="1" stop-color="#D0021B"/>
</linearGradient>
</defs>
</svg>
