<svg width="26" height="25" viewBox="0 0 26 25" fill="none" xmlns="http://www.w3.org/2000/svg">
<path fill-rule="evenodd" clip-rule="evenodd" d="M12.8594 1.26957C6.65787 1.26957 1.63056 6.29049 1.63056 12.4841C1.63056 15.4915 2.81582 18.2223 4.74525 20.2362C5.06746 18.5624 5.90334 17.0184 7.15194 15.8271C7.83299 15.1774 8.61344 14.6549 9.45628 14.2745C8.55004 13.3911 7.98649 12.1572 7.98649 10.7914C7.98649 8.10356 10.1681 5.92467 12.8594 5.92467C15.5506 5.92467 17.7322 8.10356 17.7322 10.7914C17.7322 12.1572 17.1687 13.3912 16.2624 14.2745C17.1318 14.6669 17.9344 15.2102 18.6298 15.8879C19.8445 17.0717 20.657 18.5921 20.9735 20.2362C22.9029 18.2223 24.0882 15.4915 24.0882 12.4841C24.0882 6.29049 19.0609 1.26957 12.8594 1.26957ZM20.9335 22.0148C23.6408 19.7248 25.3594 16.3049 25.3594 12.4841C25.3594 5.58933 19.7629 0 12.8594 0C5.95582 0 0.359375 5.58933 0.359375 12.4841C0.359375 18.0587 4.01785 22.78 9.06771 24.3836C13.0469 25.6902 17.5639 24.9233 20.8985 22.0474C20.9106 22.0369 20.9223 22.026 20.9335 22.0148ZM19.8316 21.2755C19.7053 19.5817 18.9643 17.9877 17.7421 16.7966C16.9055 15.9814 15.8856 15.3959 14.7806 15.0805C14.5347 15.0103 14.3549 14.7997 14.3243 14.5461C14.2937 14.2925 14.4183 14.0452 14.6405 13.9187C15.7293 13.2986 16.4611 12.1299 16.4611 10.7914C16.4611 8.80472 14.8485 7.19424 12.8594 7.19424C10.8702 7.19424 9.25767 8.80472 9.25767 10.7914C9.25767 12.1299 9.98944 13.2986 11.0783 13.9187C11.3005 14.0452 11.4251 14.2925 11.3945 14.5461C11.3639 14.7997 11.184 15.0103 10.9381 15.0805C9.85715 15.3891 8.85698 15.9562 8.03 16.7452C6.79349 17.9249 6.03533 19.5135 5.89249 21.2084C6.96431 22.0932 8.16559 22.7458 9.42778 23.1653C10.5094 23.5117 11.6625 23.6987 12.8594 23.6987C15.4938 23.6987 17.9163 22.7926 19.8316 21.2755Z" fill="#434343"/>
</svg>
