<svg xmlns="http://www.w3.org/2000/svg" viewBox="0 0 100 25"><g fill="none" fill-rule="evenodd"><path fill="#E37810" d="M6 .829h94l-4.88 6.864a7.995 7.995 0 0 0 0 9.272l4.88 6.864H6a5 5 0 0 1-5-5v-13a5 5 0 0 1 5-5z"/><path fill="#FFF" d="M9.171 15.174H8v-.925h1.31l.365-2.497H8.378v-.924h1.436l.365-2.378h.957l-.365 2.378h1.927l.365-2.378h.957l-.365 2.378h1.171v.924h-1.31l-.365 2.497h1.298v.925h-1.436l-.365 2.43h-.958l.366-2.43h-1.927l-.366 2.43h-.957l.365-2.43zm1.096-.925h1.927l.365-2.497h-1.927l-.365 2.497zm8.565 3.355V9.758l-2.431.99V9.692L18.92 8.45h1.171v9.154h-1.26zm8.01 0V8.45h2.884c.815 0 1.47.22 1.965.66.495.44.743 1.026.743 1.757 0 .458-.1.852-.302 1.183-.202.33-.491.583-.87.76.538.166.95.442 1.235.825.285.383.428.856.428 1.42 0 .775-.26 1.393-.78 1.856-.521.462-1.218.693-2.091.693h-3.212zm1.222-4.174v3.144h1.964c1.067 0 1.6-.524 1.6-1.572 0-.52-.136-.911-.41-1.176-.272-.264-.677-.396-1.215-.396h-1.94zm0-3.95v2.946H29.6c1.041 0 1.562-.489 1.562-1.466 0-.485-.128-.852-.384-1.103s-.636-.377-1.14-.377h-1.574zm7.254 5.06c.017.757.195 1.316.536 1.677.34.361.866.542 1.58.542.664 0 1.34-.137 2.028-.41v.938c-.605.344-1.343.516-2.217.516-1.033 0-1.813-.3-2.342-.899-.53-.599-.794-1.484-.794-2.655 0-1.118.265-1.988.794-2.609.529-.62 1.268-.931 2.216-.931.798 0 1.411.235 1.84.706.427.472.642 1.139.642 2.002 0 .414-.034.788-.101 1.123h-4.182zm1.738-2.84c-.529 0-.94.165-1.234.495-.294.33-.462.821-.504 1.473h3.136a3.08 3.08 0 0 0 .013-.344c0-.537-.12-.942-.359-1.215-.24-.273-.59-.41-1.052-.41zm7.04 4.108c0-.212-.064-.383-.194-.515s-.368-.265-.712-.397l-1.07-.422c-.933-.361-1.399-.978-1.399-1.85 0-.572.212-1.035.637-1.387.424-.352.98-.528 1.668-.528.664 0 1.29.14 1.877.422v.925c-.655-.22-1.26-.33-1.814-.33-.806 0-1.209.286-1.209.859 0 .229.067.41.202.541.134.132.399.278.793.436l.983.396c.495.203.852.443 1.07.72.218.278.328.637.328 1.077 0 .625-.223 1.123-.668 1.493-.445.37-1.037.555-1.776.555-.831 0-1.553-.168-2.166-.502v-.925c.79.273 1.52.41 2.191.41.412 0 .725-.084.939-.252.214-.167.32-.41.32-.726zm6.034 1.638c-.412.167-.878.25-1.398.25-1.193 0-1.789-.624-1.789-1.875v-3.884h-1.158v-.845l1.196-.159.189-1.902h1.02v1.876h1.89v1.03h-1.89v3.818c0 .326.07.555.208.687.139.132.376.198.712.198a4.01 4.01 0 0 0 1.02-.132v.938zm6.297-4.188c-.688-.273-1.188-.603-1.499-.99-.31-.388-.466-.877-.466-1.467 0-.493.118-.931.353-1.314s.573-.685 1.014-.905c.44-.22.96-.33 1.555-.33.756 0 1.533.158 2.33.475v1.07c-.848-.273-1.595-.41-2.241-.41-.546 0-.968.117-1.266.35-.298.234-.447.567-.447.998 0 .352.1.632.302.839.202.207.575.416 1.12.627l1.147.45c.68.264 1.17.583 1.467.957.298.375.448.857.448 1.447 0 .845-.288 1.519-.863 2.021s-1.35.753-2.324.753c-.966 0-1.805-.18-2.519-.542v-1.056c.882.308 1.713.462 2.494.462.596 0 1.064-.137 1.404-.41.34-.273.51-.643.51-1.11 0-.325-.098-.596-.296-.812-.197-.215-.53-.42-1.001-.614l-1.222-.489zm6.298 1.282c.016.757.195 1.316.535 1.677s.867.542 1.58.542c.664 0 1.34-.137 2.028-.41v.938c-.604.344-1.343.516-2.216.516-1.033 0-1.814-.3-2.343-.899-.529-.599-.793-1.484-.793-2.655 0-1.118.264-1.988.793-2.609.529-.62 1.268-.931 2.217-.931.797 0 1.41.235 1.839.706.428.472.642 1.139.642 2.002 0 .414-.034.788-.1 1.123h-4.182zm1.738-2.84c-.53 0-.94.165-1.235.495-.293.33-.461.821-.503 1.473h3.136c.008-.07.012-.185.012-.344 0-.537-.12-.942-.359-1.215-.239-.273-.59-.41-1.051-.41zm6.322 5.812a2.514 2.514 0 0 1-.906.158c-.445 0-.786-.134-1.02-.402-.236-.27-.353-.654-.353-1.156V7.829h1.247v8.203c0 .203.04.35.12.443.079.092.211.139.396.139.168 0 .34-.014.516-.04v.938zm3.59 0a2.52 2.52 0 0 1-.907.158c-.445 0-.785-.134-1.02-.402-.235-.27-.353-.654-.353-1.156V7.829h1.247v8.203c0 .203.04.35.12.443.08.092.212.139.397.139.167 0 .34-.014.516-.04v.938zm2.191-2.972c.017.757.196 1.316.536 1.677s.867.542 1.58.542c.664 0 1.34-.137 2.028-.41v.938c-.604.344-1.343.516-2.217.516-1.032 0-1.813-.3-2.342-.899-.53-.599-.794-1.484-.794-2.655 0-1.118.265-1.988.794-2.609.529-.62 1.268-.931 2.217-.931.797 0 1.41.235 1.838.706.429.472.643 1.139.643 2.002 0 .414-.034.788-.101 1.123h-4.182zm1.739-2.84c-.53 0-.94.165-1.235.495-.294.33-.462.821-.504 1.473h3.137c.008-.07.012-.185.012-.344 0-.537-.12-.942-.359-1.215-.24-.273-.59-.41-1.051-.41zm4.042 5.904v-6.697h1.046l.138.99a4.3 4.3 0 0 1 .655-.614 2.33 2.33 0 0 1 .617-.323c.21-.07.437-.106.68-.106.16 0 .332.013.517.04v1.189a5.239 5.239 0 0 0-.68-.053c-.672 0-1.247.211-1.726.634v4.94h-1.247z"/></g></svg>