<svg xmlns="http://www.w3.org/2000/svg" viewBox="0 0 32 33"><path fill="#FFF" fill-rule="evenodd" d="M32 33c-.096-.36-.443-8.65-6.929-15.283-1.514-1.569-3.666-3.51-5.709-3.701-.71-.072-1.221.105-1.333.464-.41 1.371 3.635 3.384 5.637 4.995C30.33 24.775 31.884 32.717 32 33zM14 11s-.934-8.613-1.137-9.54c-.202-.927-.768-1.573-1.262-1.443-.495.13-.73.985-.529 1.912C11.275 2.856 14 11 14 11zm2 0s5.15-6.311 5.629-7.064c.479-.753.496-1.58.04-1.85-.454-.27-1.212.12-1.69.872C19.5 3.711 16 11 16 11zm0 2s8.613-.934 9.54-1.137c.926-.202 1.573-.768 1.444-1.262-.13-.494-.986-.73-1.914-.529C24.144 10.275 16 13 16 13zm-1 1s.934 8.613 1.137 9.54c.202.927.767 1.573 1.262 1.444.495-.13.73-.987.529-1.913C17.725 22.143 15 14 15 14zm-1 1s-5.15 6.311-5.628 7.064c-.48.752-.497 1.58-.042 1.85.455.271 1.212-.121 1.691-.873C10.5 22.29 14 15 14 15zm-1-1s-8.613.934-9.54 1.137c-.927.202-1.573.767-1.443 1.261.13.495.985.732 1.912.53C4.857 16.725 13 14 13 14zm-1-2S5.689 6.85 4.936 6.372c-.752-.48-1.58-.497-1.85-.042s.12 1.212.872 1.692C4.711 8.5 12 12 12 12zm7-9.448a1.5 1.5 0 1 0-3-.103 1.5 1.5 0 0 0 3 .104zm9 12.001c.018-.548-.263-1.063-.735-1.343s-1.058-.28-1.53 0A1.5 1.5 0 1 0 28 14.553zm4-.552A1 1 0 1 0 31 15a1 1 0 0 0 1-1zM7.348 4.539a1.502 1.502 0 0 0 .915 2.442A1.501 1.501 0 0 0 9.45 4.339a1.501 1.501 0 0 0-2.102.2zM2.226.366a1.002 1.002 0 0 0 .612 1.621.999.999 0 0 0 .795-1.76 1 1 0 0 0-1.407.14zM15 27a1 1 0 1 0-2 0 1 1 0 0 0 2 0zm-7-8.482a1.48 1.48 0 0 0-.74-1.314 1.52 1.52 0 0 0-1.521 0c-.47.274-.752.777-.739 1.315A1.49 1.49 0 0 0 6.5 20c.829 0 1.5-.664 1.5-1.482zM2 21a1 1 0 1 0-2 0 1 1 0 0 0 2 0z"/></svg>