<svg xmlns="http://www.w3.org/2000/svg" xmlns:xlink="http://www.w3.org/1999/xlink" viewBox="0 0 203 39"><defs><filter id="a" width="125.9%" height="122.5%" x="-13%" y="-15.3%" filterUnits="objectBoundingBox"><feMorphology in="SourceAlpha" operator="dilate" radius=".75" result="shadowSpreadOuter1"/><feOffset in="shadowSpreadOuter1" result="shadowOffsetOuter1"/><feGaussianBlur in="shadowOffsetOuter1" result="shadowBlurOuter1" stdDeviation="2"/><feComposite in="shadowBlurOuter1" in2="SourceAlpha" operator="out" result="shadowBlurOuter1"/><feColorMatrix in="shadowBlurOuter1" values="0 0 0 0 1 0 0 0 0 1 0 0 0 0 1 0 0 0 0.5 0"/></filter><filter id="d" width="125.9%" height="122.5%" x="-13%" y="-15.3%" filterUnits="objectBoundingBox"><feMorphology in="SourceAlpha" operator="dilate" radius=".75" result="shadowSpreadOuter1"/><feOffset in="shadowSpreadOuter1" result="shadowOffsetOuter1"/><feGaussianBlur in="shadowOffsetOuter1" result="shadowBlurOuter1" stdDeviation="2"/><feComposite in="shadowBlurOuter1" in2="SourceAlpha" operator="out" result="shadowBlurOuter1"/><feColorMatrix in="shadowBlurOuter1" values="0 0 0 0 1 0 0 0 0 1 0 0 0 0 1 0 0 0 0.5 0"/></filter><filter id="f" width="125.9%" height="122.5%" x="-13%" y="-15.3%" filterUnits="objectBoundingBox"><feMorphology in="SourceAlpha" operator="dilate" radius=".75" result="shadowSpreadOuter1"/><feOffset in="shadowSpreadOuter1" result="shadowOffsetOuter1"/><feGaussianBlur in="shadowOffsetOuter1" result="shadowBlurOuter1" stdDeviation="2"/><feComposite in="shadowBlurOuter1" in2="SourceAlpha" operator="out" result="shadowBlurOuter1"/><feColorMatrix in="shadowBlurOuter1" values="0 0 0 0 1 0 0 0 0 1 0 0 0 0 1 0 0 0 0.5 0"/></filter><filter id="h" width="125.9%" height="122.5%" x="-13%" y="-15.3%" filterUnits="objectBoundingBox"><feMorphology in="SourceAlpha" operator="dilate" radius=".75" result="shadowSpreadOuter1"/><feOffset in="shadowSpreadOuter1" result="shadowOffsetOuter1"/><feGaussianBlur in="shadowOffsetOuter1" result="shadowBlurOuter1" stdDeviation="2"/><feComposite in="shadowBlurOuter1" in2="SourceAlpha" operator="out" result="shadowBlurOuter1"/><feColorMatrix in="shadowBlurOuter1" values="0 0 0 0 1 0 0 0 0 1 0 0 0 0 1 0 0 0 0.5 0"/></filter><filter id="j" width="125.9%" height="122.5%" x="-13%" y="-15.3%" filterUnits="objectBoundingBox"><feMorphology in="SourceAlpha" operator="dilate" radius=".75" result="shadowSpreadOuter1"/><feOffset in="shadowSpreadOuter1" result="shadowOffsetOuter1"/><feGaussianBlur in="shadowOffsetOuter1" result="shadowBlurOuter1" stdDeviation="2"/><feComposite in="shadowBlurOuter1" in2="SourceAlpha" operator="out" result="shadowBlurOuter1"/><feColorMatrix in="shadowBlurOuter1" values="0 0 0 0 1 0 0 0 0 1 0 0 0 0 1 0 0 0 0.5 0"/></filter><path id="b" d="M17.158 24.73l-8.06 4.814a1 1 0 0 1-1.486-1.087l2.127-9.069L2.648 13.3a.999.999 0 0 1 .567-1.755l9.358-.797 3.665-8.591a1.002 1.002 0 0 1 1.84 0l3.665 8.59 9.359.798a1 1 0 0 1 .566 1.755l-7.09 6.09 2.127 9.068a1 1 0 0 1-1.486 1.087l-8.06-4.815z"/><path id="e" d="M98.158 24.73l-8.06 4.814a1 1 0 0 1-1.486-1.087l2.127-9.069-7.091-6.089a.999.999 0 0 1 .567-1.755l9.358-.797 3.665-8.591a1.002 1.002 0 0 1 1.84 0l3.665 8.59 9.359.798a1 1 0 0 1 .566 1.755l-7.09 6.09 2.127 9.068a1 1 0 0 1-1.486 1.087l-8.06-4.815z"/><path id="g" d="M58.158 24.73l-8.06 4.814a1 1 0 0 1-1.486-1.087l2.127-9.069-7.091-6.089a.999.999 0 0 1 .567-1.755l9.358-.797 3.665-8.591a1.002 1.002 0 0 1 1.84 0l3.665 8.59 9.359.798a1 1 0 0 1 .566 1.755l-7.09 6.09 2.127 9.068a1 1 0 0 1-1.486 1.087l-8.06-4.815z"/><path id="i" d="M139.158 24.73l-8.06 4.814a1 1 0 0 1-1.486-1.087l2.127-9.069-7.091-6.089a.999.999 0 0 1 .567-1.755l9.358-.797 3.665-8.591a1.002 1.002 0 0 1 1.84 0l3.665 8.59 9.359.798a1 1 0 0 1 .566 1.755l-7.09 6.09 2.127 9.068a1 1 0 0 1-1.486 1.087l-8.06-4.815z"/><path id="k" d="M180.158 24.73l-8.06 4.814a1 1 0 0 1-1.486-1.087l2.127-9.069-7.091-6.089a.999.999 0 0 1 .567-1.755l9.358-.797 3.665-8.591a1.002 1.002 0 0 1 1.84 0l3.665 8.59 9.359.798a1 1 0 0 1 .566 1.755l-7.09 6.09 2.127 9.068a1 1 0 0 1-1.486 1.087l-8.06-4.815z"/><linearGradient id="c" x1="162.374%" x2="162.374%" y1="100%" y2="0%"><stop offset="0%" stop-color="#E6A116"/><stop offset="100%" stop-color="#F7BE09"/></linearGradient><linearGradient id="l" x1="50%" x2="47.422%" y1="50%" y2="50%"><stop offset="0%" stop-color="#FFF"/><stop offset="100%" stop-color="#FFF" stop-opacity="0"/></linearGradient></defs><g fill="none" fill-rule="evenodd"><g transform="translate(3 4)"><use fill="#000" filter="url(#a)" xlink:href="#b"/><use fill="url(#c)" stroke="#A97718" stroke-width="1.5" xlink:href="#b"/></g><g transform="translate(3 4)"><use fill="#000" filter="url(#d)" xlink:href="#e"/><use fill="url(#c)" stroke="#A97718" stroke-width="1.5" xlink:href="#e"/></g><g transform="translate(3 4)"><use fill="#000" filter="url(#f)" xlink:href="#g"/><use fill="url(#c)" stroke="#A97718" stroke-width="1.5" xlink:href="#g"/></g><g transform="translate(3 4)"><use fill="#000" filter="url(#h)" xlink:href="#i"/><use fill="url(#c)" stroke="#A97718" stroke-width="1.5" xlink:href="#i"/></g><g transform="translate(3 4)"><use fill="#000" filter="url(#j)" xlink:href="#k"/><use fill="url(#c)" xlink:href="#k"/><use fill="url(#l)" stroke="#A97718" stroke-width="1.5" xlink:href="#k"/></g></g></svg>