<svg xmlns="http://www.w3.org/2000/svg" fill="none" viewBox="0 0 324 104"><path fill="#434343" fill-rule="evenodd" d="M58.156 0H0v104h12.318V12.9h34.658c6.174 0 11.18-5.032 11.18-11.237V0zm124.071 103.381h12.419V.328h-12.419v103.053zm18.97-17.291c3.616 3.39 10.032 6.404 15.292 6.404 11.471 0 19.116-7.683 19.116-20.495 0-12.165-5.582-21.073-18.479-21.133-5.734-.026-12.107 3.201-15.929 7.046l.026-11.165c4.617-3.655 10.169-5.486 16.381-5.808 17.98-.926 30.108 13.128 30.108 31.06 0 17.933-14.536 31.382-30.108 31.382-6.109 0-11.764-2.15-16.381-5.805l-.026-11.486zM324 70.456c0 15.147-11.136 29.634-28.825 31.61v-9.88c9.964-2.687 17.002-10.967 17.002-21.722 0-12.096-7.174-21.735-20.28-21.735-10.481 0-20.636 8.558-20.636 21.447 0 11.481 6.225 19.38 16.708 22.01v9.88c-16.726-1.276-28.828-15.073-28.828-31.89 0-17.657 14.52-31.958 32.431-31.968C310.897 38.193 324 51.645 324 70.456zM166.757 48.751l3.624-9.657c-7.676-3.214-19.424-4.952-28.273 1.398-8.435 6.057-10.744 13.976-10.744 24.316v38.575h12.008v-37.48c0-1.269.16-3.879.354-5.305.911-6.763 4.189-10.316 8.496-12.48 5.056-2.542 12.008-.635 14.535.633zm-147.226-.023h29.65v-2.337c0-5.157-4.157-9.333-9.285-9.333H19.531v11.67zm42.302 28.554V40.217h11.593s-.065 27.812.428 37.065c.426 8.031 6.223 15.442 15.07 15.442 8.847 0 14.034-6.794 14.339-15.136.343-9.333.304-37.371.304-37.371h11.596v37.065c0 14.908-11.167 26.747-26.848 26.56-14.727-.171-26.482-11.652-26.482-26.56z" clip-rule="evenodd"/></svg>