<svg xmlns="http://www.w3.org/2000/svg" fill="none" viewBox="0 0 50 51"><g clip-path="url(#clip0)"><circle cx="25" cy="25.963" r="25" fill="#F7CD3D"/><path fill="#434343" d="M11.814 37.592L6.686 24.901l12.33 5.565-3.337-8.258 1.793-.725 5.094 12.607-12.32-5.542 3.361 8.32-1.793.724zM30.46 26.173l-5.372 2.17c.295.598.693 1.007 1.194 1.228.499.216 1.026.212 1.58-.011.43-.174.746-.421.945-.74.194-.318.357-.825.487-1.522l1.792.225c-.07.476-.176.903-.315 1.282-.142.374-.32.708-.535 1.004-.216.29-.475.544-.775.76-.3.218-.646.405-1.036.563-1.118.451-2.161.455-3.129.01-.97-.45-1.696-1.272-2.179-2.468-.479-1.185-.538-2.277-.178-3.276.37-.991 1.101-1.707 2.194-2.149 1.103-.445 2.118-.446 3.043-.003.918.441 1.627 1.28 2.127 2.516l.157.411zm-2.35-.697c-.615-.827-1.384-1.053-2.307-.68-.21.085-.395.198-.552.34-.16.136-.292.297-.396.482a1.864 1.864 0 0 0-.211.586c-.04.213-.044.439-.013.677l3.479-1.405zm3.264-4.507l3.692 3.487.11-5.82 4.138 4.103.21-5.063 1.94-.783-.67 9.644-4.035-3.983-.159 5.678-7.173-6.476 1.947-.787z"/><path fill="#F7CD3D" d="M48.99 47.407l-10.2-1.995 6.827-7.835 3.372 9.83z"/></g><defs><clipPath id="clip0"><path fill="#fff" d="M0 0h50v51H0z"/></clipPath></defs></svg>