<svg width="16" height="33" viewBox="0 0 16 33" fill="none" xmlns="http://www.w3.org/2000/svg">
<path d="M12.4789 0.437892C12.1685 -0.0188829 11.5465 -0.137507 11.0897 0.172936C10.633 0.48338 10.5143 1.10533 10.8248 1.56211L12.4789 0.437892ZM0.0187599 29.8072C-0.0877149 30.3491 0.265286 30.8748 0.80721 30.9812L9.63837 32.7163C10.1803 32.8228 10.7059 32.4698 10.8124 31.9279C10.9189 31.386 10.5659 30.8603 10.024 30.7539L2.17403 29.2115L3.71635 21.3616C3.82282 20.8197 3.46982 20.2941 2.9279 20.1876C2.38597 20.0811 1.86034 20.4341 1.75387 20.976L0.0187599 29.8072ZM11.6518 1C10.8248 1.56211 10.8244 1.56161 10.8241 1.56116C10.8241 1.56109 10.8238 1.56069 10.8237 1.56055C10.8235 1.56025 10.8235 1.56018 10.8236 1.56033C10.8238 1.56063 10.8246 1.56183 10.826 1.56391C10.8287 1.56807 10.8338 1.57578 10.841 1.58696C10.8555 1.60932 10.8786 1.64558 10.9091 1.69525C10.9702 1.79461 11.0607 1.94742 11.1708 2.14981C11.3912 2.5549 11.6891 3.15659 11.9866 3.92399C12.5825 5.46088 13.1704 7.64573 13.1434 10.2396C13.0902 15.3596 10.6371 22.3234 0.442481 29.1698L1.55752 30.8302C12.2094 23.6766 15.0822 16.1404 15.1433 10.2604C15.1735 7.35427 14.5156 4.91412 13.8514 3.20101C13.5189 2.34341 13.1832 1.66385 12.9276 1.19394C12.7996 0.958827 12.6915 0.775706 12.6133 0.648504C12.5743 0.584888 12.5427 0.535209 12.5199 0.499956C12.5084 0.482328 12.4992 0.468302 12.4923 0.457939C12.4889 0.452758 12.486 0.448491 12.4838 0.445148C12.4827 0.443476 12.4817 0.442035 12.4809 0.440825C12.4805 0.440221 12.48 0.439486 12.4798 0.439184C12.4793 0.438509 12.4789 0.437892 11.6518 1Z" fill="#F7CD3D"/>
</svg>
