<svg width="15" height="31" viewBox="0 0 15 31" fill="none" xmlns="http://www.w3.org/2000/svg">
<path d="M14.9977 0.986489C14.9902 0.434255 14.5365 -0.00737071 13.9843 9.12547e-05C13.432 0.00755328 12.9904 0.461277 12.9979 1.01351L14.9977 0.986489ZM2.02217 30.2094C2.13781 30.7494 2.66934 31.0935 3.20938 30.9778L12.0099 29.0934C12.5499 28.9777 12.894 28.4462 12.7783 27.9062C12.6627 27.3661 12.1312 27.0221 11.5911 27.1377L3.76845 28.8128L2.09339 20.9901C1.97775 20.4501 1.44621 20.106 0.906172 20.2217C0.366129 20.3373 0.0220823 20.8688 0.137721 21.4089L2.02217 30.2094ZM13.9978 1C12.9979 1.01351 12.9979 1.01308 12.9978 1.0127C12.9978 1.01263 12.9978 1.01229 12.9978 1.01216C12.9978 1.01188 12.9978 1.01179 12.9978 1.01187C12.9978 1.01204 12.9978 1.01292 12.9979 1.01451C12.9979 1.01769 12.9979 1.0237 12.9979 1.03253C12.9979 1.05018 12.9977 1.07909 12.997 1.11906C12.9956 1.199 12.9922 1.32319 12.984 1.49009C12.9676 1.8239 12.932 2.32859 12.855 2.99195C12.7008 4.3186 12.3807 6.28025 11.7162 8.77933C10.3876 13.776 7.68023 20.9289 2.16051 29.4566L3.83949 30.5434C9.47649 21.8345 12.268 14.4874 13.6491 9.29326C14.3394 6.69691 14.6769 4.64041 14.8416 3.22277C14.9239 2.51399 14.9631 1.965 14.9816 1.58816C14.9909 1.39974 14.9949 1.25437 14.9967 1.15357C14.9976 1.10318 14.9978 1.06393 14.9979 1.03601C14.9979 1.02206 14.9979 1.01094 14.9978 1.00268C14.9978 0.998544 14.9978 0.995128 14.9977 0.992429C14.9977 0.99108 14.9977 0.98991 14.9977 0.98892C14.9977 0.988425 14.9977 0.987817 14.9977 0.987569C14.9977 0.987007 14.9977 0.986489 13.9978 1Z" fill="#F7CD3D"/>
</svg>
