<svg width="26" height="27" viewBox="0 0 26 27" fill="none" xmlns="http://www.w3.org/2000/svg">
<path d="M18.4543 26H7.90293C7.02045 26 6.14691 25.8252 5.33391 25.4859C4.52091 25.1465 3.78493 24.6495 3.16944 24.0243C2.55396 23.399 2.07145 22.6581 1.75041 21.8454C1.42937 21.0327 1.27632 20.1646 1.30029 19.2924L1.56476 10.2838C1.56537 9.14783 2.02205 8.05859 2.83447 7.25536C3.64689 6.45212 4.74859 6.0006 5.89753 6H20.4597C21.6086 6.0006 22.7103 6.45212 23.5227 7.25536C24.3352 8.05859 24.7918 9.14783 24.7924 10.2838L25.0569 19.2924C25.0809 20.1646 24.9278 21.0327 24.6068 21.8454C24.2858 22.6581 23.8033 23.399 23.1878 24.0243C22.5723 24.6495 21.8363 25.1465 21.0233 25.4859C20.2103 25.8252 19.3368 26 18.4543 26Z" stroke="#434343" stroke-width="1.25" stroke-miterlimit="10"/>
<path d="M17.8593 10.2856C17.8593 11.4223 17.3662 12.5124 16.4885 13.3161C15.6108 14.1198 14.4203 14.5714 13.179 14.5714C11.9377 14.5714 10.7473 14.1198 9.86955 13.3161C8.99182 12.5124 8.49872 11.4223 8.49872 10.2856" stroke="#434343" stroke-width="1.25" stroke-miterlimit="10"/>
<path d="M8.49872 6C8.49872 4.67392 8.99182 3.40215 9.86955 2.46447C10.7473 1.52678 11.9377 1 13.179 1C14.4203 1 15.6108 1.52678 16.4885 2.46447C17.3662 3.40215 17.8593 4.67392 17.8593 6" stroke="#434343" stroke-width="1.25" stroke-miterlimit="10"/>
</svg>
