<svg xmlns="http://www.w3.org/2000/svg" fill="none" viewBox="0 0 120 131"><circle cx="60" cy="70.8" r="60" fill="#F7CD3D"/><path fill="#434343" d="M6.568 18.502l6.05-5.434c.308-.279.616-.594.924-.946.308-.352.462-.763.462-1.232 0-.528-.19-.939-.572-1.232a2.07 2.07 0 0 0-1.342-.462c-.616 0-1.1.19-1.452.572-.337.381-.528.85-.572 1.408l-3.3-.242c.044-.807.213-1.503.506-2.09.294-.601.682-1.1 1.166-1.496a4.772 4.772 0 0 1 1.694-.88 7.162 7.162 0 0 1 2.134-.308c.704 0 1.364.103 1.98.308.616.19 1.152.484 1.606.88.455.381.807.865 1.056 1.452.264.587.396 1.269.396 2.046 0 .499-.051.953-.154 1.364-.102.396-.25.763-.44 1.1-.176.323-.388.623-.638.902s-.52.55-.814.814l-4.73 4.07h6.908V22H6.568v-3.498z"/><rect width="72" height="18" x="18" y="36" stroke="#434343" stroke-width="2" rx="9"/><rect width="72" height="18" x="33.6" y="60" stroke="#434343" stroke-width="2" rx="9"/><rect width="72" height="18" x="18" y="84" stroke="#434343" stroke-width="2" rx="9"/><path fill="#434343" d="M26.4 45c0-.413.076-.804.228-1.174.152-.37.359-.685.62-.946.282-.282.608-.5.978-.652.37-.152.761-.228 1.174-.228.413 0 .804.076 1.174.228.37.152.685.37.946.652.282.261.5.576.652.946.152.37.228.761.228 1.174 0 .413-.076.804-.228 1.174-.152.37-.37.696-.652.978a2.853 2.853 0 0 1-.946.62c-.37.152-.76.228-1.174.228-.413 0-.804-.076-1.174-.228a3.25 3.25 0 0 1-.978-.62 3.237 3.237 0 0 1-.62-.978A3.058 3.058 0 0 1 26.4 45zm9.649 0c0-.413.076-.804.228-1.174.152-.37.359-.685.62-.946.282-.282.608-.5.978-.652.37-.152.76-.228 1.174-.228.413 0 .804.076 1.174.228.37.152.685.37.946.652.282.261.5.576.652.946.152.37.228.761.228 1.174 0 .413-.076.804-.228 1.174-.152.37-.37.696-.652.978a2.863 2.863 0 0 1-.946.62c-.37.152-.761.228-1.174.228-.413 0-.804-.076-1.174-.228a3.237 3.237 0 0 1-.978-.62 3.237 3.237 0 0 1-.62-.978A3.058 3.058 0 0 1 36.049 45zm9.649 0c0-.413.076-.804.228-1.174.152-.37.359-.685.62-.946.282-.282.608-.5.978-.652.37-.152.76-.228 1.174-.228.413 0 .804.076 1.174.228.37.152.684.37.945.652.283.261.5.576.652.946.153.37.229.761.229 1.174 0 .413-.076.804-.229 1.174-.152.37-.37.696-.652.978-.26.261-.576.468-.945.62-.37.152-.761.228-1.174.228-.413 0-.805-.076-1.174-.228a3.237 3.237 0 0 1-.978-.62 3.237 3.237 0 0 1-.62-.978A3.058 3.058 0 0 1 45.698 45zm9.649 0c0-.413.076-.804.228-1.174.152-.37.359-.685.62-.946.282-.282.608-.5.978-.652.37-.152.76-.228 1.174-.228.413 0 .804.076 1.173.228.37.152.685.37.946.652.283.261.5.576.652.946.152.37.229.761.229 1.174 0 .413-.077.804-.229 1.174-.152.37-.37.696-.652.978-.26.261-.576.468-.946.62a3.05 3.05 0 0 1-1.173.228c-.413 0-.805-.076-1.174-.228a3.254 3.254 0 0 1-.979-.62 3.276 3.276 0 0 1-.62-.978A3.076 3.076 0 0 1 55.347 45zm9.649 0c0-.413.076-.804.228-1.174.152-.37.358-.685.62-.946.282-.282.608-.5.978-.652.37-.152.76-.228 1.174-.228.413 0 .804.076 1.173.228.37.152.685.37.946.652.283.261.5.576.652.946.152.37.229.761.229 1.174 0 .413-.077.804-.229 1.174-.152.37-.37.696-.652.978-.26.261-.576.468-.946.62-.37.152-.76.228-1.173.228a3.05 3.05 0 0 1-1.174-.228 3.254 3.254 0 0 1-.979-.62 3.276 3.276 0 0 1-.62-.978A3.076 3.076 0 0 1 64.996 45zm9.648 0c0-.413.076-.804.229-1.174.152-.37.358-.685.62-.946.282-.282.608-.5.977-.652.37-.152.761-.228 1.174-.228.413 0 .805.076 1.174.228.37.152.685.37.946.652.282.261.5.576.652.946.152.37.228.761.228 1.174 0 .413-.076.804-.228 1.174-.152.37-.37.696-.652.978a2.853 2.853 0 0 1-.946.62c-.37.152-.76.228-1.174.228-.413 0-.804-.076-1.174-.228a3.25 3.25 0 0 1-.978-.62 3.276 3.276 0 0 1-.62-.978A3.058 3.058 0 0 1 74.644 45z"/><path stroke="#F7CD3D" d="M26.4 45c0-.413.076-.804.228-1.174.152-.37.359-.685.62-.946.282-.282.608-.5.978-.652.37-.152.761-.228 1.174-.228.413 0 .804.076 1.174.228.37.152.685.37.946.652.282.261.5.576.652.946.152.37.228.761.228 1.174 0 .413-.076.804-.228 1.174-.152.37-.37.696-.652.978a2.853 2.853 0 0 1-.946.62c-.37.152-.76.228-1.174.228-.413 0-.804-.076-1.174-.228a3.25 3.25 0 0 1-.978-.62 3.237 3.237 0 0 1-.62-.978A3.058 3.058 0 0 1 26.4 45zm9.649 0c0-.413.076-.804.228-1.174.152-.37.359-.685.62-.946.282-.282.608-.5.978-.652.37-.152.76-.228 1.174-.228.413 0 .804.076 1.174.228.37.152.685.37.946.652.282.261.5.576.652.946.152.37.228.761.228 1.174 0 .413-.076.804-.228 1.174-.152.37-.37.696-.652.978a2.863 2.863 0 0 1-.946.62c-.37.152-.761.228-1.174.228-.413 0-.804-.076-1.174-.228a3.237 3.237 0 0 1-.978-.62 3.237 3.237 0 0 1-.62-.978A3.058 3.058 0 0 1 36.049 45zm9.649 0c0-.413.076-.804.228-1.174.152-.37.359-.685.62-.946.282-.282.608-.5.978-.652.37-.152.76-.228 1.174-.228.413 0 .804.076 1.174.228.37.152.684.37.945.652.283.261.5.576.652.946.153.37.229.761.229 1.174 0 .413-.076.804-.229 1.174-.152.37-.37.696-.652.978-.26.261-.576.468-.945.62-.37.152-.761.228-1.174.228-.413 0-.805-.076-1.174-.228a3.237 3.237 0 0 1-.978-.62 3.237 3.237 0 0 1-.62-.978A3.058 3.058 0 0 1 45.698 45zm9.649 0c0-.413.076-.804.228-1.174.152-.37.359-.685.62-.946.282-.282.608-.5.978-.652.37-.152.76-.228 1.174-.228.413 0 .804.076 1.173.228.37.152.685.37.946.652.283.261.5.576.652.946.152.37.229.761.229 1.174 0 .413-.077.804-.229 1.174-.152.37-.37.696-.652.978-.26.261-.576.468-.946.62a3.05 3.05 0 0 1-1.173.228c-.413 0-.805-.076-1.174-.228a3.254 3.254 0 0 1-.979-.62 3.276 3.276 0 0 1-.62-.978A3.076 3.076 0 0 1 55.347 45zm9.649 0c0-.413.076-.804.228-1.174.152-.37.358-.685.62-.946.282-.282.608-.5.978-.652.37-.152.76-.228 1.174-.228.413 0 .804.076 1.173.228.37.152.685.37.946.652.283.261.5.576.652.946.152.37.229.761.229 1.174 0 .413-.077.804-.229 1.174-.152.37-.37.696-.652.978-.26.261-.576.468-.946.62-.37.152-.76.228-1.173.228a3.05 3.05 0 0 1-1.174-.228 3.254 3.254 0 0 1-.979-.62 3.276 3.276 0 0 1-.62-.978A3.076 3.076 0 0 1 64.996 45zm9.648 0c0-.413.076-.804.229-1.174.152-.37.358-.685.62-.946.282-.282.608-.5.977-.652.37-.152.761-.228 1.174-.228.413 0 .805.076 1.174.228.37.152.685.37.946.652.282.261.5.576.652.946.152.37.228.761.228 1.174 0 .413-.076.804-.228 1.174-.152.37-.37.696-.652.978a2.853 2.853 0 0 1-.946.62c-.37.152-.76.228-1.174.228-.413 0-.804-.076-1.174-.228a3.25 3.25 0 0 1-.978-.62 3.276 3.276 0 0 1-.62-.978A3.058 3.058 0 0 1 74.644 45z"/><path fill="#434343" d="M42 69c0-.413.076-.804.228-1.174.152-.37.359-.685.62-.946.282-.282.608-.5.978-.652.37-.152.761-.228 1.174-.228.413 0 .804.076 1.174.228.37.152.685.37.946.652.282.261.5.577.652.946.152.37.228.761.228 1.174 0 .413-.076.804-.228 1.174-.152.37-.37.696-.652.978a2.853 2.853 0 0 1-.946.62c-.37.152-.761.228-1.174.228-.413 0-.804-.076-1.174-.228a3.237 3.237 0 0 1-.978-.62 3.25 3.25 0 0 1-.62-.978A3.058 3.058 0 0 1 42 69zm9.649 0c0-.413.076-.804.228-1.174.152-.37.359-.685.62-.946.282-.282.608-.5.978-.652.37-.152.76-.228 1.174-.228.413 0 .804.076 1.174.228.37.152.685.37.945.652.283.261.5.577.653.946.152.37.228.761.228 1.174 0 .413-.076.804-.228 1.174-.153.37-.37.696-.653.978-.26.261-.576.468-.945.62-.37.152-.761.228-1.174.228-.413 0-.805-.076-1.174-.228a3.237 3.237 0 0 1-.978-.62 3.25 3.25 0 0 1-.62-.978A3.058 3.058 0 0 1 51.649 69zm9.649 0c0-.413.076-.804.228-1.174.152-.37.359-.685.62-.946.282-.282.608-.5.978-.652.37-.152.76-.228 1.174-.228.413 0 .804.076 1.174.228.37.152.684.37.945.652.283.261.5.577.653.946.152.37.228.761.228 1.174 0 .413-.076.804-.228 1.174-.153.37-.37.696-.653.978-.26.261-.576.468-.945.62-.37.152-.761.228-1.174.228-.413 0-.805-.076-1.174-.228a3.254 3.254 0 0 1-.979-.62 3.266 3.266 0 0 1-.619-.978A3.058 3.058 0 0 1 61.298 69zm9.649 0c0-.413.076-.804.228-1.174.152-.37.359-.685.62-.946.282-.282.608-.5.978-.652.37-.152.76-.228 1.174-.228.413 0 .804.076 1.174.228.37.152.684.37.945.652.283.261.5.577.652.946.153.37.229.761.229 1.174 0 .413-.076.804-.229 1.174-.152.37-.37.696-.652.978-.26.261-.576.468-.945.62-.37.152-.761.228-1.174.228-.413 0-.805-.076-1.174-.228a3.254 3.254 0 0 1-.979-.62 3.289 3.289 0 0 1-.62-.978A3.076 3.076 0 0 1 70.947 69zm9.649 0c0-.413.075-.804.228-1.174.152-.37.358-.685.62-.946.282-.282.608-.5.977-.652.37-.152.761-.228 1.174-.228.413 0 .805.076 1.174.228.37.152.685.37.946.652.283.261.5.577.652.946.152.37.228.761.228 1.174 0 .413-.076.804-.228 1.174-.152.37-.37.696-.652.978-.26.261-.576.468-.946.62-.37.152-.76.228-1.174.228-.413 0-.804-.076-1.174-.228a3.262 3.262 0 0 1-.978-.62 3.289 3.289 0 0 1-.62-.978A3.076 3.076 0 0 1 80.596 69zm9.648 0c0-.413.076-.804.229-1.174.152-.37.358-.685.62-.946.282-.282.608-.5.977-.652.37-.152.761-.228 1.174-.228.413 0 .805.076 1.174.228.37.152.685.37.946.652.282.261.5.577.652.946.152.37.228.761.228 1.174 0 .413-.076.804-.228 1.174-.152.37-.37.696-.652.978a2.853 2.853 0 0 1-.946.62c-.37.152-.76.228-1.174.228-.413 0-.804-.076-1.174-.228a3.25 3.25 0 0 1-.978-.62 3.289 3.289 0 0 1-.62-.978A3.058 3.058 0 0 1 90.244 69z"/><path stroke="#F7CD3D" d="M42 69c0-.413.076-.804.228-1.174.152-.37.359-.685.62-.946.282-.282.608-.5.978-.652.37-.152.761-.228 1.174-.228.413 0 .804.076 1.174.228.37.152.685.37.946.652.282.261.5.577.652.946.152.37.228.761.228 1.174 0 .413-.076.804-.228 1.174-.152.37-.37.696-.652.978a2.853 2.853 0 0 1-.946.62c-.37.152-.761.228-1.174.228-.413 0-.804-.076-1.174-.228a3.237 3.237 0 0 1-.978-.62 3.25 3.25 0 0 1-.62-.978A3.058 3.058 0 0 1 42 69zm9.649 0c0-.413.076-.804.228-1.174.152-.37.359-.685.62-.946.282-.282.608-.5.978-.652.37-.152.76-.228 1.174-.228.413 0 .804.076 1.174.228.37.152.685.37.945.652.283.261.5.577.653.946.152.37.228.761.228 1.174 0 .413-.076.804-.228 1.174-.153.37-.37.696-.653.978-.26.261-.576.468-.945.62-.37.152-.761.228-1.174.228-.413 0-.805-.076-1.174-.228a3.237 3.237 0 0 1-.978-.62 3.25 3.25 0 0 1-.62-.978A3.058 3.058 0 0 1 51.649 69zm9.649 0c0-.413.076-.804.228-1.174.152-.37.359-.685.62-.946.282-.282.608-.5.978-.652.37-.152.76-.228 1.174-.228.413 0 .804.076 1.174.228.37.152.684.37.945.652.283.261.5.577.653.946.152.37.228.761.228 1.174 0 .413-.076.804-.228 1.174-.153.37-.37.696-.653.978-.26.261-.576.468-.945.62-.37.152-.761.228-1.174.228-.413 0-.805-.076-1.174-.228a3.254 3.254 0 0 1-.979-.62 3.266 3.266 0 0 1-.619-.978A3.058 3.058 0 0 1 61.298 69zm9.649 0c0-.413.076-.804.228-1.174.152-.37.359-.685.62-.946.282-.282.608-.5.978-.652.37-.152.76-.228 1.174-.228.413 0 .804.076 1.174.228.37.152.684.37.945.652.283.261.5.577.652.946.153.37.229.761.229 1.174 0 .413-.076.804-.229 1.174-.152.37-.37.696-.652.978-.26.261-.576.468-.945.62-.37.152-.761.228-1.174.228-.413 0-.805-.076-1.174-.228a3.254 3.254 0 0 1-.979-.62 3.289 3.289 0 0 1-.62-.978A3.076 3.076 0 0 1 70.947 69zm9.649 0c0-.413.075-.804.228-1.174.152-.37.358-.685.62-.946.282-.282.608-.5.977-.652.37-.152.761-.228 1.174-.228.413 0 .805.076 1.174.228.37.152.685.37.946.652.283.261.5.577.652.946.152.37.228.761.228 1.174 0 .413-.076.804-.228 1.174-.152.37-.37.696-.652.978-.26.261-.576.468-.946.62-.37.152-.76.228-1.174.228-.413 0-.804-.076-1.174-.228a3.262 3.262 0 0 1-.978-.62 3.289 3.289 0 0 1-.62-.978A3.076 3.076 0 0 1 80.596 69zm9.648 0c0-.413.076-.804.229-1.174.152-.37.358-.685.62-.946.282-.282.608-.5.977-.652.37-.152.761-.228 1.174-.228.413 0 .805.076 1.174.228.37.152.685.37.946.652.282.261.5.577.652.946.152.37.228.761.228 1.174 0 .413-.076.804-.228 1.174-.152.37-.37.696-.652.978a2.853 2.853 0 0 1-.946.62c-.37.152-.76.228-1.174.228-.413 0-.804-.076-1.174-.228a3.25 3.25 0 0 1-.978-.62 3.289 3.289 0 0 1-.62-.978A3.058 3.058 0 0 1 90.244 69z"/><path fill="#434343" d="M26.4 93c0-.413.076-.804.228-1.174.152-.37.359-.685.62-.946.282-.282.608-.5.978-.652.37-.152.761-.228 1.174-.228.413 0 .804.076 1.174.228.37.152.685.37.946.652.282.261.5.577.652.946.152.37.228.761.228 1.174 0 .413-.076.804-.228 1.174-.152.37-.37.696-.652.978a2.853 2.853 0 0 1-.946.62c-.37.152-.76.228-1.174.228-.413 0-.804-.076-1.174-.228a3.25 3.25 0 0 1-.978-.62 3.25 3.25 0 0 1-.62-.978A3.058 3.058 0 0 1 26.4 93zm9.649 0c0-.413.076-.804.228-1.174.152-.37.359-.685.62-.946.282-.282.608-.5.978-.652.37-.152.76-.228 1.174-.228.413 0 .804.076 1.174.228.37.152.685.37.946.652.282.261.5.577.652.946.152.37.228.761.228 1.174 0 .413-.076.804-.228 1.174-.152.37-.37.696-.652.978a2.863 2.863 0 0 1-.946.62c-.37.152-.761.228-1.174.228-.413 0-.804-.076-1.174-.228a3.237 3.237 0 0 1-.978-.62 3.25 3.25 0 0 1-.62-.978A3.058 3.058 0 0 1 36.049 93zm9.649 0c0-.413.076-.804.228-1.174.152-.37.359-.685.62-.946.282-.282.608-.5.978-.652.37-.152.76-.228 1.174-.228.413 0 .804.076 1.174.228.37.152.684.37.945.652.283.261.5.577.652.946.153.37.229.761.229 1.174 0 .413-.076.804-.229 1.174-.152.37-.37.696-.652.978-.26.261-.576.468-.945.62-.37.152-.761.228-1.174.228-.413 0-.805-.076-1.174-.228a3.237 3.237 0 0 1-.978-.62 3.25 3.25 0 0 1-.62-.978A3.058 3.058 0 0 1 45.698 93zm9.649 0c0-.413.076-.804.228-1.174.152-.37.359-.685.62-.946.282-.282.608-.5.978-.652.37-.152.76-.228 1.174-.228.413 0 .804.076 1.173.228.37.152.685.37.946.652.283.261.5.577.652.946.152.37.229.761.229 1.174 0 .413-.077.804-.229 1.174-.152.37-.37.696-.652.978-.26.261-.576.468-.946.62a3.05 3.05 0 0 1-1.173.228c-.413 0-.805-.076-1.174-.228a3.254 3.254 0 0 1-.979-.62 3.289 3.289 0 0 1-.62-.978A3.076 3.076 0 0 1 55.347 93zm9.649 0c0-.413.076-.804.228-1.174.152-.37.358-.685.62-.946.282-.282.608-.5.978-.652.37-.152.76-.228 1.174-.228.413 0 .804.076 1.173.228.37.152.685.37.946.652.283.261.5.577.652.946.152.37.229.761.229 1.174 0 .413-.077.804-.229 1.174-.152.37-.37.696-.652.978-.26.261-.576.468-.946.62-.37.152-.76.228-1.173.228a3.05 3.05 0 0 1-1.174-.228 3.254 3.254 0 0 1-.979-.62 3.289 3.289 0 0 1-.62-.978A3.076 3.076 0 0 1 64.996 93zm9.648 0c0-.413.076-.804.229-1.174.152-.37.358-.685.62-.946.282-.282.608-.5.977-.652.37-.152.761-.228 1.174-.228.413 0 .805.076 1.174.228.37.152.685.37.946.652.282.261.5.577.652.946.152.37.228.761.228 1.174 0 .413-.076.804-.228 1.174-.152.37-.37.696-.652.978a2.853 2.853 0 0 1-.946.62c-.37.152-.76.228-1.174.228-.413 0-.804-.076-1.174-.228a3.25 3.25 0 0 1-.978-.62 3.289 3.289 0 0 1-.62-.978A3.058 3.058 0 0 1 74.644 93z"/><path stroke="#F7CD3D" d="M26.4 93c0-.413.076-.804.228-1.174.152-.37.359-.685.62-.946.282-.282.608-.5.978-.652.37-.152.761-.228 1.174-.228.413 0 .804.076 1.174.228.37.152.685.37.946.652.282.261.5.577.652.946.152.37.228.761.228 1.174 0 .413-.076.804-.228 1.174-.152.37-.37.696-.652.978a2.853 2.853 0 0 1-.946.62c-.37.152-.76.228-1.174.228-.413 0-.804-.076-1.174-.228a3.25 3.25 0 0 1-.978-.62 3.25 3.25 0 0 1-.62-.978A3.058 3.058 0 0 1 26.4 93zm9.649 0c0-.413.076-.804.228-1.174.152-.37.359-.685.62-.946.282-.282.608-.5.978-.652.37-.152.76-.228 1.174-.228.413 0 .804.076 1.174.228.37.152.685.37.946.652.282.261.5.577.652.946.152.37.228.761.228 1.174 0 .413-.076.804-.228 1.174-.152.37-.37.696-.652.978a2.863 2.863 0 0 1-.946.62c-.37.152-.761.228-1.174.228-.413 0-.804-.076-1.174-.228a3.237 3.237 0 0 1-.978-.62 3.25 3.25 0 0 1-.62-.978A3.058 3.058 0 0 1 36.049 93zm9.649 0c0-.413.076-.804.228-1.174.152-.37.359-.685.62-.946.282-.282.608-.5.978-.652.37-.152.76-.228 1.174-.228.413 0 .804.076 1.174.228.37.152.684.37.945.652.283.261.5.577.652.946.153.37.229.761.229 1.174 0 .413-.076.804-.229 1.174-.152.37-.37.696-.652.978-.26.261-.576.468-.945.62-.37.152-.761.228-1.174.228-.413 0-.805-.076-1.174-.228a3.237 3.237 0 0 1-.978-.62 3.25 3.25 0 0 1-.62-.978A3.058 3.058 0 0 1 45.698 93zm9.649 0c0-.413.076-.804.228-1.174.152-.37.359-.685.62-.946.282-.282.608-.5.978-.652.37-.152.76-.228 1.174-.228.413 0 .804.076 1.173.228.37.152.685.37.946.652.283.261.5.577.652.946.152.37.229.761.229 1.174 0 .413-.077.804-.229 1.174-.152.37-.37.696-.652.978-.26.261-.576.468-.946.62a3.05 3.05 0 0 1-1.173.228c-.413 0-.805-.076-1.174-.228a3.254 3.254 0 0 1-.979-.62 3.289 3.289 0 0 1-.62-.978A3.076 3.076 0 0 1 55.347 93zm9.649 0c0-.413.076-.804.228-1.174.152-.37.358-.685.62-.946.282-.282.608-.5.978-.652.37-.152.76-.228 1.174-.228.413 0 .804.076 1.173.228.37.152.685.37.946.652.283.261.5.577.652.946.152.37.229.761.229 1.174 0 .413-.077.804-.229 1.174-.152.37-.37.696-.652.978-.26.261-.576.468-.946.62-.37.152-.76.228-1.173.228a3.05 3.05 0 0 1-1.174-.228 3.254 3.254 0 0 1-.979-.62 3.289 3.289 0 0 1-.62-.978A3.076 3.076 0 0 1 64.996 93zm9.648 0c0-.413.076-.804.229-1.174.152-.37.358-.685.62-.946.282-.282.608-.5.977-.652.37-.152.761-.228 1.174-.228.413 0 .805.076 1.174.228.37.152.685.37.946.652.282.261.5.577.652.946.152.37.228.761.228 1.174 0 .413-.076.804-.228 1.174-.152.37-.37.696-.652.978a2.853 2.853 0 0 1-.946.62c-.37.152-.76.228-1.174.228-.413 0-.804-.076-1.174-.228a3.25 3.25 0 0 1-.978-.62 3.289 3.289 0 0 1-.62-.978A3.058 3.058 0 0 1 74.644 93z"/><path stroke="#434343" stroke-width="2" d="M57 53.4l3.6 6.6m3-6.6l3.6 6.6m-3.6 24.6l3.6-6.6m3 6.6l3.6-6.6"/><path stroke="#434343" stroke-linecap="round" stroke-linejoin="round" stroke-width="2" d="M50.4 102l3.6 6.6m0 0l3.6-6.6"/></svg>