<svg xmlns="http://www.w3.org/2000/svg" viewBox="0 0 58 69"><defs><filter id="a" width="160%" height="147.1%" x="-30%" y="-23.5%" filterUnits="objectBoundingBox"><feOffset dy="2" in="SourceAlpha" result="shadowOffsetOuter1"/><feGaussianBlur in="shadowOffsetOuter1" result="shadowBlurOuter1" stdDeviation="2"/><feColorMatrix in="shadowBlurOuter1" result="shadowMatrixOuter1" values="0 0 0 0 0 0 0 0 0 0 0 0 0 0 0 0 0 0 0.5 0"/><feMerge><feMergeNode in="shadowMatrixOuter1"/><feMergeNode in="SourceGraphic"/></feMerge></filter></defs><g fill="none" fill-rule="evenodd" filter="url(#a)" transform="translate(9 9)"><path fill="#7CA7FF" d="M26.062 31L35 46.22l-6.07-.624L26.58 51 20 39.797 13.421 51l-2.351-5.404L5 46.22 13.938 31 20 34.44 26.062 31z"/><circle cx="20" cy="20" r="20" fill="#F7CD3D"/><g fill="#FFF" transform="translate(3 6)"><ellipse cx="22.5" cy="5.5" rx="3.5" ry="4.5" transform="rotate(9 22.5 5.5)"/><ellipse cx="29.5" cy="11.5" rx="3.5" ry="4.5" transform="rotate(9 29.5 11.5)"/><ellipse cx="4.5" cy="11.5" rx="3.5" ry="4.5" transform="scale(-1 1) rotate(9 0 -45.678)"/><ellipse cx="11.5" cy="5.5" rx="3.5" ry="4.5" transform="scale(-1 1) rotate(9 0 -140.621)"/></g><path fill="#FFF" d="M20 16l8.67 7.253c.121.094.24.193.353.295l.19.16-.009.011A6 6 0 1 1 20 31.317a6 6 0 1 1-9.199-7.603l-.006-.005.095-.08a5.66 5.66 0 0 1 .525-.44L20 16z"/></g></svg>