<svg width="50" height="50" viewBox="0 0 50 50" fill="none" xmlns="http://www.w3.org/2000/svg">
<path d="M22.1999 21.5148C22.1999 21.9096 21.7074 22.2298 21.0999 22.2298C20.4924 22.2298 19.9999 21.9096 19.9999 21.5148C19.9999 21.1199 20.4924 20.7998 21.0999 20.7998C21.7074 20.7998 22.1999 21.1199 22.1999 21.5148Z" fill="#434343"/>
<path fill-rule="evenodd" clip-rule="evenodd" d="M12.5537 14.8195C12.5282 14.81 12.5204 14.8115 12.5051 14.8166C12.225 14.9098 12.1604 15.0057 12.1201 15.1048C12.0518 15.273 12.0208 15.5686 12.0551 16.1511C12.0731 16.456 12.1079 16.8225 12.1488 17.2524C12.2543 18.3615 12.4 19.8935 12.4 21.8834C12.4 26.4286 10.5126 30.5719 9.55087 32.1074C9.36032 32.4116 8.95921 32.5038 8.65498 32.3132C8.35074 32.1227 8.25858 31.7216 8.44913 31.4173C9.32075 30.0257 11.1 26.1195 11.1 21.8834C11.1 19.959 10.9658 18.5519 10.8611 17.4543C10.8174 16.9966 10.7789 16.5927 10.7574 16.2276C10.7229 15.6438 10.7263 15.0818 10.9157 14.6155C11.1333 14.08 11.5499 13.7643 12.0948 13.5831C12.7664 13.3597 13.3296 13.6937 13.7012 14.0762C14.0711 14.4569 14.3763 14.9982 14.6254 15.5525C15.1295 16.6747 15.4988 18.0712 15.6873 19.0116C15.7578 19.3636 15.5297 19.7061 15.1777 19.7766C14.8257 19.8472 14.4832 19.619 14.4126 19.267C14.2344 18.378 13.8888 17.0852 13.4395 16.0852C13.2119 15.5785 12.9809 15.2005 12.7687 14.9821C12.6654 14.8757 12.5919 14.8339 12.5537 14.8195Z" fill="#434343"/>
<path fill-rule="evenodd" clip-rule="evenodd" d="M21.9127 18.2497C19.5648 17.8476 17.6866 18.7632 17.0967 19.2178C16.8124 19.4369 16.4042 19.3841 16.1851 19.0998C15.966 18.8154 16.0188 18.4073 16.3031 18.1881C17.1326 17.5488 19.3705 16.4954 22.1322 16.9684C23.0401 17.1239 23.6499 17.4454 24.1107 17.8437C24.4142 18.1059 24.674 18.4337 24.866 18.6759C24.9335 18.7611 24.9926 18.8356 25.0423 18.8931C25.2567 19.141 25.4428 19.2892 25.7564 19.359C26.1088 19.4375 26.6902 19.4307 27.7155 19.1673C28.761 18.8987 29.6111 18.63 30.3082 18.4083C30.3388 18.3986 30.3693 18.3889 30.3995 18.3792C31.0377 18.1761 31.5911 18 32.0255 17.9256C32.4573 17.8516 33.0446 17.8269 33.4537 18.2894C33.6383 18.498 33.7311 18.7502 33.7817 18.9897C33.8324 19.23 33.8497 19.5029 33.8497 19.7969C33.8497 20.9273 33.7153 22.2828 33.1114 23.4465C32.4871 24.6492 31.3848 25.5987 29.5837 25.9072C28.7575 26.0487 28.0026 26.119 27.3548 26.1787C26.6917 26.2399 26.1722 26.288 25.7549 26.3799C25.3374 26.4719 25.1241 26.588 25.0072 26.7121C24.9063 26.8193 24.8015 27.0138 24.8015 27.4544C24.8015 27.6017 24.8386 27.6669 24.8666 27.7019C24.9012 27.7453 24.9734 27.8048 25.1257 27.8589C25.4521 27.9748 25.9548 28.0014 26.578 27.9677C26.9633 27.9468 27.327 27.9091 27.6839 27.8721C27.9124 27.8484 28.1382 27.825 28.365 27.8065C28.6322 27.7847 28.9025 27.7704 29.1344 27.7854C29.2508 27.7929 29.3805 27.809 29.5067 27.8454C29.6273 27.8802 29.797 27.9483 29.9398 28.095C30.2062 28.3687 30.3423 28.7627 30.3856 29.1303C30.431 29.5151 30.3863 29.9564 30.2036 30.3789C29.8137 31.2804 28.8779 31.9332 27.345 31.9332C25.9791 31.9332 25.0292 31.9398 24.2809 32.1764C23.6053 32.39 23.0705 32.8027 22.6069 33.7554C21.8276 35.3571 21.9838 36.7149 22.1085 37.0992C22.2192 37.4407 22.0322 37.8073 21.6907 37.9181C21.3493 38.0288 20.9827 37.8418 20.8719 37.5003C20.6417 36.7907 20.5141 35.0855 21.438 33.1866C22.0389 31.9515 22.8348 31.2702 23.889 30.9369C24.8503 30.6329 26.0013 30.633 27.2654 30.6332C27.2919 30.6332 27.3184 30.6332 27.345 30.6332C28.4733 30.6332 28.8681 30.192 29.0104 29.8628C29.0939 29.6699 29.1157 29.4617 29.0946 29.2825C29.0841 29.194 29.0655 29.1281 29.0482 29.0825C28.9163 29.0742 28.7258 29.0814 28.4706 29.1022C28.3021 29.1159 28.1002 29.1366 27.8813 29.159C27.4935 29.1987 27.0522 29.2439 26.6482 29.2658C26.0073 29.3004 25.2792 29.2928 24.6908 29.084C24.3857 28.9757 24.0795 28.8001 23.8501 28.5124C23.614 28.2162 23.5015 27.8541 23.5015 27.4544C23.5015 26.8011 23.6627 26.2436 24.0608 25.8208C24.4429 25.4151 24.9615 25.2235 25.4754 25.1103C25.9748 25.0004 26.566 24.9459 27.1808 24.8893L27.2354 24.8842C27.8849 24.8243 28.5937 24.7578 29.3642 24.6259C30.7567 24.3874 31.5172 23.696 31.9575 22.8476C32.4181 21.9602 32.5497 20.8543 32.5497 19.7969C32.5497 19.5439 32.5338 19.3724 32.5097 19.2581C32.5029 19.2258 32.4961 19.2015 32.4903 19.1838C32.4478 19.1821 32.3715 19.1852 32.245 19.2069C31.9016 19.2657 31.4226 19.418 30.7022 19.6471C30.0021 19.8698 29.1224 20.1481 28.039 20.4265C26.9352 20.71 26.1195 20.7717 25.4739 20.6279C24.7895 20.4755 24.3768 20.1109 24.059 19.7435C23.9383 19.6039 23.8433 19.4832 23.7567 19.3732C23.5986 19.1722 23.4686 19.0069 23.2607 18.8273C22.9897 18.5931 22.6016 18.3677 21.9127 18.2497ZM32.536 19.1899C32.5357 19.1901 32.5329 19.1895 32.5281 19.1876C32.5339 19.1887 32.5362 19.1897 32.536 19.1899Z" fill="#434343"/>
<path fill-rule="evenodd" clip-rule="evenodd" d="M17.3509 13.6615C17.3359 14.5071 17.4954 15.5518 17.6519 16.2596C17.7294 16.6101 17.5081 16.9571 17.1576 17.0346C16.8071 17.1121 16.4601 16.8908 16.3826 16.5403C16.2148 15.7814 16.0336 14.6262 16.0511 13.6385C16.0597 13.1536 16.1164 12.6417 16.2906 12.2286C16.38 12.0168 16.5145 11.7964 16.7223 11.6262C16.9411 11.4469 17.2092 11.35 17.5038 11.35C18.0572 11.35 18.4788 11.6586 18.7702 11.9969C19.0613 12.3349 19.2848 12.7702 19.4575 13.2027C19.8049 14.0725 20.0094 15.0931 20.0948 15.7685C20.1398 16.1246 19.8875 16.4498 19.5314 16.4948C19.1752 16.5398 18.85 16.2876 18.805 15.9315C18.7282 15.3235 18.5435 14.4191 18.2502 13.6848C18.1026 13.3152 17.9431 13.0286 17.7851 12.8453C17.6596 12.6995 17.5749 12.6621 17.5302 12.6529C17.5198 12.6687 17.5051 12.6943 17.4884 12.7339C17.4113 12.9166 17.3585 13.2297 17.3509 13.6615Z" fill="#434343"/>
<path d="M34.2998 17.5C34.2998 18.1075 33.8073 18.6 33.1998 18.6C32.5923 18.6 32.0998 18.1075 32.0998 17.5C32.0998 16.8925 32.5923 16.4001 33.1998 16.4001C33.8073 16.4001 34.2998 16.8925 34.2998 17.5Z" fill="#434343"/>
<path fill-rule="evenodd" clip-rule="evenodd" d="M33.7129 26.9461C33.7758 26.5927 34.1135 26.3562 34.4671 26.4179L42.114 27.753C42.4676 27.8147 42.7033 28.1513 42.6403 28.5047C42.5774 28.8581 42.2397 29.0946 41.886 29.0329L34.2392 27.6978C33.8856 27.6361 33.6499 27.2995 33.7129 26.9461Z" fill="#434343"/>
<path fill-rule="evenodd" clip-rule="evenodd" d="M34.8067 23.6504C34.6828 23.3135 34.8562 22.9416 35.1939 22.8199L41.4478 20.5661C41.7855 20.4444 42.1597 20.6189 42.2835 20.9559C42.4074 21.2928 42.234 21.6646 41.8963 21.7863L35.6424 24.0401C35.3047 24.1618 34.9305 23.9873 34.8067 23.6504Z" fill="#434343"/>
<path fill-rule="evenodd" clip-rule="evenodd" d="M32.7795 29.091C33.0556 28.8616 33.4676 28.8976 33.6997 29.1715L38.6906 35.0608C38.9227 35.3346 38.887 35.7426 38.6109 35.972C38.3347 36.2014 37.9227 36.1654 37.6907 35.8915L32.6998 30.0022C32.4677 29.7284 32.5034 29.3204 32.7795 29.091Z" fill="#434343"/>
</svg>
