<svg width="50" height="50" viewBox="0 0 50 50" fill="none" xmlns="http://www.w3.org/2000/svg">
<path fill-rule="evenodd" clip-rule="evenodd" d="M21 15.65C18.0453 15.65 15.65 18.0453 15.65 21C15.65 21.9769 15.9113 22.8909 16.3673 23.6779C16.4816 23.8751 16.4842 24.1178 16.3742 24.3174C16.2641 24.5171 16.0576 24.6445 15.8298 24.6533C13.5065 24.7424 11.65 26.6546 11.65 29C11.65 31.4024 13.5976 33.35 16 33.35H34C36.4024 33.35 38.35 31.4024 38.35 29C38.35 26.5976 36.4024 24.65 34 24.65C33.9708 24.65 33.9417 24.6503 33.9126 24.6509C33.7153 24.6547 33.5269 24.5688 33.4005 24.4172C33.2742 24.2657 33.2235 24.0649 33.2628 23.8716C33.3199 23.5905 33.35 23.2991 33.35 23C33.35 20.5976 31.4024 18.65 29 18.65C28.2153 18.65 27.481 18.8572 26.8467 19.2194C26.6855 19.3114 26.4927 19.3301 26.3168 19.2709C26.141 19.2116 25.9988 19.08 25.9262 18.9092C25.1114 16.9922 23.2117 15.65 21 15.65ZM14.35 21C14.35 17.3273 17.3273 14.35 21 14.35C23.5075 14.35 25.6896 15.7377 26.8225 17.7851C27.4931 17.5048 28.2291 17.35 29 17.35C32.1204 17.35 34.65 19.8796 34.65 23C34.65 23.1295 34.6456 23.2581 34.637 23.3855C37.4575 23.702 39.65 26.095 39.65 29C39.65 32.1204 37.1204 34.65 34 34.65H16C12.8796 34.65 10.35 32.1204 10.35 29C10.35 26.2825 12.2684 24.0133 14.825 23.4724C14.5185 22.7077 14.35 21.873 14.35 21ZM21.35 23.3317C21.35 22.0262 22.7942 21.2378 23.8923 21.9437L28.043 24.6121C29.0533 25.2616 29.0533 26.7385 28.043 27.388L23.8923 30.0563C22.7942 30.7622 21.35 29.9738 21.35 28.6683V23.3317ZM23.1893 23.0373C22.9563 22.8875 22.65 23.0548 22.65 23.3317V28.6683C22.65 28.9452 22.9563 29.1125 23.1893 28.9628L27.34 26.2944C27.5543 26.1566 27.5543 25.8434 27.34 25.7056L23.1893 23.0373Z" fill="#434343"/>
</svg>
