<svg width="50" height="50" viewBox="0 0 50 50" fill="none" xmlns="http://www.w3.org/2000/svg">
<path fill-rule="evenodd" clip-rule="evenodd" d="M31 14.3H20.5385C19.0473 14.3 17.8385 15.5088 17.8385 17V33C17.8385 34.4912 19.0473 35.7 20.5385 35.7H31C32.4912 35.7 33.7 34.4912 33.7 33V17C33.7 15.5088 32.4912 14.3 31 14.3ZM20.5385 13C18.3293 13 16.5385 14.7909 16.5385 17V33C16.5385 35.2091 18.3293 37 20.5385 37H31C33.2091 37 35 35.2091 35 33V17C35 14.7909 33.2091 13 31 13H20.5385Z" fill="#434343"/>
<path fill-rule="evenodd" clip-rule="evenodd" d="M21.2731 36.6251V13.7501H22.5731V36.6251H21.2731Z" fill="#434343"/>
<path fill-rule="evenodd" clip-rule="evenodd" d="M14.35 19C14.35 18.641 14.641 18.35 15 18.35H18.8462C19.2051 18.35 19.4962 18.641 19.4962 19C19.4962 19.3589 19.2051 19.65 18.8462 19.65H15C14.641 19.65 14.35 19.3589 14.35 19Z" fill="#434343"/>
<path fill-rule="evenodd" clip-rule="evenodd" d="M14.35 25C14.35 24.6411 14.641 24.35 15 24.35H18.8462C19.2051 24.35 19.4962 24.6411 19.4962 25C19.4962 25.359 19.2051 25.65 18.8462 25.65H15C14.641 25.65 14.35 25.359 14.35 25Z" fill="#434343"/>
<path fill-rule="evenodd" clip-rule="evenodd" d="M14.35 31C14.35 30.641 14.641 30.35 15 30.35H18.8462C19.2051 30.35 19.4962 30.641 19.4962 31C19.4962 31.359 19.2051 31.65 18.8462 31.65H15C14.641 31.65 14.35 31.359 14.35 31Z" fill="#434343"/>
</svg>
