<svg width="50" height="50" viewBox="0 0 50 50" fill="none" xmlns="http://www.w3.org/2000/svg">
<path d="M13.6133 21.504H18.9533V22.584H14.7653V25.248H18.6653V26.328H14.7653V30H13.6133V21.504Z" fill="#434343"/>
<path d="M20.5039 21.504H21.6559V25.032H26.0599V21.504H27.2119V30H26.0599V26.112H21.6559V30H20.5039V21.504Z" fill="#434343"/>
<path d="M29.2064 21.504H32.1704C32.7704 21.504 33.2944 21.572 33.7424 21.708C34.1984 21.844 34.5904 22.028 34.9184 22.26C35.2544 22.484 35.5304 22.744 35.7464 23.04C35.9704 23.336 36.1464 23.64 36.2744 23.952C36.4024 24.264 36.4944 24.576 36.5504 24.888C36.6064 25.2 36.6344 25.488 36.6344 25.752C36.6344 26.296 36.5344 26.824 36.3344 27.336C36.1344 27.84 35.8384 28.292 35.4464 28.692C35.0544 29.084 34.5664 29.4 33.9824 29.64C33.4064 29.88 32.7384 30 31.9784 30H29.2064V21.504ZM30.3584 28.92H31.8104C32.2984 28.92 32.7584 28.856 33.1904 28.728C33.6304 28.592 34.0144 28.392 34.3424 28.128C34.6704 27.864 34.9304 27.536 35.1224 27.144C35.3144 26.744 35.4104 26.28 35.4104 25.752C35.4104 25.48 35.3664 25.164 35.2784 24.804C35.1904 24.436 35.0224 24.088 34.7744 23.76C34.5344 23.432 34.1984 23.156 33.7664 22.932C33.3344 22.7 32.7744 22.584 32.0864 22.584H30.3584V28.92Z" fill="#434343"/>
<path fill-rule="evenodd" clip-rule="evenodd" d="M8.35001 18C8.35001 15.4319 10.4319 13.35 13 13.35H36.3682C38.9363 13.35 41.0182 15.4319 41.0182 18V33C41.0182 35.5681 38.9363 37.65 36.3682 37.65H13C10.4319 37.65 8.35001 35.5681 8.35001 33V18ZM13 14.65C11.1499 14.65 9.65001 16.1498 9.65001 18V33C9.65001 34.8502 11.1499 36.35 13 36.35H36.3682C38.2183 36.35 39.7182 34.8502 39.7182 33V18C39.7182 16.1498 38.2183 14.65 36.3682 14.65H13Z" fill="#434343"/>
</svg>
