<svg width="50" height="50" viewBox="0 0 50 50" fill="none" xmlns="http://www.w3.org/2000/svg">
<path fill-rule="evenodd" clip-rule="evenodd" d="M21.7498 24.0255C19.4165 24.0255 17.5249 25.917 17.5249 28.2503C17.5249 28.6093 17.2339 28.9003 16.8749 28.9003C16.8732 28.9003 16.8714 28.9003 16.8697 28.9003C14.5387 28.9031 12.65 30.7936 12.65 33.1251C12.65 35.4585 14.5415 37.35 16.8748 37.35C16.8781 37.35 16.8813 37.35 16.8845 37.3501H33.927C33.9302 37.35 33.9334 37.35 33.9367 37.35C36.27 37.35 38.1615 35.4585 38.1615 33.1251C38.1615 31.2668 36.9612 29.687 35.2917 29.1221C34.9516 29.007 34.7692 28.6381 34.8843 28.2981C34.9994 27.958 35.3683 27.7756 35.7083 27.8907C37.8898 28.6288 39.4615 30.6926 39.4615 33.1251C39.4615 36.1729 36.9936 38.6443 33.9472 38.65C33.9438 38.65 33.9403 38.6501 33.9369 38.6501H16.8749C16.8715 38.6501 16.8681 38.65 16.8646 38.65C13.8181 38.6445 11.35 36.173 11.35 33.1251C11.35 30.2821 13.4975 27.9406 16.2589 27.6343C16.5653 24.8729 18.9067 22.7255 21.7498 22.7255C22.1088 22.7255 22.3998 23.0165 22.3998 23.3755C22.3998 23.7345 22.1088 24.0255 21.7498 24.0255Z" fill="#434343"/>
<path fill-rule="evenodd" clip-rule="evenodd" d="M29.6814 11.64C29.8348 11.8706 29.8252 12.173 29.6577 12.3934C28.7578 13.577 28.224 15.0528 28.224 16.6551C28.224 20.548 31.3798 23.7039 35.2728 23.7039C35.8851 23.7039 36.4782 23.626 37.0432 23.4798C37.3113 23.4105 37.5938 23.5186 37.7472 23.7492C37.9005 23.9797 37.891 24.2821 37.7234 24.5025C36.1996 26.5068 33.7878 27.8029 31.0734 27.8029C26.4625 27.8029 22.7246 24.065 22.7246 19.4541C22.7246 15.5663 25.3814 12.3007 28.9775 11.3707C29.2455 11.3014 29.5281 11.4095 29.6814 11.64ZM27.6231 13.3058C25.4753 14.5138 24.0246 16.8151 24.0246 19.4541C24.0246 23.347 27.1805 26.5029 31.0734 26.5029C32.7138 26.5029 34.2233 25.9428 35.4214 25.0026C35.372 25.0034 35.3224 25.0039 35.2728 25.0039C30.6618 25.0039 26.924 21.266 26.924 16.6551C26.924 15.4644 27.1735 14.3313 27.6231 13.3058Z" fill="#434343"/>
</svg>
