<svg width="50" height="50" viewBox="0 0 50 50" fill="none" xmlns="http://www.w3.org/2000/svg">
<path fill-rule="evenodd" clip-rule="evenodd" d="M8.08192 21.3675C8.13515 20.4578 8.91577 19.7635 9.82548 19.8167L26.712 20.8048C27.6217 20.858 28.316 21.6386 28.2628 22.5483L27.5904 34.0397C27.5372 34.9494 26.7565 35.6437 25.8468 35.5905L8.96033 34.6024C8.05061 34.5492 7.3563 33.7685 7.40953 32.8588L8.08192 21.3675ZM9.74954 21.1145C9.55658 21.1032 9.39099 21.2505 9.3797 21.4434L8.70731 32.9348C8.69602 33.1277 8.8433 33.2933 9.03626 33.3046L25.9228 34.2927C26.1157 34.304 26.2813 34.1567 26.2926 33.9637L26.965 22.4724C26.9763 22.2794 26.829 22.1138 26.636 22.1025L9.74954 21.1145Z" fill="#434343"/>
<path fill-rule="evenodd" clip-rule="evenodd" d="M22.2701 17.1465C22.2166 16.2368 22.9108 15.456 23.8205 15.4025L40.7067 14.4098C41.6164 14.3563 42.3972 15.0504 42.4507 15.9601L43.1262 27.4513C43.1797 28.361 42.4856 29.1418 41.5759 29.1953L27.629 30.0151C27.2707 30.0362 26.9631 29.7628 26.942 29.4044C26.9209 29.046 27.1944 28.7385 27.5528 28.7174L41.4996 27.8975C41.6925 27.8862 41.8398 27.7205 41.8284 27.5276L41.1529 16.0364C41.1416 15.8435 40.9759 15.6962 40.783 15.7076L23.8967 16.7002C23.7038 16.7116 23.5565 16.8772 23.5679 17.0702L23.6824 19.0179C23.7034 19.3762 23.43 19.6838 23.0716 19.7049C22.7133 19.726 22.4057 19.4525 22.3846 19.0942L22.2701 17.1465Z" fill="#434343"/>
<path fill-rule="evenodd" clip-rule="evenodd" d="M15.5897 26.8736C15.4707 26.6882 15.2121 26.6576 15.053 26.81L8.70791 32.8923C8.44876 33.1407 8.03729 33.132 7.78887 32.8729C7.54046 32.6137 7.54916 32.2023 7.80831 31.9538L14.1534 25.8716C14.9032 25.1528 16.1226 25.2973 16.6837 26.1713L21.8051 34.1488C21.999 34.4509 21.9114 34.853 21.6093 35.047C21.3072 35.2409 20.9051 35.1532 20.7111 34.8511L15.5897 26.8736Z" fill="#434343"/>
<path fill-rule="evenodd" clip-rule="evenodd" d="M22.854 30.2471C22.7251 30.0892 22.4891 30.0744 22.3415 30.215L20.2064 32.2485C19.9464 32.496 19.535 32.486 19.2874 32.2261C19.0398 31.9661 19.0499 31.5547 19.3098 31.3071L21.445 29.2736C22.1407 28.611 23.2532 28.6806 23.8609 29.4248L27.2616 33.5889C27.4886 33.8669 27.4473 34.2764 27.1693 34.5034C26.8912 34.7305 26.4817 34.6892 26.2547 34.4111L22.854 30.2471Z" fill="#434343"/>
<path fill-rule="evenodd" clip-rule="evenodd" d="M22.2581 24.65C21.7887 24.65 21.4081 25.0306 21.4081 25.5C21.4081 25.9694 21.7887 26.35 22.2581 26.35C22.7276 26.35 23.1081 25.9694 23.1081 25.5C23.1081 25.0306 22.7276 24.65 22.2581 24.65ZM20.1081 25.5C20.1081 24.3126 21.0707 23.35 22.2581 23.35C23.4455 23.35 24.4081 24.3126 24.4081 25.5C24.4081 26.6874 23.4455 27.65 22.2581 27.65C21.0707 27.65 20.1081 26.6874 20.1081 25.5Z" fill="#434343"/>
<path fill-rule="evenodd" clip-rule="evenodd" d="M31.9827 20.8716L32.1685 23.8411L34.3028 22.217L31.9827 20.8716ZM30.6444 20.3001C30.597 19.5428 31.4127 19.0383 32.0691 19.4189L35.4091 21.3557C35.9955 21.6958 36.0473 22.523 35.5078 22.9335L32.4354 25.2716C31.8316 25.7311 30.9593 25.3323 30.9119 24.575L30.6444 20.3001Z" fill="#434343"/>
</svg>
