<svg width="50" height="50" viewBox="0 0 50 50" fill="none" xmlns="http://www.w3.org/2000/svg">
<path fill-rule="evenodd" clip-rule="evenodd" d="M32.544 29.2819C32.185 29.2819 31.894 28.9909 31.894 28.6319L32.544 28.6319L33.194 28.6319C33.194 28.9909 32.903 29.2819 32.544 29.2819ZM32.544 28.6319L33.194 28.6319L33.1939 25.8947C33.1939 24.528 33.1938 23.1502 33.1937 23.1356C33.1562 18.3664 29.3936 14.4774 24.7154 14.4774C20.0482 14.4774 16.2924 18.3481 16.2374 23.1017C16.237 23.1395 16.2368 28.6039 16.2368 28.6319C16.2368 28.9908 16.5278 29.2819 16.8868 29.2819C17.2458 29.2819 17.5368 28.9908 17.5368 28.6319L17.5372 23.3548C17.5373 23.25 17.5373 23.1786 17.5373 23.1431C17.5373 23.1254 17.5373 23.1165 17.5373 23.1168C17.5845 19.0359 20.799 15.7774 24.7154 15.7774C28.641 15.7774 31.8615 19.0514 31.8937 23.1459C31.8937 23.1457 31.8937 23.1558 31.8937 23.1757C31.8937 23.2125 31.8938 23.2827 31.8938 23.3832L31.894 28.6319L32.544 28.6319Z" fill="#434343"/>
<path fill-rule="evenodd" clip-rule="evenodd" d="M32.283 29.8991H16.8868C16.0104 29.8991 15.3 30.6095 15.3 31.4859C15.3 32.3622 16.0104 33.0726 16.8868 33.0726H32.283C33.1594 33.0726 33.8698 32.3622 33.8698 31.4859C33.8698 30.6095 33.1594 29.8991 32.283 29.8991ZM16.8868 28.5991C15.2925 28.5991 14 29.8915 14 31.4859C14 33.0802 15.2925 34.3726 16.8868 34.3726H32.283C33.8773 34.3726 35.1698 33.0802 35.1698 31.4859C35.1698 29.8915 33.8773 28.5991 32.283 28.5991H16.8868Z" fill="#434343"/>
<path fill-rule="evenodd" clip-rule="evenodd" d="M22.8292 14.4057C22.8292 14.7277 22.9117 14.9332 23.1215 15.2486L22.0389 15.9684C21.742 15.5218 21.5292 15.0673 21.5292 14.4057C21.5292 12.7181 22.8973 11.35 24.5849 11.35C26.2725 11.35 27.6406 12.7181 27.6406 14.4057C27.6406 14.9612 27.4917 15.4839 27.2314 15.934L26.1061 15.283C26.2551 15.0255 26.3406 14.7265 26.3406 14.4057C26.3406 13.436 25.5545 12.65 24.5849 12.65C23.6153 12.65 22.8292 13.436 22.8292 14.4057Z" fill="#434343"/>
<path fill-rule="evenodd" clip-rule="evenodd" d="M26.3406 35.0943C26.3406 34.7723 26.2581 34.5668 26.0483 34.2514L27.1309 33.5316C27.4278 33.9782 27.6406 34.4327 27.6406 35.0943C27.6406 36.7819 26.2725 38.15 24.5849 38.15C22.8973 38.15 21.5292 36.7819 21.5292 35.0943C21.5292 34.5389 21.6781 34.0162 21.9384 33.566L23.0637 34.217C22.9147 34.4746 22.8292 34.7735 22.8292 35.0943C22.8292 36.064 23.6153 36.85 24.5849 36.85C25.5545 36.85 26.3406 36.064 26.3406 35.0943Z" fill="#434343"/>
</svg>
