<svg width="50" height="50" viewBox="0 0 50 50" fill="none" xmlns="http://www.w3.org/2000/svg">
<path fill-rule="evenodd" clip-rule="evenodd" d="M18.5101 28.0056C19.6692 25.3734 22.2738 23.6745 25.1498 23.6745C28.0259 23.6745 30.6304 25.3734 31.7896 28.0056L33.7995 32.5698C35.0734 35.4625 32.3184 38.4969 29.3165 37.5074L28.0769 37.0988C26.1758 36.4722 24.1238 36.4722 22.2228 37.0988L20.9832 37.5074C17.9813 38.4969 15.2263 35.4625 16.5001 32.5698L18.5101 28.0056ZM25.1498 24.9745C22.7891 24.9745 20.6513 26.369 19.6998 28.5295L17.6899 33.0937C16.8697 34.9562 18.6435 36.9098 20.5762 36.2727L21.8158 35.8641C23.9812 35.1504 26.3185 35.1504 28.4838 35.8641L29.7234 36.2727C31.6562 36.9098 33.43 34.9562 32.6098 33.0937L30.5998 28.5295C29.6484 26.369 27.5106 24.9745 25.1498 24.9745Z" fill="#434343"/>
<path fill-rule="evenodd" clip-rule="evenodd" d="M13.7258 21.691C12.7938 22.0996 12.2473 23.5021 12.8579 24.9877C13.4684 26.4733 14.8248 27.0416 15.7568 26.633C16.6889 26.2243 17.2353 24.8219 16.6247 23.3362C16.0142 21.8506 14.6578 21.2823 13.7258 21.691ZM11.6673 25.5097C10.8832 23.6019 11.4258 21.2803 13.2316 20.4886C15.0375 19.6968 17.0313 20.9064 17.8153 22.8143C18.5994 24.7221 18.0569 27.0437 16.251 27.8354C14.4451 28.6271 12.4514 27.4175 11.6673 25.5097Z" fill="#434343"/>
<path fill-rule="evenodd" clip-rule="evenodd" d="M37.1203 21.9616C36.2216 21.4962 34.8266 21.9737 34.1109 23.4191C33.3952 24.8646 33.8444 26.2971 34.7431 26.7625C35.6418 27.2279 37.0368 26.7504 37.7525 25.305C38.4682 23.8595 38.0189 22.427 37.1203 21.9616ZM32.9565 22.8213C33.8722 20.9719 35.947 19.8903 37.6971 20.7966C39.4472 21.7029 39.8226 24.0534 38.9069 25.9028C37.9911 27.7522 35.9163 28.8338 34.1663 27.9275C32.4162 27.0212 32.0408 24.6707 32.9565 22.8213Z" fill="#434343"/>
<path fill-rule="evenodd" clip-rule="evenodd" d="M28.7175 14.8998C28.1718 15.3966 27.7267 16.1938 27.55 17.1838C27.3733 18.1738 27.5076 19.1176 27.8365 19.8358C28.1656 20.5546 28.6624 21.0027 29.2124 21.1419C29.7624 21.2811 30.3693 21.1124 30.9155 20.6152C31.4612 20.1184 31.9063 19.3212 32.083 18.3312C32.2597 17.3412 32.1254 16.3974 31.7965 15.6792C31.4674 14.9604 30.9706 14.5123 30.4206 14.3731C29.8706 14.2339 29.2637 14.4026 28.7175 14.8998ZM27.8349 13.8871C28.5971 13.1931 29.5993 12.8276 30.649 13.0933C31.6988 13.359 32.4895 14.1784 32.9488 15.1815C33.4083 16.1852 33.5633 17.4176 33.3433 18.6502C33.1232 19.8828 32.5608 20.9336 31.7981 21.6279C31.0359 22.3219 30.0337 22.6874 28.984 22.4217C27.9342 22.156 27.1435 21.3366 26.6842 20.3335C26.2247 19.3298 26.0697 18.0974 26.2897 16.8648C26.5098 15.6323 27.0722 14.5814 27.8349 13.8871Z" fill="#434343"/>
<path fill-rule="evenodd" clip-rule="evenodd" d="M19.5995 15.3867C19.1797 16.0358 18.9222 16.9452 18.9668 17.9588C19.0114 18.9723 19.3473 19.8447 19.8218 20.4379C20.2969 21.0321 20.8724 21.3085 21.4276 21.2739C21.9829 21.2392 22.5309 20.8927 22.9513 20.2426C23.3711 19.5935 23.6285 18.6842 23.5839 17.6706C23.5393 16.657 23.2034 15.7847 22.729 15.1914C22.2538 14.5972 21.6784 14.3208 21.1231 14.3555C20.5679 14.3901 20.0199 14.7367 19.5995 15.3867ZM18.5133 14.6932C19.0978 13.7895 19.988 13.124 21.066 13.0567C22.144 12.9895 23.0877 13.5405 23.7483 14.3665C24.4096 15.1935 24.8261 16.3341 24.8814 17.5896C24.9366 18.8452 24.6225 20.0314 24.0374 20.9361C23.4529 21.8399 22.5628 22.5054 21.4848 22.5726C20.4067 22.6399 19.4631 22.0889 18.8025 21.2628C18.1412 20.4359 17.7246 19.2953 17.6694 18.0397C17.6141 16.7842 17.9282 15.598 18.5133 14.6932Z" fill="#434343"/>
</svg>
