<svg width="50" height="50" viewBox="0 0 50 50" fill="none" xmlns="http://www.w3.org/2000/svg">
<path fill-rule="evenodd" clip-rule="evenodd" d="M19.6069 14.6551C16.8841 14.5779 14.2904 15.3921 12.7517 16.1615C12.4306 16.322 12.0402 16.1919 11.8796 15.8708C11.7191 15.5497 11.8492 15.1593 12.1703 14.9987C13.8619 14.1529 16.6673 13.2713 19.6437 13.3556C22.6401 13.4405 25.8453 14.5099 28.2064 17.6089C28.424 17.8944 28.3689 18.3023 28.0833 18.5198C27.7978 18.7374 27.3899 18.6823 27.1724 18.3967C25.1034 15.6812 22.3096 14.7317 19.6069 14.6551ZM14.5026 19.9213C12.1409 20.8682 10.4038 22.6065 9.54083 23.901C9.3417 24.1997 8.93814 24.2804 8.63944 24.0812C8.34075 23.8821 8.26004 23.4786 8.45917 23.1799C9.44209 21.7055 11.3736 19.7752 14.0188 18.7147C16.693 17.6425 20.0677 17.4735 23.8444 19.5071C24.1604 19.6773 24.2787 20.0715 24.1085 20.3876C23.9383 20.7037 23.5441 20.8219 23.228 20.6517C19.8059 18.809 16.8353 18.9861 14.5026 19.9213Z" fill="#434343"/>
<path fill-rule="evenodd" clip-rule="evenodd" d="M31.5785 21.461C31.5785 19.1906 33.419 17.35 35.6895 17.35C37.9222 17.35 39.7391 19.1299 39.7989 21.3481C41.0393 22.0551 41.8771 23.3901 41.8771 24.922C41.8771 27.1924 40.0365 29.033 37.7661 29.033C36.4749 29.033 35.3233 28.4374 34.5702 27.508L25.9399 31.4733C25.9509 31.5955 25.9565 31.7191 25.9565 31.844C25.9565 34.1144 24.1159 35.955 21.8455 35.955C19.575 35.955 17.7345 34.1144 17.7345 31.844C17.7345 31.7195 17.74 31.5962 17.7509 31.4743C16.8931 30.7216 16.35 29.6157 16.35 28.3831C16.35 26.1126 18.1906 24.2721 20.461 24.2721C21.7539 24.2721 22.9068 24.8692 23.6598 25.8007L31.6367 22.1541C31.5984 21.9285 31.5785 21.6969 31.5785 21.461ZM35.6895 18.65C34.137 18.65 32.8785 19.9085 32.8785 21.461C32.8785 21.7629 32.9258 22.0524 33.013 22.3233C33.114 22.637 32.9642 22.9766 32.6645 23.1136L23.7082 27.2079C23.4063 27.3459 23.049 27.2343 22.8793 26.949C22.3883 26.1231 21.4886 25.5721 20.461 25.5721C18.9085 25.5721 17.65 26.8306 17.65 28.3831C17.65 29.3241 18.1118 30.1573 18.824 30.6685C19.0293 30.8159 19.1306 31.069 19.0836 31.3174C19.0514 31.4875 19.0345 31.6635 19.0345 31.844C19.0345 33.3964 20.293 34.655 21.8455 34.655C23.3979 34.655 24.6565 33.3964 24.6565 31.844C24.6565 31.6319 24.6331 31.4261 24.5891 31.2286C24.5223 30.9295 24.6736 30.6244 24.9521 30.4965L34.5195 26.1006C34.8213 25.962 35.1792 26.0732 35.3492 26.3585C35.8406 27.183 36.7394 27.733 37.7661 27.733C39.3185 27.733 40.5771 26.4744 40.5771 24.922C40.5771 23.7667 39.88 22.7728 38.881 22.3406C38.6255 22.23 38.4687 21.9691 38.4912 21.6916C38.4973 21.6157 38.5005 21.5388 38.5005 21.461C38.5005 19.9085 37.2419 18.65 35.6895 18.65Z" fill="#434343"/>
</svg>
