<svg width="50" height="50" viewBox="0 0 50 50" fill="none" xmlns="http://www.w3.org/2000/svg">
<path fill-rule="evenodd" clip-rule="evenodd" d="M18.2027 18.1808C18.2027 14.4083 21.261 11.35 25.0335 11.35C28.806 11.35 31.8643 14.4083 31.8643 18.1808V21.9844C31.8643 25.7569 28.806 28.8152 25.0335 28.8152C21.261 28.8152 18.2027 25.7569 18.2027 21.9844V18.1808ZM25.0335 12.65C21.9789 12.65 19.5027 15.1262 19.5027 18.1808V21.9844C19.5027 25.0389 21.9789 27.5152 25.0335 27.5152C28.0881 27.5152 30.5643 25.0389 30.5643 21.9844V18.1808C30.5643 15.1262 28.0881 12.65 25.0335 12.65Z" fill="#434343"/>
<path fill-rule="evenodd" clip-rule="evenodd" d="M16 22.3993C16.359 22.3993 16.65 22.6903 16.65 23.0493C16.65 27.4537 20.2205 31.0243 24.625 31.0243H25.375C29.7795 31.0243 33.35 27.4537 33.35 23.0493C33.35 22.6903 33.641 22.3993 34 22.3993C34.359 22.3993 34.65 22.6903 34.65 23.0493C34.65 28.0797 30.6452 32.1748 25.65 32.3203V37.2992C25.65 37.6582 25.359 37.9492 25 37.9492C24.641 37.9492 24.35 37.6582 24.35 37.2992V32.3203C19.3548 32.1748 15.35 28.0797 15.35 23.0493C15.35 22.6903 15.641 22.3993 16 22.3993Z" fill="#434343"/>
<path fill-rule="evenodd" clip-rule="evenodd" d="M19.8498 37.6741C19.8498 37.3151 20.1408 37.0241 20.4998 37.0241H29.4998C29.8587 37.0241 30.1498 37.3151 30.1498 37.6741C30.1498 38.0331 29.8587 38.3241 29.4998 38.3241H20.4998C20.1408 38.3241 19.8498 38.0331 19.8498 37.6741Z" fill="#434343"/>
</svg>
