<svg width="50" height="50" viewBox="0 0 50 50" fill="none" xmlns="http://www.w3.org/2000/svg">
<path fill-rule="evenodd" clip-rule="evenodd" d="M10.6075 14.4819C10.7697 14.359 10.9801 14.3192 11.176 14.3743C23.3885 17.8091 34.7094 15.7973 38.7874 14.3858C38.9861 14.317 39.2058 14.3486 39.377 14.4705C39.5483 14.5925 39.65 14.7897 39.65 15V35.7586C39.65 35.9652 39.5518 36.1594 39.3855 36.2819C39.2192 36.4044 39.0046 36.4406 38.8073 36.3794C27.773 32.955 15.7811 34.9554 11.1927 36.3794C10.9954 36.4406 10.7808 36.4044 10.6145 36.2819C10.4482 36.1594 10.35 35.9652 10.35 35.7586V15C10.35 14.7965 10.4453 14.6048 10.6075 14.4819ZM11.65 15.8504V34.8926C16.7524 33.4951 27.8484 31.8892 38.35 34.8869V15.8901C33.6224 17.2935 23.0785 18.8536 11.65 15.8504Z" fill="#434343"/>
<path fill-rule="evenodd" clip-rule="evenodd" d="M17.3808 23.1607C17.6175 22.9917 17.9376 23.0004 18.1647 23.182L25.026 28.6711L29.4548 25.5709C29.6999 25.3993 30.0305 25.4172 30.2556 25.6142L33.7271 28.6518L38.6177 25.095C38.908 24.8838 39.3145 24.948 39.5257 25.2383C39.7368 25.5287 39.6726 25.9352 39.3823 26.1463L34.072 30.0084C33.8265 30.1869 33.4901 30.1718 33.2616 29.9719L29.783 26.9281L25.3728 30.0152C25.1364 30.1807 24.8192 30.1705 24.594 29.9903L17.7364 24.5043L11.3778 29.0461C11.0857 29.2548 10.6797 29.1871 10.4711 28.895C10.2624 28.6029 10.3301 28.1969 10.6222 27.9883L17.3808 23.1607Z" fill="#434343"/>
<path fill-rule="evenodd" clip-rule="evenodd" d="M33.6896 20.9604C32.9821 20.9604 32.4086 21.5339 32.4086 22.2414C32.4086 22.9489 32.9821 23.5224 33.6896 23.5224C34.3971 23.5224 34.9707 22.9489 34.9707 22.2414C34.9707 21.5339 34.3971 20.9604 33.6896 20.9604ZM31.1086 22.2414C31.1086 20.8159 32.2642 19.6604 33.6896 19.6604C35.1151 19.6604 36.2707 20.8159 36.2707 22.2414C36.2707 23.6669 35.1151 24.8224 33.6896 24.8224C32.2642 24.8224 31.1086 23.6669 31.1086 22.2414Z" fill="#434343"/>
</svg>
